<svg width="1079" height="606" viewBox="0 0 1079 606" fill="none" xmlns="http://www.w3.org/2000/svg">
<path d="M362.28 333.16C363.22 333.16 364.21 333.43 365.02 334.12C365.83 334.81 366.35 335.93 366.35 337.23L366.32 338.26H363.4V337.08C363.4 336.41 363.22 336.15 362.98 335.95C362.74 335.75 362.34 335.61 361.91 335.61H349.81C349.37 335.61 348.98 335.75 348.74 335.95C348.5 336.15 348.32 336.41 348.32 337.08V344.29C348.32 344.96 348.5 345.22 348.74 345.42C348.98 345.62 349.38 345.76 349.81 345.76H361.91C362.35 345.76 362.74 345.62 362.98 345.42C363.22 345.22 363.4 344.96 363.4 344.29V342.55H355.81V340.11H366.32L366.35 344.15C366.35 345.44 365.83 346.57 365.02 347.26C364.21 347.95 363.22 348.22 362.28 348.22H349.44C348.5 348.22 347.51 347.95 346.7 347.26C345.89 346.57 345.37 345.44 345.37 344.15V337.24C345.37 335.95 345.89 334.82 346.7 334.13C347.51 333.44 348.5 333.17 349.44 333.17H362.28V333.16Z" fill="#00AC00"/>
<path d="M381.99 333.16H397.28C398.22 333.16 399.21 333.43 400.02 334.11C400.83 334.8 401.35 335.93 401.35 337.22V339.04C401.35 340.18 400.95 341.19 400.3 341.88C400.95 342.58 401.35 343.58 401.35 344.72V348.2H398.4V344.57C398.4 343.9 398.22 343.64 397.98 343.44C397.74 343.23 397.34 343.1 396.91 343.1H384.93V348.2H381.98V333.16H381.99ZM384.94 340.66H396.92C397.36 340.66 397.75 340.52 397.99 340.32C398.23 340.12 398.41 339.86 398.41 339.19V337.08C398.41 336.41 398.23 336.15 397.99 335.95C397.75 335.75 397.35 335.61 396.92 335.61H384.94V340.67V340.66Z" fill="#00AC00"/>
<path d="M436.05 333.16V335.6H420V339.43H435.07V341.87H420V345.75H436.05V348.19H417.07V333.15H436.05V333.16Z" fill="#00AC00"/>
<path d="M470.4 333.16V335.6H454.35V339.43H469.42V341.87H454.35V345.75H470.4V348.19H451.42V333.15H470.4V333.16Z" fill="#00AC00"/>
<path d="M488.36 333.16L502.54 344.18V333.16H505.49V348.2H502.9L488.72 337.18V348.19H485.77V333.15H488.36V333.16Z" fill="#00AC00"/>
<path d="M563.1 333.16V335.6H547.05V339.43H562.12V341.87H547.05V348.19H544.12V333.15H563.1V333.16Z" fill="#00AC00"/>
<path d="M580.97 333.16V344.28C580.97 344.95 581.15 345.21 581.39 345.41C581.63 345.61 582.03 345.75 582.46 345.75H593.61C594.05 345.75 594.44 345.61 594.68 345.41C594.92 345.21 595.1 344.95 595.1 344.28V333.16H598.05V344.14C598.05 345.43 597.53 346.56 596.72 347.25C595.91 347.94 594.92 348.21 593.98 348.21H582.1C581.16 348.21 580.17 347.94 579.36 347.25C578.55 346.56 578.03 345.43 578.03 344.14V333.16H580.98H580.97Z" fill="#00AC00"/>
<path d="M632.74 333.16V335.6H624.2V348.19H621.25V335.6H612.71V333.16H632.74Z" fill="#00AC00"/>
<path d="M650.35 333.16V344.28C650.35 344.95 650.53 345.21 650.77 345.41C651.01 345.61 651.41 345.75 651.84 345.75H662.99C663.43 345.75 663.82 345.61 664.06 345.41C664.3 345.21 664.48 344.95 664.48 344.28V333.16H667.43V344.14C667.43 345.43 666.91 346.56 666.1 347.25C665.29 347.94 664.3 348.21 663.36 348.21H651.48C650.54 348.21 649.55 347.94 648.74 347.25C647.93 346.56 647.41 345.43 647.41 344.14V333.16H650.36H650.35Z" fill="#00AC00"/>
<path d="M683.21 333.16H698.5C699.44 333.16 700.43 333.43 701.24 334.11C702.05 334.8 702.57 335.93 702.57 337.22V339.04C702.57 340.18 702.17 341.19 701.52 341.88C702.17 342.58 702.57 343.58 702.57 344.72V348.2H699.62V344.57C699.62 343.9 699.44 343.64 699.2 343.44C698.96 343.23 698.56 343.1 698.13 343.1H686.15V348.2H683.2V333.16H683.21ZM686.16 340.66H698.14C698.58 340.66 698.97 340.52 699.21 340.32C699.45 340.12 699.63 339.86 699.63 339.19V337.08C699.63 336.41 699.45 336.15 699.21 335.95C698.97 335.75 698.57 335.61 698.14 335.61H686.16V340.67V340.66Z" fill="#00AC00"/>
<path d="M737.27 333.16V335.6H721.22V339.43H736.29V341.87H721.22V345.75H737.27V348.19H718.29V333.15H737.27V333.16Z" fill="#00AC00"/>
<path d="M740.41 93.1301C737.57 93.1301 735.27 91.0301 735.27 88.4401V79.8501H712.92V88.4401C712.92 91.0301 710.62 93.1301 707.78 93.1301H625.75C622.91 93.1301 620.61 91.0301 620.61 88.4401V79.8501H598.26V88.4401C598.26 91.0301 595.96 93.1301 593.12 93.1301H562.79V103.32H593.12C595.96 103.32 598.26 105.42 598.26 108.01V116.51H620.61V108.01C620.61 105.42 622.91 103.32 625.75 103.32H707.78C710.62 103.32 712.92 105.42 712.92 108.01V116.51H735.27V108.01C735.27 105.42 737.57 103.32 740.41 103.32H770.74V93.1301H740.41Z" fill="#00AC00"/>
<path d="M562.96 293.41L582.23 284.84V251.02L562.96 259.59V293.41Z" fill="#00AC00"/>
<path d="M592.44 293.41L611.71 284.84V251.02L592.44 259.59V293.41Z" fill="#00AC00"/>
<path d="M621.92 293.41L641.19 284.84V251.02L621.92 259.59V293.41Z" fill="#00AC00"/>
<path d="M667.83 188.31V198.5H760.68V127.24H667.83V137.44H668.01V188.31H667.83ZM690.36 171.23C690.36 169.69 691.73 168.44 693.42 168.44H725.74V158.24H693.42C691.73 158.24 690.36 156.99 690.36 155.45V140.22C690.36 138.68 691.73 137.43 693.42 137.43H735.27C736.96 137.43 738.33 138.68 738.33 140.22V185.51C738.33 187.05 736.96 188.3 735.27 188.3H693.42C691.73 188.3 690.36 187.05 690.36 185.51V171.22V171.23Z" fill="#00AC00"/>
<path d="M769.53 280.42V211.55H660.12V280.42C660.12 281.71 658.98 282.75 657.56 282.75H654.62V292.94H776.11V282.75H772.09C770.68 282.75 769.53 281.71 769.53 280.42ZM691.58 281.35C691.58 282.13 690.89 282.76 690.04 282.76H684.01C683.16 282.76 682.47 282.13 682.47 281.35V223.15C682.47 222.37 683.16 221.74 684.01 221.74H690.04C690.89 221.74 691.58 222.37 691.58 223.15V281.35ZM719.38 281.35C719.38 282.13 718.69 282.76 717.84 282.76H711.81C710.96 282.76 710.27 282.13 710.27 281.35V223.15C710.27 222.37 710.96 221.74 711.81 221.74H717.84C718.69 221.74 719.38 222.37 719.38 223.15V281.35ZM747.18 281.35C747.18 282.13 746.49 282.76 745.64 282.76H739.61C738.76 282.76 738.07 282.13 738.07 281.35V223.15C738.07 222.37 738.76 221.74 739.61 221.74H745.64C746.49 221.74 747.18 222.37 747.18 223.15V281.35Z" fill="#00AC00"/>
<path d="M651.32 160.79L623.35 161.01L613.98 172.58C612.04 174.98 608.96 176.4 605.69 176.4H589.28C587.8 176.4 586.96 174.85 587.86 173.77L626.77 127.24H598.65L558.07 175.76L558.15 186.59H602.63L569.64 227.33C567.72 229.7 564.68 231.1 561.44 231.1H557.41V241.29L648.03 241.17V211.17H625.68V228.34C625.68 229.86 624.33 231.09 622.67 231.09H597.92C596.45 231.09 595.6 229.56 596.48 228.48L651.3 160.78L651.32 160.79Z" fill="#00AC00"/>
<path d="M390.22 104.82C390.62 103.8 391.66 103.11 392.84 103.11H395.85C397.19 103.11 398.27 104.1 398.27 105.32V184.11H420.6V105.32C420.6 104.1 421.68 103.11 423.02 103.11H426.03C427.21 103.11 428.25 103.8 428.65 104.82C440.03 133.97 465.18 159.11 498.34 167.9V143.32C478.55 137.2 463.74 123.16 454.96 106.79C454.05 105.09 455.38 103.11 457.45 103.11H498.34V92.9098H423.02C421.68 92.9098 420.6 91.9198 420.6 90.6998V79.7598H398.27V90.6998C398.27 91.9198 397.19 92.9098 395.85 92.9098H320.53V103.11H361.42C363.49 103.11 364.82 105.09 363.91 106.79C355.13 123.15 340.33 137.19 320.53 143.32V167.9C353.69 159.11 378.84 133.97 390.22 104.82Z" fill="#00AC00"/>
<path d="M476.94 207.33H512.33V197.13H476.94C475.81 197.13 474.9 196.29 474.9 195.27V181.56H452.55V195.27C452.55 196.3 451.63 197.13 450.51 197.13H415.12V207.33H450.51C451.64 207.33 452.55 208.16 452.55 209.19C452.55 209.37 452.52 209.55 452.47 209.72C447.34 226.26 432.58 241.89 415.78 250.83V276.62C429.63 270.73 442.3 261.45 452.55 250.17V293.41H474.9V250.17C485.15 261.45 497.82 270.74 511.67 276.62V250.83C494.87 241.89 480.11 226.27 474.98 209.72C474.93 209.55 474.9 209.37 474.9 209.19C474.9 208.16 475.81 207.33 476.94 207.33Z" fill="#00AC00"/>
<path d="M366.32 195.27V181.56H343.97V195.27C343.97 196.3 343.05 197.13 341.93 197.13H306.54V207.33H341.93C343.06 207.33 343.97 208.16 343.97 209.19C343.97 209.37 343.94 209.55 343.89 209.72C338.76 226.26 324 241.89 307.2 250.83V276.62C321.05 270.73 333.72 261.45 343.97 250.17V293.41H366.32V250.17C376.57 261.45 389.24 270.74 403.09 276.62V250.83C386.29 241.89 371.53 226.27 366.4 209.72C366.35 209.55 366.32 209.37 366.32 209.19C366.32 208.16 367.24 207.33 368.36 207.33H403.75V197.13H368.36C367.23 197.13 366.32 196.29 366.32 195.27Z" fill="#00AC00"/>
<path d="M416.71 38.0198C416.39 38.0198 416.13 37.7598 416.13 37.4398V28.1498C414.56 27.8598 413.18 27.4198 412.03 26.8398C406.3 23.9498 406.85 20.0598 407.35 18.5198C408.28 15.6398 411.24 13.0698 416.14 10.8998V1.33977C416.14 1.01977 416.4 0.759766 416.72 0.759766H425.72C425.88 0.759766 426.02 0.819766 426.13 0.929766C426.24 1.03977 426.3 1.18977 426.3 1.33977V7.88977C429.22 7.39977 432.46 7.12977 436.41 7.03977C436.9 7.02977 437.39 7.01977 437.86 7.01977C447.48 7.01977 453.28 9.17977 454.83 9.83977C455.09 9.94977 455.24 10.2398 455.17 10.5198C455.1 10.7798 454.87 10.9598 454.6 10.9598C454.58 10.9598 454.57 10.9598 454.55 10.9598C453.87 10.8998 453.19 10.8398 452.49 10.7698C449.62 10.4998 446.65 10.2198 443.09 10.2198C439.02 10.2198 434.83 10.5998 430.3 11.3798C428.91 11.6198 427.57 11.9098 426.29 12.2398V22.0098C426.28 22.3198 426.04 22.5798 425.73 22.5898C424.81 22.6398 423.93 22.6598 423.1 22.6598C420.23 22.6598 418.02 22.3698 416.51 21.7998C416.28 21.7098 416.13 21.4998 416.13 21.2498V16.8098C414.48 18.1198 413.9 19.2098 413.92 19.7898C413.91 20.3098 414.07 20.7098 414.41 21.0598C415.54 22.2198 418.54 22.7998 423.31 22.7998C425.21 22.7998 427.38 22.7098 429.95 22.5298C439.82 21.8198 446.97 17.0998 447.04 17.0498C447.14 16.9798 447.25 16.9498 447.36 16.9498C447.52 16.9498 447.67 17.0098 447.78 17.1298C447.98 17.3398 448 17.6498 447.83 17.8798C447.78 17.9498 446.65 19.4798 444.33 21.3398V37.4098C444.33 37.7298 444.07 37.9898 443.75 37.9898H416.71V38.0198Z" fill="#003B83"/>
<path d="M425.71 1.33992V8.58992C428.79 8.02992 432.25 7.72992 436.42 7.62992C436.91 7.61992 437.39 7.60992 437.86 7.60992C446.49 7.60992 452.27 9.38992 454.6 10.3799C451.14 10.0799 447.55 9.63992 443.09 9.63992C439.49 9.63992 435.32 9.92992 430.2 10.8099C428.59 11.0899 427.09 11.4199 425.71 11.7999V22.0099C424.84 22.0599 423.96 22.0799 423.1 22.0799C420.67 22.0799 418.33 21.8699 416.72 21.2599V15.6699C414.41 17.2399 413.3 18.7899 413.34 19.8299C413.28 22.5499 417.49 23.3999 423.32 23.3999C425.38 23.3999 427.65 23.2899 430 23.1299C440.15 22.3999 447.37 17.5599 447.37 17.5599C447.37 17.5599 446.19 19.1699 443.76 21.0799V37.4299H416.72V27.6399C415.06 27.3699 413.56 26.9399 412.3 26.2999C407.6 23.9299 407.2 20.8699 407.91 18.6899C408.6 16.5599 410.78 13.8399 416.73 11.2799V1.33992H425.73M425.71 0.169922H416.71C416.06 0.169922 415.54 0.689922 415.54 1.33992V10.5199C410.69 12.7299 407.74 15.3599 406.78 18.3299C406.23 20.0099 405.63 24.2599 411.76 27.3499C412.84 27.8999 414.11 28.3199 415.54 28.6199V37.4299C415.54 38.0799 416.06 38.5999 416.71 38.5999H443.75C444.4 38.5999 444.92 38.0799 444.92 37.4299V21.6399C446.95 19.9799 448.05 18.5899 448.27 18.2999C448.44 18.0999 448.54 17.8399 448.54 17.5599C448.54 16.9099 448.02 16.3899 447.38 16.3899C447.38 16.3899 447.31 16.3899 447.28 16.3899C447.07 16.4099 446.88 16.4799 446.72 16.5899C446.45 16.7699 439.47 21.2799 429.92 21.9599C428.83 22.0399 427.82 22.0999 426.87 22.1399C426.87 22.0999 426.87 22.0499 426.87 22.0099V12.6999C428 12.4199 429.18 12.1699 430.4 11.9599C434.9 11.1799 439.05 10.8099 443.09 10.8099C446.62 10.8099 449.58 11.0899 452.43 11.3599C453.13 11.4299 453.81 11.4899 454.5 11.5499C454.53 11.5499 454.57 11.5499 454.6 11.5499C455.13 11.5499 455.6 11.1899 455.73 10.6699C455.87 10.1099 455.58 9.53992 455.06 9.30992C453.49 8.63992 447.6 6.43992 437.86 6.43992C437.38 6.43992 436.89 6.43992 436.39 6.45992C432.71 6.53992 429.65 6.78992 426.87 7.20992V1.33992C426.87 1.02992 426.75 0.729922 426.53 0.509922C426.31 0.289922 426.01 0.169922 425.7 0.169922H425.71ZM415.54 21.1699C415.21 20.9999 414.99 20.8399 414.83 20.6699C414.6 20.4299 414.5 20.1799 414.5 19.8599C414.5 19.8299 414.5 19.8099 414.5 19.7799C414.5 19.5799 414.71 18.9799 415.54 18.1199V21.1599V21.1699Z" fill="white"/>
<path d="M434.72 21.7398C434.59 21.7398 434.46 21.6998 434.35 21.6098C434.21 21.4998 434.13 21.3298 434.13 21.1598V1.33977C434.13 1.01977 434.39 0.759766 434.71 0.759766H443.73C444.05 0.759766 444.31 1.01977 444.31 1.33977V18.1898C444.31 18.4198 444.18 18.6298 443.97 18.7198C443.88 18.7598 441.82 19.6998 439.93 20.3098C438.79 20.6798 436.61 21.3498 434.83 21.7298C434.79 21.7298 434.75 21.7398 434.71 21.7398H434.72Z" fill="#009D85"/>
<path d="M443.75 1.33992V18.1899C443.75 18.1899 441.66 19.1499 439.77 19.7599C438.21 20.2599 436.26 20.8399 434.72 21.1599V1.33992H443.74M443.75 0.169922H434.73C434.08 0.169922 433.56 0.689922 433.56 1.33992V21.1599C433.56 21.5099 433.72 21.8499 433.99 22.0699C434.2 22.2399 434.46 22.3299 434.73 22.3299C434.81 22.3299 434.89 22.3299 434.97 22.2999C436.78 21.9099 438.98 21.2399 440.13 20.8699C442.06 20.2499 444.15 19.2899 444.24 19.2499C444.65 19.0599 444.92 18.6399 444.92 18.1899V1.33992C444.92 0.689922 444.4 0.169922 443.75 0.169922Z" fill="white"/>
<path d="M565.58 21.8702V15.6802H571.77V21.8702H565.58Z" fill="black"/>
<path d="M615.5 0H587.84C585.92 0 584.37 1.56 584.37 3.47V13.25C584.37 13.83 584.84 14.3 585.42 14.3H617.94C618.52 14.3 618.99 13.83 618.99 13.25V3.47C618.99 1.55 617.43 0 615.52 0H615.5ZM589.11 3.42H614.05V5.48H589.11V3.42ZM589.11 8.6H614.05V10.67L589.11 10.71V8.61V8.6Z" fill="black"/>
<path d="M614.65 23.6002V15.7502H609.85V23.6002H595.84C595.84 23.3402 595.89 22.9902 595.89 22.6402V20.1002C599.65 19.8802 603.07 19.6202 606.14 19.3102V15.4502C597.97 16.2802 590.2 16.7202 582.78 16.8102V20.6302C585.75 20.5402 588.62 20.4502 591.39 20.3202V22.7302C591.39 23.0402 591.34 23.3402 591.34 23.6102H581.05V27.5602H590.16C589.76 28.1702 589.32 28.7002 588.82 29.1802C587.14 30.8502 585.16 32.1602 582.88 33.0402L582.93 37.5602C586.2 36.5502 589.27 34.7502 592.19 32.2102C593.58 31.1102 594.62 29.5802 595.26 27.5602H609.86V37.5602H614.66V27.5602H622.68V23.6102H614.66L614.65 23.6002Z" fill="black"/>
<path d="M465.69 16.8202H501.52C501.93 16.8202 502.15 16.6302 502.15 16.2302V4.51022C502.15 0.490215 498.84 0.830215 497.99 0.850215H469.18C468.8 0.850215 465.37 0.630215 465.11 4.20021V16.2302C465.11 16.6302 465.3 16.8202 465.7 16.8202H465.69ZM469.64 4.92022C469.64 4.80022 469.71 4.74021 469.84 4.74021H497.42C497.55 4.74021 497.63 4.80022 497.66 4.92022V7.17022H469.64V4.92022ZM469.64 10.5102H497.66V12.7002C497.66 12.8202 497.57 12.9002 497.42 12.9302H469.84C469.71 12.9302 469.64 12.8602 469.64 12.7002V10.5102ZM499.69 19.2502H467.47C467.07 19.2502 463.6 19.0302 463.33 22.6602V36.9602H467.92V35.5102H499.3V36.9502H503.92V22.9602C503.9 18.8802 500.55 19.2302 499.69 19.2502ZM499.34 31.4002C499.34 31.5202 499.25 31.6002 499.09 31.6302H468.1C467.97 31.6302 467.91 31.5502 467.91 31.4002V29.2202H499.34V31.4002ZM499.34 25.5602H467.91V23.3202C467.91 23.1902 467.98 23.1302 468.1 23.1302H499.09C499.22 23.1302 499.3 23.1802 499.34 23.3202V25.5602ZM545.04 11.1902H553.95V7.04022H546.27C548.19 5.96022 548.76 2.22021 548.76 0.470215H543.4C543.4 2.01021 543.13 5.38022 540.27 7.04022H527.05C524.19 5.38022 523.92 2.01021 523.92 0.470215H518.56C518.56 2.21021 519.13 5.96022 521.05 7.04022H513.37V11.1902H522.29C522.29 14.5702 520.33 16.8602 518.14 18.1402C516.26 19.2502 512.49 19.8102 510.66 19.8102V23.4002C512.81 23.4302 515.44 23.1702 517.29 22.5702V32.9702H513.01V37.0902H554.31V32.9702H550.03V22.5702C551.88 23.1802 554.52 23.4402 556.66 23.4002V19.8102C554.83 19.8102 551.07 19.2502 549.17 18.1402C546.99 16.8502 545.03 14.5702 545.03 11.1902H545.04ZM528.23 11.1902H539.11C539.46 13.7602 540.04 16.0202 542.43 18.1902H524.92C527.31 16.0202 527.89 13.7602 528.23 11.1902ZM526.69 32.9602H521.73V22.6902C521.73 22.3702 521.91 22.2002 522.28 22.2002H526.69V32.9502V32.9602ZM536.21 32.9602H531.14V22.2102H536.21V32.9602ZM545.6 32.9602H540.65V22.2102H545.05C545.41 22.2102 545.6 22.3702 545.6 22.7002V32.9702V32.9602ZM663.39 11.1902H672.3V7.04022H664.62C666.54 5.96022 667.11 2.22021 667.11 0.470215H661.75C661.75 2.01021 661.48 5.38022 658.62 7.04022H645.4C642.54 5.38022 642.27 2.01021 642.27 0.470215H636.91C636.91 2.21021 637.48 5.96022 639.4 7.04022H631.72V11.1902H640.64C640.64 14.5702 638.68 16.8602 636.49 18.1402C634.61 19.2502 630.84 19.8102 629.01 19.8102V23.4002C631.16 23.4302 633.79 23.1702 635.64 22.5702V32.9702H631.36V37.0902H672.66V32.9702H668.38V22.5702C670.23 23.1802 672.87 23.4402 675.01 23.4002V19.8102C673.18 19.8102 669.42 19.2502 667.52 18.1402C665.34 16.8502 663.38 14.5702 663.38 11.1902H663.39ZM646.58 11.1902H657.46C657.81 13.7602 658.39 16.0202 660.78 18.1902H643.27C645.66 16.0202 646.24 13.7602 646.58 11.1902ZM645.04 32.9602H640.08V22.6902C640.08 22.3702 640.26 22.2002 640.63 22.2002H645.04V32.9502V32.9602ZM654.56 32.9602H649.49V22.2102H654.56V32.9602ZM663.96 32.9602H659.01V22.2102H663.41C663.77 22.2102 663.96 22.3702 663.96 22.7002V32.9702V32.9602Z" fill="black"/>
<path d="M514.59 578.75L514.97 577.06C518.52 577.82 519.11 577.48 519.07 574.1C519.07 571.48 518.31 568.27 516.28 564.72C517.17 562.02 518.35 557.92 518.77 554.66H514.46V589.77H510.49V551.66L514.12 552.63H518.3L519.36 551.79L523.59 553.52C521.9 558.25 519.58 562.14 517.89 564.59C521.06 568.01 523.04 571.64 523.09 575.15C523.22 580.69 519.16 582.25 514.6 578.74L514.59 578.75ZM546.83 585.64L543.41 590.03C539.14 587.03 533.48 580.99 532.09 568.99H529.05V582.98C531.12 582.6 533.19 582.18 534.92 581.71L535.51 583.36C531.92 585.43 526 587.67 521.14 588.81L520.04 584.2C521.48 584.12 523.08 583.91 524.77 583.69V552.89H542.9V568.99H533.94C534.62 572.16 535.67 574.74 536.98 576.85C538.75 575.03 540.49 572.79 541.88 570.47L545.64 573.43C543.65 575.29 540.74 577.23 538.12 578.5C540.57 581.71 543.65 583.82 546.82 585.64H546.83ZM529.04 559.82H538.59V555H529.04V559.82ZM529.04 566.88H538.59V561.98H529.04V566.88Z" fill="#00AC00"/>
<path d="M597.07 586.14V588.25H559.26V586.14H576.03V583.44H562.89V581.33H576.03V578.75H565.13V567.76H591.45V578.75H580.34V581.33H593.86V583.44H580.34V586.14H597.07ZM596.14 565.69H560.18V563.58H596.14V565.69ZM590.36 561.47H566.15V551.92H590.36V561.47ZM569.27 572.24H576.03V569.87H569.27V572.24ZM576.03 576.64V574.27H569.27V576.64H576.03ZM586.38 554.03H570.11V555.68H586.38V554.03ZM586.38 557.58H570.11V559.4H586.38V557.58ZM580.34 572.24H587.31V569.87H580.34V572.24ZM580.34 576.64H587.31V574.27H580.34V576.64Z" fill="#00AC00"/>
<path d="M626.49 577.31H610.18V575.07H626.49V569.7H615.17V552.42H642.59V569.7H631.1V575.07H647.45V577.31H631.1V589.48H626.49V577.31ZM638.15 559.86V554.62H619.6V559.86H638.15ZM638.15 567.55V561.97H619.6V567.55H638.15Z" fill="#00AC00"/>
<path d="M666.17 579.09L667.9 579.68C667.44 583.06 665.7 587.62 664.39 589.44L660.55 586.65C662.32 585.21 664.99 581.83 666.17 579.09ZM670.27 571.82V574.27H697.06C696.81 580.19 696.34 584.07 695.83 586.52C694.94 590.87 689.62 591.25 683.91 587.2L684.54 585.47C690.24 586.86 691.38 586.7 691.77 584.58C692.07 583.06 692.4 579.89 692.49 576.38H670.27V578.45H665.88V555.38H673.91C674.46 553.69 675.01 551.32 675.26 549.8L680.29 551.24C679.23 552.76 677.8 554.24 676.57 555.38H691.36V567.34H670.28V569.66H697.74V571.82H670.28H670.27ZM670.27 557.5V560.25H687V557.5H670.27ZM687 565.23V562.27H670.27V565.23H687ZM672.04 579.04C673.43 581.45 675 585.12 675.76 587.7L671.41 588.63C671.33 586.26 670.73 582.04 670.4 579.46L672.05 579.04H672.04ZM678.04 577.95C679.73 579.85 681.88 583.02 682.86 585.05L678.97 586.82C678.46 584.62 677.36 581.07 676.52 578.75L678.04 577.95ZM686.37 584.5C685.4 582.22 684.05 579.68 682.95 577.95L684.18 576.85C685.91 578.03 688.45 580.36 689.76 582.17L686.38 584.49L686.37 584.5Z" fill="#00AC00"/>
<path d="M736.57 579.8L738.26 580.39C737.71 584.07 735.98 587.95 734.2 590.32L730.69 587.36C732.8 585.71 735.17 583.01 736.56 579.8H736.57ZM736.57 561.26H732.18V559.15H739.19V556.53H733.36V554.42H739.19V550.62H743.42V554.42H749.04V556.53H743.42V559.15H750.27V561.26H746.13V562.91C746.13 563.8 746.34 564.09 747.31 564.09C748.2 564.09 748.66 564.01 749.55 563.33L750.94 565.57C749.38 566.88 747.94 567.01 745.91 566.96C743.67 566.88 742.57 566.41 742.57 563.67V561.26H740.33C740.03 564.39 738.39 567.64 731.67 569.03L731.08 567.47C735.85 565.57 736.4 563.71 736.57 561.26ZM739.15 575.33V571.7H732.64V569.59H739.15V566.3H743.33V569.59H749.41V571.7H743.33V574.78C745.7 574.44 747.94 574.06 749.84 573.68L750.26 575.24C745.49 577.02 737.46 579 732.26 579.55L731.54 576C733.91 575.83 736.53 575.62 739.15 575.32V575.33ZM744.52 579.72C746.21 582.43 747.77 586.23 748.49 588.68L744.1 589.65C743.89 586.9 743.34 583.23 742.79 580.23L744.52 579.72ZM761.12 570.93L758.58 573.68C757.99 572.88 757.31 571.95 756.59 571.02C755.03 575.58 752.2 578.71 747.34 580.99L746.45 579.51C750.76 576.68 752.79 573.22 753.68 567.47C752.58 566.2 751.52 564.98 750.6 564.01L751.53 562.7C752.38 563.21 753.18 563.76 754.02 564.35C754.1 562.96 754.19 561.43 754.23 559.79H751.19V557.68H754.23V550.46H758.24V557.68H764.54C764.58 566.6 764.71 574.28 766.02 575.38C766.7 575.89 766.78 574.66 766.78 569.46H768.43C770.33 578.12 768.56 581.71 764.67 579.26C762.52 578.04 761.54 575.12 761.12 570.94V570.93ZM753.6 579.38C755.5 581.92 757.57 585.8 758.42 588.17L754.03 589.52C753.61 586.9 752.76 583.06 751.92 580.01L753.61 579.38H753.6ZM761.08 570.42C760.83 567.46 760.78 563.87 760.78 559.77H758.2C758.16 562.47 757.95 564.93 757.57 567.08C758.92 568.22 760.15 569.4 761.08 570.42ZM768.68 587.87L764.54 589.9C763.78 587.45 762.05 583.27 760.61 580.27L762.13 579.34C764.71 581.58 767.37 585.3 768.68 587.87Z" fill="#00AC00"/>
<path d="M788.64 579.47L790.37 580.15C789.53 584.25 787.67 588.09 785.34 590.63L781.62 587.12C784.32 585.51 786.9 583.11 788.63 579.47H788.64ZM784.07 569.83L783.06 568.48C786.4 565.44 789.27 560.87 790.67 555.13H783.95V552.98H803.81V555.13H794.85C794.43 556.82 793.84 558.38 793.08 559.86H797.9L799.04 558.97L802.88 560.49C800.64 571.27 793.75 577.01 784.33 580.14L783.65 578.53C792.4 574.56 796.45 568.9 798.06 561.97H791.89C791.43 562.69 790.92 563.41 790.41 564.08C792.23 565.31 794.09 566.83 795.35 568.3L792.31 571.01C791.25 568.98 790.16 567.16 789.06 565.64C787.5 567.33 785.81 568.72 784.07 569.82V569.83ZM795.35 578.88C797 581.5 799.19 586.23 799.91 588.72L795.26 589.9C795.01 587.11 794.29 582.38 793.65 579.46L795.34 578.87L795.35 578.88ZM803.55 578.71C805.62 581.08 808.37 585.43 809.42 587.96L804.9 589.65C804.35 587.11 802.96 582.34 801.94 579.51L803.55 578.71ZM808.83 572.2H804.99V553.57H808.83V572.2ZM807.02 574.14C811.84 575.24 812.81 575.28 812.81 572.45V550.56H817.04V573.97C817.04 578.45 812.77 579.93 806.52 575.79L807.03 574.14H807.02ZM819.9 587.24L815.84 590.07C814.7 587.53 812.42 582.89 810.85 580.35L812.2 579.21C815.12 581.41 818.45 585 819.89 587.24H819.9Z" fill="#00AC00"/>
<path d="M849.36 564.76H838.46V589.6H834.19V552.04H849.36V564.76ZM845.35 554.2H838.46V557.28H845.35V554.2ZM845.35 559.4H838.46V562.61H845.35V559.4ZM857.05 577.14V587.7H853.08V577.14H848.98C848.47 582.97 845.6 586.86 840.7 588.76L839.69 587.2C843.41 584.54 844.68 581.96 844.97 577.14H839.73V574.98H845.05V569.78H840.82V567.67H861.48V569.78H857.04V574.98H862.58V577.14H857.04H857.05ZM853.08 574.99V569.79H849.07V574.99H853.08ZM867.82 552.05V585.09C867.82 589.86 863.34 590.5 857.98 587.88L858.32 586.06C863.18 586.74 863.6 586.14 863.6 584.2V564.76H852.87V552.04H867.83L867.82 552.05ZM863.6 554.2H856.92V557.28H863.6V554.2ZM863.6 559.4H856.92V562.61H863.6V559.4Z" fill="#00AC00"/>
<path d="M915.7 588.3C912.53 588.43 910.12 588.43 906.91 588.3C901.88 588.13 900.91 587.03 900.91 583.23V564.17C900.28 564.89 899.64 565.56 898.92 566.2L898.12 565.48V565.86H894.23V571.82H899.77V573.93H894.23V581.83C896.3 581.28 898.2 580.69 899.64 580.14L900.32 581.79C897.02 584.16 888.74 587.45 883.93 588.76L882.54 584.16L884.57 583.91V569.54H888.2V583.23C888.88 583.1 889.55 582.98 890.23 582.81V565.87H885.08V552.56H898.14V564.35C900.84 560.12 902.07 555.43 903.04 550.15L907.48 551.38C907.14 552.82 906.55 554.55 905.71 556.45H919.1C919.14 565.58 919.02 571.87 918.64 574.87C917.96 580.49 913.44 580.62 908.41 576.9L908.96 575.29C913.78 576.51 914.45 576.43 914.75 573.13C914.96 570.68 915.09 565.27 915 558.64H904.65C903.85 560.16 902.88 561.72 901.73 563.16H912.72V573.47H904.95V582.22C904.95 584.04 905.2 584.42 907.49 584.54C910.15 584.71 912.14 584.71 914.76 584.54C918.1 584.37 918.44 583.44 918.52 578.08H920.21C921.82 584.88 921.65 588.05 915.73 588.31L915.7 588.3ZM894.24 554.67H888.96V563.75H894.24V554.67ZM904.93 565.23V571.4H908.82V565.23H904.93Z" fill="#00AC00"/>
<path d="M1077.74 539.86H351.5V604.97H1077.74V539.86Z" stroke="#00AC00" stroke-width="0.93" stroke-miterlimit="10"/>
<path d="M400.93 434.31C400.65 435.05 399.92 435.51 398.62 435.51C397.61 438.28 396.31 441.6 394.93 444.73H427.03V518.44H417.8V513.64H371.76V518.71H362.9V444.72H385.5C386.88 440.66 388.27 435.86 389.01 432.08L400.91 434.29L400.93 434.31ZM417.82 453.32H371.78V465.22H417.82V453.32ZM417.82 473.34H371.78V485.33H417.82V473.34ZM371.78 505.53H417.82V493.45H371.78V505.53Z" fill="#00AC00"/>
<path d="M479.82 460.51V455.44C472.62 475.18 459.71 488.56 443.93 495.66C442.92 493.54 440.24 489.85 438.49 488.28C445.22 485.51 451.31 481.73 456.57 476.84C453.62 474.16 449.1 471.03 445.41 468.81L450.67 463.92C454.27 465.95 458.7 468.81 461.74 471.3C463.22 469.45 464.6 467.52 465.89 465.49C462.75 463.18 458.23 460.51 454.45 458.66L458.6 453.31C462.01 454.88 466.16 457.19 469.3 459.21C470.87 455.89 472.25 452.29 473.27 448.51H457.59C453.99 454.6 449.47 460.5 444.49 464.93C443.01 463.27 440.15 460.69 438.4 459.3C446.43 452.57 452.98 441.22 456.02 431.9L466.17 434.67C465.8 435.41 465.16 435.87 463.86 435.78C463.21 437.35 462.48 439.01 461.65 440.76H477.06L478.54 440.48L484.17 443.16C483.99 443.71 483.62 444.08 483.06 444.45C482.41 447.12 481.77 449.71 480.94 452.2H493.58C494.13 446.3 494.23 439.65 494.41 432.27L505.39 433.01C505.21 433.84 504.47 434.39 503.08 434.67C502.9 440.94 502.71 446.75 502.25 452.2H522.82V460.5H503.63C507.23 473.14 513.87 482.83 525.03 487.53C523.09 489.28 520.42 492.79 519.22 495.19C509.44 490.21 503.08 481.81 498.83 470.74C495.23 481.63 488.31 489.93 474.47 495.46C473.46 493.15 470.96 489.83 469.03 488.17C484.07 482.45 489.97 473.5 492.46 460.49H479.82V460.51ZM458.41 499.54C456.29 506.55 452.32 514.12 447.62 518.73L439.41 515.32C443.75 511.44 447.9 504.25 450.02 497.51L458.42 499.54H458.41ZM468.38 517.8C468.38 513.37 467.64 505.9 466.53 500.27L474.65 499.44C475.85 504.98 476.86 512.17 476.96 516.51L468.38 517.8ZM490.61 517.9C489.87 513.38 487.66 506 485.35 500.37L493.56 498.99C495.96 504.43 498.45 511.63 499.28 516.15L490.61 517.9ZM515.89 518.82C513.68 513.84 508.6 505.72 504.08 499.82L512.38 497.14C516.9 502.77 522.34 510.61 524.74 515.68L515.88 518.82H515.89ZM512.66 434.41C516.44 437.92 520.78 442.99 522.72 446.31L515.89 450.46C514.14 447.05 509.89 441.79 506.2 438.1L512.66 434.41Z" fill="#00AC00"/>
<path d="M603.63 448.61L610.83 452.85C610.55 453.4 609.82 453.77 609.26 454.05C599.02 471.02 580.57 491.14 563.04 504.05C572.36 508.76 584.26 508.76 596.81 508.76C602.9 508.76 611.66 508.76 614.98 508.67C613.69 510.7 612.4 514.67 611.94 517.07H590.63C570.7 517.07 556.22 514.03 546.9 500.28C543.86 505.91 540.35 511.63 537.21 515.87C537.39 516.24 537.39 516.61 537.39 516.98C537.39 517.53 537.21 518.09 536.84 518.55L527.8 512.65C534.53 505.27 541.82 492.91 545.61 483.5L553.82 486.91C553.08 488.48 552.16 490.32 551.24 492.17C552.53 494.75 554.01 496.97 555.76 498.81C570.61 488.39 586.3 471.78 595.61 457.66H533.43V449.08H566.73V432.38L577.89 433.03C577.8 433.86 577.24 434.32 575.77 434.51V449.09H601.97L603.63 448.63V448.61Z" fill="#00AC00"/>
<path d="M644.13 488.84V491.52C647.73 493.83 655.39 499.08 657.32 500.56L652.15 507.11C650.49 505.27 647.26 502.22 644.12 499.45V518.73H635.91V497.14C632.04 504.06 627.24 510.24 621.8 513.93C621.06 511.53 619.22 508.12 617.83 505.9C623.55 502.12 628.99 495.75 632.68 488.83H619.4V481.17H635.91V470.47L646.24 471.02C646.15 471.85 645.59 472.31 644.12 472.5V481.17H657.13V488.83H644.12L644.13 488.84ZM656.59 473.61V451.75C648.66 461.16 637.12 468.91 625.41 473.06C624.3 471.03 621.81 467.89 619.97 466.33C630.21 463.1 640.73 457.1 647.92 450H624.03V442.25H656.6V432.1L667.49 432.75C667.4 433.58 666.84 434.04 665.37 434.23V442.26H699.04V450.01H673.76C681.51 456.84 692.4 462.56 703.28 465.51C701.34 467.17 698.85 470.58 697.56 472.71C685.66 468.65 673.67 460.9 665.36 451.58V473.63H656.6L656.59 473.61ZM703.73 488.84H688.69C693.12 496.31 699.58 503.6 705.67 507.66C703.73 509.23 700.96 512.37 699.49 514.58C694.14 509.97 688.7 502.59 684.54 494.56V518.73H676.24V494.74C671.63 503.14 665.54 510.42 658.8 514.85C657.6 512.91 655.11 509.96 653.36 508.48C660.46 504.42 667.2 497.04 671.63 488.83H660.74V481.17H676.24V470.47L686.66 471.02C686.57 471.85 685.92 472.31 684.54 472.59V481.17H703.73V488.83V488.84Z" fill="#00AC00"/>
<path d="M761.58 494H738.33V502.4H730.21V437.73H761.58V494.01V494ZM753.46 445.75H738.33V461.53H753.46V445.75ZM738.33 485.98H753.46V469.37H738.33V485.98ZM810.11 436.16V507.94C810.11 517.53 805.59 518.55 789.26 518.55C788.8 516.15 787.42 512.28 786.12 510.06C788.98 510.15 791.75 510.15 794.15 510.15C801.16 510.15 801.44 510.15 801.44 507.84V489.02H776.25C774.04 500.18 769.15 511.34 758.54 519.37C757.25 517.62 753.93 514.57 751.99 513.37C767.77 501.56 769.33 483.94 769.33 469.55V436.15H810.11V436.16ZM777.91 469.65C777.91 473.25 777.82 477.12 777.36 481.09H801.44V466.51H777.92V469.65H777.91ZM801.43 444.28H777.91V458.58H801.43V444.28Z" fill="#00AC00"/>
<path d="M825.79 438H887.23V516.97H877.91V511.25H834.73V517.34H825.78V438H825.79ZM877.92 446.86H834.74V470.02H877.92V446.86ZM834.74 502.4H877.92V478.69H834.74V502.4Z" fill="#00AC00"/>
<path d="M974.42 448.61L981.62 452.85C981.34 453.4 980.61 453.77 980.05 454.05C969.81 471.02 951.36 491.14 933.83 504.05C943.15 508.76 955.05 508.76 967.6 508.76C973.69 508.76 982.45 508.76 985.77 508.67C984.48 510.7 983.19 514.67 982.73 517.07H961.42C941.49 517.07 927.01 514.03 917.69 500.28C914.65 505.91 911.14 511.63 908 515.87C908.18 516.24 908.18 516.61 908.18 516.98C908.18 517.53 908 518.09 907.63 518.55L898.59 512.65C905.32 505.27 912.61 492.91 916.4 483.5L924.61 486.91C923.87 488.48 922.95 490.32 922.03 492.17C923.32 494.75 924.8 496.97 926.55 498.81C941.4 488.39 957.09 471.78 966.4 457.66H904.22V449.08H937.52V432.38L948.68 433.03C948.59 433.86 948.03 434.32 946.56 434.51V449.09H972.76L974.42 448.63V448.61Z" fill="#00AC00"/>
<path d="M1003.3 494.65C1003.02 495.2 1002.38 495.57 1001.27 495.57C999.61 501.75 996.84 509.04 993.89 513.74C992.51 512.63 989.92 511.16 988.26 510.23C990.94 505.89 993.43 498.79 994.99 492.24L1003.29 494.64L1003.3 494.65ZM1070.28 509.78H1075.45V516.42H1020.19V509.78H1026.83V489.02L1021.57 491.42C1021.29 490.22 1020.74 488.84 1020.09 487.36L1011.79 488.01V518.64H1004.13V488.47C999.7 488.66 995.83 488.93 992.6 489.02C992.42 489.76 991.77 490.13 991.22 490.22L988.91 482.01L996.66 481.92C998.32 480.17 1000.07 478.32 1001.92 476.29C998.69 472.69 994.08 468.45 990.02 465.41L994.26 460.24L997.4 462.55C1000.17 458.58 1003.03 453.79 1004.87 450.1L1013.08 453.61C1012.8 454.16 1012.06 454.44 1010.96 454.35C1008.75 457.95 1005.24 462.75 1002.1 466.53C1003.76 467.91 1005.24 469.39 1006.53 470.77C1009.76 466.8 1012.71 462.74 1014.93 459.24L1023.14 463.21C1022.86 463.86 1022.03 464.04 1020.93 464.04C1016.87 469.3 1010.97 476.13 1005.52 481.66L1016.96 481.38C1015.95 479.63 1014.84 477.97 1013.73 476.49L1019.54 474C1022.86 478.15 1026.18 483.78 1027.47 487.84H1070.28V509.8V509.78ZM1012.16 451.93V446.76H990.76V439.1H1012.16V432.27L1022.95 432.92C1022.86 433.66 1022.21 434.21 1020.74 434.49V439.1H1043.25V432.27L1054.14 432.92C1054.05 433.75 1053.4 434.21 1051.93 434.49V439.1H1073.89V446.76H1051.93V451.93H1043.26V446.76H1020.75V451.93H1012.17H1012.16ZM1018.99 508.12C1018.34 504.34 1016.22 498.43 1014.1 493.91L1020.28 491.88C1022.49 496.22 1024.8 502.12 1025.45 505.72L1018.99 508.12ZM1029.87 483.58V454.15H1067.33V483.58H1029.87ZM1033.75 493.91V509.78H1039.75V493.91H1033.75ZM1037.16 459.96V466.05H1059.76V459.96H1037.16ZM1037.16 471.58V477.67H1059.76V471.58H1037.16ZM1051.28 493.91H1045.38V509.78H1051.28V493.91ZM1063.08 493.91H1056.81V509.78H1063.08V493.91Z" fill="#00AC00"/>
<path d="M17.12 455.17H30.08V458.77H0.900024V455.17H15.11C12.55 451.22 9.50002 447.06 7.62002 444.64L9.49002 442.63C12.95 444.64 17.81 448.59 20.99 451.99L17.11 455.18L17.12 455.17ZM3.95002 484.07H26.96V506.73H20.24V502.71H10.68V507.28H3.95002V484.06V484.07ZM26.82 468.34H4.09002V464.88H26.82V468.34ZM4.09002 474.3H26.82V477.77H4.09002V474.3ZM10.67 499.18H20.23V487.61H10.67V499.18ZM63.21 452.4H50.94V500.08C50.94 507.43 43.32 510.27 30.91 503.27L31.67 500.5C42 502.44 43.59 502.03 43.59 497.52V452.4H27.65V448.8H63.2V452.4H63.21Z" fill="#00AC00"/>
<path d="M19.13 554.75C13.45 557.52 7.14 559.67 0.97 560.78L0 558.01C13.79 553.71 23.01 546.37 28.76 538.26L31.26 539.44C34.03 535.49 36.04 530.71 37.64 525.23L44.99 527.45C44.16 529.18 43.26 530.85 42.22 532.37H62.67V535.9H49.22C51.09 538.26 53.03 541.44 54.35 544.42L47.97 546.43C47.48 543.52 46.58 539.5 45.61 535.9H39.58C37.92 537.84 36.18 539.57 34.45 540.96L36.39 541.86C35.97 542.35 35.56 542.83 35.14 543.39C46.37 549.42 54.2 550.6 64.25 551.64L61.13 559.33C57.04 558.91 50.87 557.04 44.64 553.72V556.84H19.14V554.76L19.13 554.75ZM1.8 548.03L0.07 545.88C5.06 540.27 9.08 532.99 11.09 525.16L18.57 527.31C17.88 528.97 17.11 530.64 16.08 532.37H32.99V535.9H20.31C21.9 537.63 23.57 539.85 25.23 542.28L19.48 544.91C18.72 542.14 17.61 539.02 16.22 535.9H13.86C10.74 540.4 6.65 544.7 1.8 548.03ZM31.46 584.62L26.89 589.82C24.39 586.7 22.32 584.34 19.61 581.71C15.04 586.49 8.8 589.82 2.98 591.48L1.8 588.92C10.12 584.55 13.51 580.33 16.63 573.4L24.05 575.34C23.43 576.59 22.73 577.84 21.9 578.94C25.09 580.4 28.07 582.06 31.46 584.62ZM7.97 560.64H29.8V573.11H7.97V560.64ZM14.42 569.86H23.5V563.9H14.42V569.86ZM21.9 553.3H43.8C40.06 551.29 36.31 548.73 32.92 545.61C29.94 548.38 26.13 551.02 21.9 553.3ZM46.43 578.87C51.9 580.88 57.31 583.37 61.19 585.94L57.03 591.69C53.57 588.5 49.06 584.97 44.35 581.64C40.4 586.49 35.62 589.4 29.66 591.62L28.34 589.19C35.48 584.75 38.6 579.83 41.09 573.53L48.37 575.54C47.75 576.72 47.12 577.83 46.43 578.87ZM34.24 560.64H56V573.11H34.24V560.64ZM40.47 569.86H49.55V563.9H40.47V569.86Z" fill="#00AC00"/>
<path d="M131.96 599.98C121.76 599.98 112.52 598.04 104.22 594.16C95.92 590.28 88.96 584.61 83.33 577.15L94.75 565.73C98.55 571.52 103.73 576.04 110.27 579.31C116.81 582.58 123.97 584.22 131.73 584.22C139.49 584.22 145.69 582.78 151.25 579.88C156.8 576.99 161.18 572.92 164.38 567.67C167.58 562.42 169.17 556.29 169.17 549.29C169.17 542.29 167.57 535.97 164.38 530.8C161.18 525.63 156.73 521.59 151.02 518.7C145.31 515.81 138.58 514.36 130.82 514.36C128.23 514.36 125.61 514.55 122.94 514.93C120.27 515.31 117.57 515.88 114.84 516.64L121.46 507.05C124.05 505.68 126.86 504.62 129.91 503.85C132.95 503.09 136.3 502.71 139.95 502.71C148.63 502.71 156.46 504.73 163.46 508.76C170.46 512.79 175.98 518.35 180.01 525.43C184.04 532.51 186.06 540.69 186.06 549.97C186.06 559.87 183.78 568.54 179.21 576C174.64 583.46 168.29 589.32 160.15 593.58C152.01 597.84 142.61 599.97 131.96 599.97V599.98ZM90.41 455.69V440.62H184.24V450.89L169.63 455.68H90.41V455.69ZM114.83 516.65V506.15L164.6 450.44L184.23 450.9L133.55 507.52L114.83 516.65Z" fill="#00AC00"/>
<path d="M228.7 502.33C242.45 502.33 252.63 511.58 252.63 525.33C252.63 539.08 242.45 548.2 228.7 548.2C214.95 548.2 204.77 539.08 204.77 525.33C204.77 511.58 214.82 502.33 228.7 502.33ZM228.7 539.61C236.37 539.61 242.45 533.93 242.45 525.33C242.45 516.73 236.37 511.05 228.7 511.05C221.03 511.05 214.95 516.6 214.95 525.33C214.95 534.06 220.9 539.61 228.7 539.61ZM273.78 503.38H284.88L240.99 595.92H229.88L273.77 503.38H273.78ZM262.41 574.24C262.41 560.49 272.46 551.24 286.34 551.24C300.22 551.24 310.27 560.49 310.27 574.24C310.27 587.99 300.09 597.11 286.34 597.11C272.59 597.11 262.41 587.99 262.41 574.24ZM286.34 588.52C294.01 588.52 300.09 582.84 300.09 574.24C300.09 565.64 294.01 559.96 286.34 559.96C278.67 559.96 272.59 565.51 272.59 574.24C272.59 582.97 278.54 588.52 286.34 588.52Z" fill="#00AC00"/>
</svg>
