<svg width="1902" height="183" viewBox="0 0 1902 183" fill="none" xmlns="http://www.w3.org/2000/svg">
<g clip-path="url(#clip0_1_50)">
<path d="M133.48 171.7C120.59 178.22 104.36 181.48 84.8 181.48C59.62 181.48 39.44 173.55 24.26 157.7C9.09 141.85 1.5 120.93 1.5 94.92C1.5 68.91 9.91 45.44 26.74 27.86C43.56 10.29 65.24 1.5 91.77 1.5C108.48 1.5 122.38 3.82 133.48 8.47V35.79C121.19 28.9 107.59 25.45 92.67 25.45C73.71 25.45 58.5 31.69 47.03 44.17C35.56 56.65 29.83 72.97 29.83 93.13C29.83 113.29 35.21 127.98 45.96 139.9C56.71 151.82 71.12 157.77 89.18 157.77C105.97 157.77 120.73 153.91 133.47 146.19V171.71L133.48 171.7Z" stroke="white" stroke-width="3" stroke-miterlimit="10"/>
<path d="M169.86 93.68C169.86 66.18 177.56 43.94 192.96 26.96C208.36 9.99 229.14 1.5 255.29 1.5C279.8 1.5 299.47 9.75 314.31 26.23C329.15 42.72 336.57 63.85 336.57 89.63C336.57 116.99 329 139.13 313.86 156.07C298.72 173.01 278.26 181.48 252.48 181.48C226.7 181.48 207.98 173.31 192.73 156.97C177.48 140.63 169.85 119.53 169.85 93.68H169.86ZM198.19 91.77C198.19 110.96 203.1 126.75 212.92 139.15C222.74 151.55 236 157.75 252.72 157.75C270.26 157.75 283.9 151.85 293.64 140.04C303.38 128.24 308.25 112.29 308.25 92.21C308.25 72.13 303.55 55.41 294.14 43.42C284.73 31.43 271.34 25.43 253.95 25.43C236.56 25.43 223.48 31.65 213.37 44.09C203.25 56.53 198.19 72.42 198.19 91.75V91.77Z" stroke="white" stroke-width="3" stroke-miterlimit="10"/>
<path d="M544.27 178.56V66.14C544.27 56.32 544.79 44.67 545.84 31.18H545.17C542.92 40.85 541.16 47.18 539.89 50.18L486.94 178.56H469.29L416.12 51.19C414.77 47.97 413.01 41.3 410.84 31.18H410.17C410.92 41.67 411.29 54.34 411.29 69.18V178.56H386.22V4.42003H423.88L470.98 119.42C474.65 128.41 477.09 135.87 478.29 141.79H479.08C480.5 137.07 483.13 129.5 486.95 119.08L534.84 4.41003H571.04V178.54H544.28L544.27 178.56Z" stroke="white" stroke-width="3" stroke-miterlimit="10"/>
<path d="M658.78 26.46V178.56H631.8V4.42004H658.78V26.45V26.46Z" stroke="white" stroke-width="3" stroke-miterlimit="10"/>
<path d="M865.81 178.56H835.68L752.38 50.18C749.31 45.46 747.06 41.37 745.64 37.93H744.97C745.64 42.43 745.98 50.9 745.98 63.34V178.57H719.79V4.42004H751.72L832.55 130.33C836.37 136.33 838.92 140.49 840.19 142.81H840.75C839.92 137.41 839.51 129.1 839.51 117.85V4.42004H865.82V178.55L865.81 178.56Z" stroke="white" stroke-width="3" stroke-miterlimit="10"/>
<path d="M1061.37 166.75C1043.98 176.57 1023.94 181.48 1001.23 181.48C975.22 181.48 954.43 173.57 938.84 157.76C923.25 141.95 915.46 120.66 915.46 93.91C915.46 67.16 924.1 44.69 941.37 27.41C958.64 10.13 980.88 1.5 1008.08 1.5C1026.81 1.5 1042.85 4.39 1056.19 10.16V37.81C1042.48 29.34 1025.87 25.11 1006.39 25.11C988.03 25.11 973 31.29 961.31 43.66C949.62 56.03 943.77 72.25 943.77 92.34C943.77 112.43 949.15 129.16 959.9 140.74C970.65 152.32 985.21 158.11 1003.57 158.11C1015.71 158.11 1025.94 155.86 1034.26 151.36V107.74H997.27V84.81H1061.35V166.76L1061.37 166.75Z" stroke="white" stroke-width="3" stroke-miterlimit="10"/>
<path d="M1183.48 142.47C1196.82 153.34 1212.52 158.77 1230.58 158.77C1253.66 158.77 1265.2 150.86 1265.2 135.05C1265.2 130.48 1263.92 126.36 1261.38 122.68C1258.83 119.01 1255.4 115.8 1251.09 113.07C1246.78 110.34 1238.26 105.93 1225.51 99.86C1209.85 92.37 1198.9 84.76 1192.68 77.04C1186.46 69.32 1183.35 60.25 1183.35 49.83C1183.35 34.84 1189.27 23.04 1201.11 14.42C1212.95 5.79999 1228.09 1.48999 1246.53 1.48999C1263.99 1.48999 1277.18 3.62999 1286.1 7.89999V35.55C1275.38 28.13 1262 24.42 1245.97 24.42C1235.7 24.42 1227.42 26.48 1221.13 30.6C1214.83 34.72 1211.69 40.38 1211.69 47.58C1211.69 54.1 1213.99 59.46 1218.6 63.66C1223.21 67.86 1232.93 73.48 1247.77 80.52C1265.08 88.61 1277.04 96.73 1283.63 104.86C1290.22 112.99 1293.52 122.34 1293.52 132.91C1293.52 148.65 1287.82 160.68 1276.43 169C1265.04 177.32 1249.26 181.48 1229.1 181.48C1221.68 181.48 1213.43 180.58 1204.37 178.78C1195.3 176.98 1188.33 174.58 1183.46 171.59V142.47H1183.48Z" stroke="white" stroke-width="3" stroke-miterlimit="10"/>
<path d="M1332.16 93.68C1332.16 66.18 1339.86 43.94 1355.26 26.96C1370.66 9.98 1391.44 1.5 1417.59 1.5C1442.1 1.5 1461.77 9.75 1476.61 26.23C1491.45 42.72 1498.87 63.85 1498.87 89.63C1498.87 116.99 1491.3 139.13 1476.16 156.07C1461.02 173.01 1440.56 181.48 1414.78 181.48C1389 181.48 1370.28 173.31 1355.03 156.97C1339.78 140.63 1332.15 119.53 1332.15 93.68H1332.16ZM1360.49 91.77C1360.49 110.96 1365.4 126.75 1375.22 139.15C1385.04 151.55 1398.3 157.75 1415.02 157.75C1432.56 157.75 1446.2 151.85 1455.94 140.04C1465.68 128.24 1470.55 112.29 1470.55 92.21C1470.55 72.13 1465.85 55.41 1456.44 43.42C1447.03 31.43 1433.64 25.43 1416.25 25.43C1398.86 25.43 1385.79 31.65 1375.67 44.09C1365.55 56.53 1360.49 72.42 1360.49 91.75V91.77Z" stroke="white" stroke-width="3" stroke-miterlimit="10"/>
<path d="M1537.28 93.68C1537.28 66.18 1544.98 43.94 1560.38 26.96C1575.78 9.98 1596.56 1.5 1622.71 1.5C1647.22 1.5 1666.89 9.75 1681.73 26.23C1696.57 42.72 1703.99 63.85 1703.99 89.63C1703.99 116.99 1696.42 139.13 1681.28 156.07C1666.14 173.01 1645.68 181.48 1619.9 181.48C1594.12 181.48 1575.4 173.31 1560.15 156.97C1544.9 140.63 1537.27 119.53 1537.27 93.68H1537.28ZM1565.6 91.77C1565.6 110.96 1570.51 126.75 1580.33 139.15C1590.15 151.55 1603.41 157.75 1620.13 157.75C1637.67 157.75 1651.31 151.85 1661.05 140.04C1670.79 128.24 1675.66 112.29 1675.66 92.21C1675.66 72.13 1670.96 55.41 1661.55 43.42C1652.14 31.43 1638.75 25.43 1621.36 25.43C1603.97 25.43 1590.9 31.65 1580.78 44.09C1570.66 56.53 1565.6 72.42 1565.6 91.75V91.77Z" stroke="white" stroke-width="3" stroke-miterlimit="10"/>
<path d="M1899.66 178.56H1869.53L1786.23 50.18C1783.16 45.46 1780.91 41.37 1779.48 37.93H1778.81C1779.48 42.43 1779.82 50.9 1779.82 63.34V178.57H1753.63V4.42004H1785.56L1866.39 130.33C1870.21 136.33 1872.76 140.49 1874.03 142.81H1874.59C1873.76 137.41 1873.35 129.1 1873.35 117.85V4.42004H1899.66V178.55V178.56Z" stroke="white" stroke-width="3" stroke-miterlimit="10"/>
</g>
<defs>
<clipPath id="clip0_1_50">
<rect width="1901.16" height="182.98" fill="white"/>
</clipPath>
</defs>
</svg>
