<svg width="490" height="280" viewBox="0 0 490 280" fill="none" xmlns="http://www.w3.org/2000/svg">
<path d="M58.1 264.04C59.08 264.04 60.11 264.32 60.96 265.04C61.8 265.76 62.35 266.93 62.35 268.28L62.32 269.36H59.28V268.13C59.28 267.43 59.09 267.17 58.84 266.95C58.59 266.74 58.18 266.6 57.72 266.6H45.11C44.65 266.6 44.24 266.74 43.99 266.95C43.74 267.16 43.55 267.43 43.55 268.13V275.64C43.55 276.34 43.74 276.6 43.99 276.82C44.24 277.03 44.65 277.17 45.11 277.17H57.72C58.18 277.17 58.59 277.03 58.84 276.82C59.09 276.61 59.28 276.34 59.28 275.64V273.83H51.37V271.28H62.32L62.35 275.49C62.35 276.84 61.8 278.01 60.96 278.73C60.12 279.45 59.08 279.73 58.1 279.73H44.72C43.74 279.73 42.71 279.45 41.86 278.73C41.02 278.01 40.47 276.84 40.47 275.49V268.29C40.47 266.94 41.02 265.77 41.86 265.05C42.7 264.33 43.74 264.05 44.72 264.05H58.1V264.04Z" fill="white"/>
<path d="M78.64 264.04H94.57C95.55 264.04 96.58 264.32 97.43 265.04C98.27 265.76 98.82 266.93 98.82 268.28V270.17C98.82 271.35 98.4 272.41 97.72 273.13C98.4 273.85 98.82 274.9 98.82 276.09V279.71H95.75V275.93C95.75 275.23 95.56 274.96 95.31 274.75C95.06 274.54 94.65 274.39 94.19 274.39H81.71V279.7H78.64V264.03V264.04ZM81.71 271.86H94.19C94.65 271.86 95.06 271.72 95.31 271.51C95.56 271.3 95.75 271.03 95.75 270.33V268.13C95.75 267.43 95.56 267.17 95.31 266.95C95.06 266.74 94.65 266.6 94.19 266.6H81.71V271.87V271.86Z" fill="white"/>
<path d="M134.96 264.04V266.59H118.24V270.58H133.95V273.13H118.24V277.17H134.96V279.72H115.18V264.05H134.96V264.04Z" fill="white"/>
<path d="M170.76 264.04V266.59H154.04V270.58H169.75V273.13H154.04V277.17H170.76V279.72H150.98V264.05H170.76V264.04Z" fill="white"/>
<path d="M189.47 264.04L204.24 275.52V264.04H207.31V279.71H204.62L189.85 268.23V279.71H186.78V264.04H189.47Z" fill="white"/>
<path d="M267.36 264.04V266.59H250.64V270.58H266.35V273.13H250.64V279.72H247.58V264.05H267.36V264.04Z" fill="white"/>
<path d="M285.97 264.04V275.63C285.97 276.33 286.16 276.59 286.41 276.81C286.66 277.02 287.07 277.16 287.53 277.16H299.15C299.61 277.16 300.02 277.02 300.27 276.81C300.52 276.6 300.71 276.33 300.71 275.63V264.04H303.78V275.48C303.78 276.83 303.23 278 302.39 278.72C301.55 279.44 300.51 279.72 299.53 279.72H287.15C286.17 279.72 285.14 279.44 284.29 278.72C283.45 278 282.9 276.83 282.9 275.48V264.04H285.97Z" fill="white"/>
<path d="M339.92 264.04V266.59H331.02V279.71H327.95V266.59H319.05V264.04H339.92Z" fill="white"/>
<path d="M358.27 264.04V275.63C358.27 276.33 358.46 276.59 358.71 276.81C358.96 277.02 359.37 277.16 359.83 277.16H371.45C371.91 277.16 372.32 277.02 372.57 276.81C372.82 276.6 373.01 276.33 373.01 275.63V264.04H376.08V275.48C376.08 276.83 375.53 278 374.69 278.72C373.85 279.44 372.81 279.72 371.83 279.72H359.45C358.47 279.72 357.44 279.44 356.59 278.72C355.75 278 355.2 276.83 355.2 275.48V264.04H358.27Z" fill="white"/>
<path d="M392.51 264.04H408.44C409.42 264.04 410.45 264.32 411.3 265.04C412.14 265.76 412.69 266.93 412.69 268.28V270.17C412.69 271.35 412.27 272.41 411.59 273.13C412.27 273.85 412.69 274.9 412.69 276.09V279.71H409.62V275.93C409.62 275.23 409.43 274.96 409.18 274.75C408.93 274.54 408.52 274.39 408.06 274.39H395.58V279.7H392.51V264.03V264.04ZM395.57 271.86H408.05C408.51 271.86 408.92 271.72 409.17 271.51C409.42 271.3 409.61 271.03 409.61 270.33V268.13C409.61 267.43 409.42 267.17 409.17 266.95C408.92 266.74 408.51 266.6 408.05 266.6H395.57V271.87V271.86Z" fill="white"/>
<path d="M448.83 264.04V266.59H432.11V270.58H447.82V273.13H432.11V277.17H448.83V279.72H429.05V264.05H448.83V264.04Z" fill="white"/>
<path d="M452.11 13.92C449.15 13.92 446.76 11.73 446.76 9.04V0.0899963H423.47V9.04C423.47 11.74 421.07 13.92 418.12 13.92H332.65C329.69 13.92 327.3 11.73 327.3 9.04V0.0899963H304.01V9.04C304.01 11.74 301.61 13.92 298.66 13.92H267.05V24.54H298.66C301.62 24.54 304.01 26.73 304.01 29.42V38.27H327.3V29.42C327.3 26.72 329.7 24.54 332.65 24.54H418.12C421.08 24.54 423.47 26.73 423.47 29.42V38.27H446.76V29.42C446.76 26.72 449.16 24.54 452.11 24.54H483.72V13.92H452.11Z" fill="white"/>
<path d="M267.2 222.62L287.28 213.68V178.44L267.2 187.38V222.62Z" fill="white"/>
<path d="M297.92 222.62L318 213.68V178.44L297.92 187.38V222.62Z" fill="white"/>
<path d="M328.64 222.62L348.72 213.68V178.44L328.64 187.38V222.62Z" fill="white"/>
<path d="M376.48 113.1V123.72H473.23V49.47H376.48V60.09H376.67V113.1H376.48ZM399.96 95.3C399.96 93.7 401.39 92.4 403.14 92.4H436.82V81.78H403.14C401.38 81.78 399.96 80.48 399.96 78.88V63.01C399.96 61.41 401.39 60.11 403.14 60.11H446.75C448.51 60.11 449.93 61.41 449.93 63.01V110.21C449.93 111.81 448.5 113.11 446.75 113.11H403.14C401.38 113.11 399.96 111.81 399.96 110.21V95.32V95.3Z" fill="white"/>
<path d="M482.45 209.09V137.33H368.44V209.09C368.44 210.43 367.25 211.52 365.78 211.52H362.72V222.14H489.31V211.52H485.12C483.65 211.52 482.46 210.43 482.46 209.09H482.45ZM401.23 210.05C401.23 210.86 400.51 211.51 399.62 211.51H393.34C392.45 211.51 391.73 210.85 391.73 210.05V149.41C391.73 148.6 392.45 147.95 393.34 147.95H399.62C400.51 147.95 401.23 148.61 401.23 149.41V210.05ZM430.2 210.05C430.2 210.86 429.48 211.51 428.59 211.51H422.31C421.42 211.51 420.71 210.85 420.71 210.05V149.41C420.71 148.6 421.43 147.95 422.31 147.95H428.59C429.48 147.95 430.2 148.61 430.2 149.41V210.05ZM459.16 210.05C459.16 210.86 458.44 211.51 457.55 211.51H451.27C450.38 211.51 449.66 210.85 449.66 210.05V149.41C449.66 148.6 450.38 147.95 451.27 147.95H457.55C458.44 147.95 459.16 148.61 459.16 149.41V210.05Z" fill="white"/>
<path d="M359.28 84.43L330.14 84.66L320.38 96.71C318.36 99.21 315.15 100.69 311.74 100.69H294.64C293.09 100.69 292.22 99.07 293.16 97.95L333.71 49.47H304.41L262.12 100.03L262.2 111.31H308.55L274.18 153.76C272.18 156.23 269.01 157.69 265.64 157.69H261.44V168.31L355.87 168.19V136.93H332.58V154.82C332.58 156.4 331.18 157.68 329.44 157.68H303.65C302.12 157.68 301.24 156.09 302.15 154.96L359.28 84.41V84.43Z" fill="white"/>
<path d="M87.21 26.1C87.62 25.04 88.71 24.32 89.94 24.32H93.08C94.47 24.32 95.6 25.35 95.6 26.62V108.72H118.86V26.62C118.86 25.35 119.99 24.32 121.38 24.32H124.52C125.75 24.32 126.84 25.04 127.25 26.1C139.11 56.47 165.32 82.67 199.86 91.83V66.22C179.23 59.84 163.81 45.21 154.66 28.16C153.71 26.39 155.1 24.32 157.26 24.32H199.86V13.7H121.38C119.99 13.7 118.86 12.67 118.86 11.4V0H95.6V11.4C95.6 12.67 94.47 13.7 93.08 13.7H14.59V24.32H57.19C59.35 24.32 60.73 26.39 59.78 28.16C50.63 45.21 35.21 59.84 14.58 66.22V91.83C49.13 82.67 75.34 56.47 87.19 26.1H87.21Z" fill="white"/>
<path d="M177.57 132.93H214.45V122.31H177.57C176.39 122.31 175.44 121.44 175.44 120.37V106.09H152.15V120.37C152.15 121.44 151.2 122.31 150.02 122.31H113.14V132.93H150.02C151.2 132.93 152.15 133.8 152.15 134.87C152.15 135.06 152.12 135.24 152.07 135.42C146.72 152.66 131.34 168.94 113.84 178.25V205.12C128.27 198.99 141.47 189.31 152.15 177.55V222.6H175.44V177.55C186.12 189.31 199.32 198.98 213.75 205.12V178.25C196.25 168.93 180.87 152.65 175.52 135.42C175.46 135.24 175.44 135.05 175.44 134.87C175.44 133.8 176.39 132.93 177.57 132.93Z" fill="white"/>
<path d="M62.3 120.36V106.08H39.01V120.36C39.01 121.43 38.06 122.3 36.88 122.3H0V132.92H36.88C38.06 132.92 39.01 133.79 39.01 134.86C39.01 135.05 38.98 135.23 38.93 135.41C33.58 152.65 18.2 168.93 0.7 178.24V205.11C15.13 198.98 28.33 189.3 39.01 177.54V222.59H62.3V177.54C72.98 189.3 86.18 198.97 100.62 205.11V178.24C83.12 168.92 67.74 152.64 62.39 135.41C62.33 135.23 62.31 135.04 62.31 134.86C62.31 133.79 63.26 132.92 64.44 132.92H101.32V122.3H64.44C63.26 122.3 62.31 121.43 62.31 120.36H62.3Z" fill="white"/>
</svg>
