<svg width="352" height="51" viewBox="0 0 352 51" fill="none" xmlns="http://www.w3.org/2000/svg">
<g clip-path="url(#clip0_1_39)">
<path d="M208.26 28.62V20.52H216.36V28.62H208.26Z" fill="white"/>
<path d="M273.58 0H237.38C234.87 0 232.83 2.04 232.83 4.55V17.35C232.83 18.11 233.44 18.72 234.2 18.72H276.76C277.52 18.72 278.13 18.11 278.13 17.35V4.55C278.13 2.04 276.09 0 273.58 0ZM239.05 4.48H271.69V7.18H239.05V4.48ZM239.05 11.25H271.69V13.96L239.05 14.01V11.26V11.25Z" fill="white"/>
<path d="M77.52 22.02H124.41C124.95 22.02 125.23 21.76 125.23 21.25V5.9C125.23 0.64 120.9 1.08 119.78 1.11H82.08C81.58 1.11 77.1 0.83 76.76 5.5V21.24C76.76 21.76 77.02 22.01 77.53 22.01L77.52 22.02ZM82.69 6.44C82.69 6.28 82.78 6.2 82.95 6.2H119.04C119.21 6.2 119.32 6.28 119.36 6.44V9.38H82.69V6.44ZM82.69 13.76H119.36V16.63C119.36 16.79 119.25 16.89 119.04 16.94H82.95C82.77 16.94 82.69 16.84 82.69 16.63V13.76ZM122.02 25.2H79.85C79.33 25.2 74.78 24.91 74.43 29.66V48.38H80.43V46.48H121.5V48.37H127.55V30.06C127.53 24.72 123.14 25.17 122.01 25.2H122.02ZM121.56 41.1C121.56 41.26 121.44 41.37 121.23 41.41H80.68C80.51 41.41 80.42 41.3 80.42 41.1V38.25H121.56V41.1ZM121.56 33.46H80.42V30.53C80.42 30.36 80.51 30.29 80.68 30.29H121.23C121.41 30.29 121.51 30.36 121.56 30.53V33.46ZM181.38 14.64H193.04V9.2H182.99C185.5 7.79 186.25 2.89 186.25 0.610001H179.24C179.24 2.63 178.89 7.03 175.15 9.2H157.85C154.11 7.03 153.75 2.62 153.75 0.610001H146.74C146.74 2.89 147.49 7.8 150 9.2H139.95V14.64H151.62C151.62 19.07 149.05 22.06 146.19 23.74C143.73 25.19 138.8 25.92 136.4 25.92V30.62C139.21 30.66 142.66 30.33 145.08 29.53V43.14H139.48V48.53H193.53V43.14H187.93V29.53C190.35 30.33 193.8 30.67 196.61 30.62V25.92C194.21 25.92 189.29 25.19 186.81 23.74C183.96 22.06 181.4 19.07 181.4 14.64H181.38ZM159.37 14.64H173.6C174.05 18 174.82 20.96 177.94 23.8H155.03C158.16 20.96 158.91 18 159.37 14.64ZM157.36 43.14H150.87V29.71C150.87 29.29 151.11 29.07 151.59 29.07H157.36V43.14ZM169.81 43.14H163.17V29.07H169.81V43.14ZM182.11 43.14H175.63V29.07H181.39C181.87 29.07 182.11 29.29 182.11 29.71V43.14ZM336.27 14.64H347.93V9.2H337.88C340.39 7.79 341.14 2.89 341.14 0.610001H334.13C334.13 2.63 333.78 7.03 330.04 9.2H312.74C309 7.03 308.64 2.62 308.64 0.610001H301.63C301.63 2.89 302.38 7.8 304.89 9.2H294.84V14.64H306.51C306.51 19.07 303.94 22.06 301.08 23.74C298.62 25.19 293.69 25.92 291.29 25.92V30.62C294.1 30.66 297.55 30.33 299.97 29.53V43.14H294.37V48.53H348.42V43.14H342.82V29.53C345.24 30.33 348.69 30.67 351.5 30.62V25.92C349.1 25.92 344.18 25.19 341.7 23.74C338.85 22.06 336.29 19.07 336.29 14.64H336.27ZM314.27 14.64H328.5C328.95 18 329.72 20.96 332.84 23.8H309.93C313.06 20.96 313.81 18 314.27 14.64ZM312.25 43.14H305.76V29.71C305.76 29.29 306 29.07 306.48 29.07H312.25V43.14ZM324.71 43.14H318.07V29.07H324.71V43.14ZM337 43.14H330.52V29.07H336.28C336.76 29.07 337 29.29 337 29.71V43.14Z" fill="white"/>
<path d="M272.47 30.89V20.62H266.19V30.89H247.86C247.86 30.55 247.92 30.09 247.92 29.63V26.3C252.84 26.01 257.31 25.67 261.33 25.27V20.22C250.64 21.31 240.47 21.88 230.76 22V26.99C234.65 26.88 238.4 26.76 242.03 26.59V29.75C242.03 30.15 241.96 30.55 241.96 30.9H228.49V36.06H240.41C239.89 36.86 239.31 37.55 238.66 38.18C236.46 40.36 233.87 42.08 230.89 43.23L230.96 49.14C235.23 47.82 239.25 45.47 243.07 42.14C244.88 40.71 246.24 38.7 247.09 36.06H266.2V49.15H272.48V36.06H282.97V30.9H272.48L272.47 30.89Z" fill="white"/>
<path d="M13.42 49.76C13 49.76 12.66 49.42 12.66 49V36.84C10.6 36.46 8.79997 35.89 7.28997 35.12C-0.210026 31.33 0.499974 26.24 1.14997 24.23C2.36997 20.46 6.23997 17.1 12.65 14.26V1.76C12.65 1.34 12.99 1 13.41 1H25.19C25.39 1 25.59 1.08 25.73 1.22C25.87 1.36 25.95 1.56 25.95 1.76V10.34C29.77 9.7 34.01 9.35 39.18 9.23C39.83 9.22 40.46 9.21 41.08 9.21C53.68 9.21 61.26 12.04 63.29 12.9C63.64 13.05 63.82 13.42 63.73 13.79C63.64 14.13 63.34 14.37 62.99 14.37C62.97 14.37 62.95 14.37 62.92 14.37C62.03 14.29 61.13 14.21 60.22 14.12C56.46 13.77 52.58 13.4 47.92 13.4C42.59 13.4 37.11 13.9 31.18 14.92C29.36 15.23 27.6 15.61 25.94 16.05V28.83C25.93 29.24 25.61 29.57 25.2 29.59C24 29.65 22.84 29.69 21.75 29.69C18 29.69 15.1 29.31 13.13 28.56C12.83 28.45 12.64 28.16 12.64 27.85V22.04C10.48 23.75 9.71997 25.18 9.74997 25.95C9.73997 26.62 9.94997 27.15 10.4 27.61C11.88 29.12 15.8 29.89 22.05 29.89C24.53 29.89 27.37 29.77 30.73 29.53C43.64 28.6 53 22.42 53.09 22.36C53.22 22.27 53.37 22.23 53.52 22.23C53.72 22.23 53.92 22.31 54.07 22.47C54.33 22.74 54.35 23.15 54.14 23.45C54.08 23.54 52.59 25.54 49.56 27.98V49.01C49.56 49.43 49.22 49.77 48.8 49.77H13.42V49.76Z" fill="#003B83"/>
<path d="M25.2 1.76V11.25C29.23 10.52 33.76 10.12 39.21 9.99C39.85 9.98 40.48 9.97 41.09 9.97C52.38 9.97 59.95 12.3 62.99 13.6C58.47 13.21 53.76 12.63 47.92 12.63C43.2 12.63 37.75 13.01 31.05 14.16C28.94 14.52 26.98 14.96 25.17 15.45V28.82C24.03 28.88 22.88 28.92 21.75 28.92C18.57 28.92 15.51 28.64 13.4 27.84V20.52C10.38 22.57 8.91997 24.6 8.97997 25.97C8.89997 29.53 14.41 30.64 22.04 30.64C24.74 30.64 27.7 30.5 30.78 30.28C44.07 29.33 53.52 22.99 53.52 22.99C53.52 22.99 51.98 25.1 48.79 27.6V49H13.42V36.19C11.25 35.84 9.28997 35.27 7.62997 34.44C1.47997 31.33 0.949971 27.32 1.87997 24.46C2.77997 21.67 5.62997 18.11 13.42 14.76V1.76H25.2ZM25.2 0.23H13.42C12.58 0.23 11.89 0.909999 11.89 1.76V13.77C5.53997 16.66 1.68997 20.1 0.419971 23.99C-0.290029 26.19 -1.09003 31.75 6.93997 35.79C8.35997 36.51 10.02 37.06 11.89 37.45V48.98C11.89 49.82 12.57 50.51 13.42 50.51H48.81C49.65 50.51 50.34 49.83 50.34 48.98V28.31C53.01 26.12 54.45 24.3 54.73 23.93C54.95 23.67 55.08 23.33 55.08 22.96C55.08 22.12 54.4 21.43 53.56 21.43C53.56 21.43 53.56 21.43 53.55 21.43C53.5 21.43 53.45 21.43 53.4 21.43C53.14 21.46 52.9 21.55 52.69 21.69C52.34 21.92 43.21 27.82 30.71 28.72C29.29 28.82 27.96 28.9 26.71 28.96C26.71 28.9 26.71 28.85 26.71 28.79V16.6C28.2 16.23 29.74 15.91 31.33 15.63C37.22 14.61 42.66 14.12 47.94 14.12C52.56 14.12 56.43 14.48 60.17 14.84C61.08 14.93 61.98 15.01 62.87 15.09C62.91 15.09 62.96 15.09 63 15.09C63.7 15.09 64.31 14.62 64.48 13.93C64.66 13.2 64.29 12.45 63.6 12.15C61.54 11.27 53.84 8.4 41.1 8.4C40.47 8.4 39.83 8.4 39.18 8.42C34.37 8.53 30.36 8.85 26.72 9.4V1.76C26.72 1.35 26.57 0.96 26.28 0.68C25.99 0.39 25.6 0.23 25.2 0.23ZM11.89 27.7C11.46 27.48 11.16 27.26 10.96 27.05C10.65 26.74 10.52 26.41 10.53 25.99C10.53 25.96 10.53 25.92 10.53 25.89C10.52 25.63 10.8 24.84 11.89 23.72V27.69V27.7Z" fill="white"/>
<path d="M36.99 28.46C36.82 28.46 36.65 28.4 36.51 28.29C36.33 28.14 36.23 27.93 36.23 27.7V1.76C36.23 1.34 36.57 1 36.99 1H48.8C49.22 1 49.56 1.34 49.56 1.76V23.81C49.56 24.11 49.39 24.38 49.11 24.5C49 24.55 46.3 25.79 43.82 26.58C42.33 27.06 39.48 27.94 37.14 28.44C37.09 28.45 37.03 28.46 36.98 28.46H36.99Z" fill="#009D85"/>
<path d="M48.81 1.76V23.81C48.81 23.81 46.07 25.07 43.61 25.86C41.56 26.52 39.02 27.27 37 27.7V1.76H48.81ZM48.81 0.23H37C36.16 0.23 35.47 0.909999 35.47 1.76V27.7C35.47 28.16 35.68 28.6 36.04 28.89C36.31 29.11 36.66 29.23 37 29.23C37.11 29.23 37.21 29.22 37.32 29.2C39.69 28.69 42.57 27.81 44.08 27.32C46.6 26.51 49.34 25.25 49.46 25.2C50 24.95 50.35 24.41 50.35 23.81V1.76C50.35 0.92 49.67 0.23 48.82 0.23H48.81Z" fill="white"/>
</g>
<defs>
<clipPath id="clip0_1_39">
<rect width="351.48" height="50.52" fill="white"/>
</clipPath>
</defs>
</svg>
