<svg width="573" height="177" viewBox="0 0 573 177" fill="none" xmlns="http://www.w3.org/2000/svg">
<path d="M72.673 162.53V127.555C72.673 126.296 72.7196 124.757 72.8129 122.938C72.9062 121.12 72.9761 119.557 73.0228 118.252H72.743C72.0901 119.464 71.4139 120.723 70.7144 122.029C70.0615 123.288 69.362 124.547 68.6159 125.806L56.9343 143.294H85.5438V148.4H50.289V144.203L71.6238 111.257H78.6887V162.53H72.673ZM92.2372 175.82L90.6983 172.043C92.89 171.064 94.6155 169.735 95.8746 168.056C97.1337 166.377 97.7399 164.465 97.6933 162.32L96.9938 156.584L100.142 161.271C99.6752 161.784 99.1622 162.157 98.6026 162.39C98.0896 162.577 97.53 162.67 96.9238 162.67C95.6647 162.67 94.5688 162.274 93.6362 161.481C92.7035 160.688 92.2372 159.592 92.2372 158.193C92.2372 156.794 92.7035 155.698 93.6362 154.905C94.6155 154.113 95.758 153.716 97.0637 153.716C98.7425 153.716 100.048 154.392 100.981 155.745C101.96 157.051 102.45 158.869 102.45 161.201C102.45 164.559 101.517 167.496 99.6519 170.015C97.8332 172.533 95.3616 174.468 92.2372 175.82ZM124.087 163.439C121.429 163.439 119.074 163.113 117.022 162.46C115.017 161.807 113.245 160.968 111.706 159.942C110.213 158.916 108.861 157.82 107.649 156.654L110.866 152.457C111.846 153.436 112.918 154.369 114.084 155.255C115.296 156.095 116.672 156.794 118.211 157.354C119.75 157.867 121.499 158.123 123.457 158.123C125.462 158.123 127.281 157.633 128.913 156.654C130.592 155.675 131.921 154.276 132.901 152.457C133.88 150.638 134.369 148.493 134.369 146.022C134.369 142.384 133.39 139.54 131.432 137.488C129.52 135.389 126.955 134.34 123.737 134.34C122.058 134.34 120.589 134.597 119.33 135.11C118.071 135.623 116.695 136.369 115.203 137.348L111.776 135.18L113.454 111.257H138.357V116.713H119.05L117.721 131.542C118.841 130.889 120.006 130.4 121.219 130.073C122.478 129.7 123.877 129.514 125.416 129.514C128.26 129.514 130.849 130.097 133.18 131.262C135.512 132.382 137.377 134.154 138.776 136.579C140.175 139.003 140.875 142.105 140.875 145.882C140.875 149.613 140.059 152.784 138.427 155.395C136.841 158.007 134.766 160.012 132.201 161.411C129.636 162.763 126.931 163.439 124.087 163.439ZM163.307 163.439C160.089 163.439 157.268 162.46 154.843 160.501C152.465 158.543 150.623 155.582 149.317 151.618C148.011 147.654 147.358 142.688 147.358 136.718C147.358 130.749 148.011 125.83 149.317 121.959C150.623 118.042 152.465 115.127 154.843 113.215C157.268 111.303 160.089 110.347 163.307 110.347C166.571 110.347 169.393 111.327 171.771 113.285C174.149 115.197 175.991 118.088 177.297 121.959C178.603 125.83 179.255 130.749 179.255 136.718C179.255 142.688 178.603 147.654 177.297 151.618C175.991 155.582 174.149 158.543 171.771 160.501C169.393 162.46 166.571 163.439 163.307 163.439ZM163.307 158.263C165.265 158.263 166.968 157.517 168.413 156.025C169.906 154.532 171.048 152.201 171.841 149.03C172.68 145.812 173.1 141.708 173.1 136.718C173.1 131.729 172.68 127.672 171.841 124.547C171.048 121.376 169.906 119.068 168.413 117.622C166.968 116.13 165.265 115.384 163.307 115.384C161.395 115.384 159.693 116.13 158.201 117.622C156.708 119.068 155.542 121.376 154.703 124.547C153.91 127.672 153.514 131.729 153.514 136.718C153.514 141.708 153.91 145.812 154.703 149.03C155.542 152.201 156.708 154.532 158.201 156.025C159.693 157.517 161.395 158.263 163.307 158.263ZM201.408 163.439C198.19 163.439 195.369 162.46 192.944 160.501C190.566 158.543 188.724 155.582 187.418 151.618C186.112 147.654 185.459 142.688 185.459 136.718C185.459 130.749 186.112 125.83 187.418 121.959C188.724 118.042 190.566 115.127 192.944 113.215C195.369 111.303 198.19 110.347 201.408 110.347C204.672 110.347 207.493 111.327 209.872 113.285C212.25 115.197 214.092 118.088 215.398 121.959C216.704 125.83 217.356 130.749 217.356 136.718C217.356 142.688 216.704 147.654 215.398 151.618C214.092 155.582 212.25 158.543 209.872 160.501C207.493 162.46 204.672 163.439 201.408 163.439ZM201.408 158.263C203.366 158.263 205.069 157.517 206.514 156.025C208.006 154.532 209.149 152.201 209.942 149.03C210.781 145.812 211.201 141.708 211.201 136.718C211.201 131.729 210.781 127.672 209.942 124.547C209.149 121.376 208.006 119.068 206.514 117.622C205.069 116.13 203.366 115.384 201.408 115.384C199.496 115.384 197.794 116.13 196.301 117.622C194.809 119.068 193.643 121.376 192.804 124.547C192.011 127.672 191.615 131.729 191.615 136.718C191.615 141.708 192.011 145.812 192.804 149.03C193.643 152.201 194.809 154.532 196.301 156.025C197.794 157.517 199.496 158.263 201.408 158.263Z" fill="white"/>
<path d="M234.278 154.629H251.18V157.707H234.278V154.629ZM234.98 142.479H250.478V145.557H234.98V142.479ZM241.082 143.181H244.322V166.563H241.082V143.181ZM247.13 146.448L250.181 147.069C249.965 147.843 249.731 148.626 249.479 149.418C249.245 150.192 249.011 150.93 248.777 151.632C248.561 152.334 248.336 152.964 248.102 153.522L245.645 152.874C245.843 152.298 246.041 151.632 246.239 150.876C246.437 150.12 246.608 149.355 246.752 148.581C246.914 147.807 247.04 147.096 247.13 146.448ZM235.52 147.285L238.112 146.664C238.346 147.312 238.553 148.014 238.733 148.77C238.931 149.526 239.102 150.264 239.246 150.984C239.39 151.686 239.489 152.325 239.543 152.901L236.816 153.603C236.78 153.027 236.699 152.379 236.573 151.659C236.447 150.921 236.294 150.174 236.114 149.418C235.934 148.644 235.736 147.933 235.52 147.285ZM226.178 147.474H234.035V150.552H226.178V147.474ZM228.797 141.588H231.767V159.489H228.797V141.588ZM225.665 159.597C226.367 159.399 227.177 159.156 228.095 158.868C229.031 158.58 230.021 158.274 231.065 157.95C232.109 157.608 233.135 157.266 234.143 156.924L234.683 159.813C233.333 160.371 231.965 160.92 230.579 161.46C229.211 161.982 227.942 162.468 226.772 162.918L225.665 159.597Z" fill="white"/>
<path d="M268.823 117.005H319.575V121.153H268.823V117.005ZM268.091 141.405H292.552V145.492H268.091V141.405ZM294.626 141.527H320.612V145.614H294.626V141.527ZM291.82 110.539H296.456V137.379H291.82V110.539ZM278.339 134.878H282.67V166.293H278.339V134.878ZM304.63 134.878H308.961V166.781H304.63V134.878ZM290.173 118.347L293.955 119.933C292.125 122.414 289.868 124.752 287.184 126.948C284.5 129.144 281.592 131.096 278.461 132.804C275.37 134.512 272.239 135.895 269.067 136.952C268.864 136.586 268.599 136.179 268.274 135.732C267.949 135.285 267.603 134.837 267.237 134.39C266.871 133.943 266.525 133.577 266.2 133.292C269.291 132.438 272.341 131.259 275.35 129.754C278.4 128.249 281.226 126.521 283.829 124.569C286.432 122.617 288.546 120.543 290.173 118.347ZM304.813 144.028L308.107 145.37C306.968 147.607 305.525 149.803 303.776 151.958C302.068 154.073 300.218 156.025 298.225 157.814C296.232 159.563 294.24 161.006 292.247 162.145C291.922 161.657 291.474 161.088 290.905 160.437C290.336 159.746 289.827 159.217 289.38 158.851C291.332 157.875 293.284 156.614 295.236 155.069C297.188 153.524 298.998 151.795 300.665 149.884C302.373 147.973 303.756 146.021 304.813 144.028ZM308.778 144.15C309.835 145.939 311.157 147.749 312.743 149.579C314.329 151.409 316.017 153.097 317.806 154.642C319.636 156.147 321.385 157.367 323.052 158.302C322.523 158.749 321.934 159.319 321.283 160.01C320.673 160.701 320.165 161.332 319.758 161.901C318.172 160.722 316.505 159.237 314.756 157.448C313.007 155.618 311.34 153.666 309.754 151.592C308.209 149.518 306.907 147.464 305.85 145.431L308.778 144.15ZM278.766 143.784L281.633 145.309C280.657 147.424 279.417 149.559 277.912 151.714C276.448 153.829 274.842 155.781 273.093 157.57C271.385 159.359 269.657 160.803 267.908 161.901C267.705 161.332 267.4 160.661 266.993 159.888C266.586 159.075 266.2 158.404 265.834 157.875C267.501 156.899 269.148 155.659 270.775 154.154C272.442 152.649 273.967 151.002 275.35 149.213C276.733 147.383 277.871 145.573 278.766 143.784ZM282.182 145.675C282.711 146 283.463 146.509 284.439 147.2C285.456 147.891 286.533 148.664 287.672 149.518C288.851 150.372 289.909 151.165 290.844 151.897C291.82 152.629 292.532 153.178 292.979 153.544L289.563 156.106C289.034 155.577 288.302 154.927 287.367 154.154C286.472 153.341 285.476 152.507 284.378 151.653C283.321 150.758 282.304 149.945 281.328 149.213C280.352 148.44 279.559 147.851 278.949 147.444L282.182 145.675ZM296.334 119.262C297.269 119.709 298.571 120.36 300.238 121.214C301.905 122.027 303.735 122.963 305.728 124.02C307.761 125.077 309.754 126.135 311.706 127.192C313.699 128.209 315.468 129.144 317.013 129.998C318.599 130.852 319.758 131.482 320.49 131.889L318.843 136.22C317.908 135.61 316.647 134.817 315.061 133.841C313.516 132.865 311.787 131.828 309.876 130.73C308.005 129.591 306.094 128.473 304.142 127.375C302.231 126.236 300.441 125.199 298.774 124.264C297.147 123.329 295.785 122.576 294.687 122.007L296.334 119.262ZM347.086 152.69H351.539V160.132C351.539 160.905 351.783 161.413 352.271 161.657C352.8 161.86 353.959 161.962 355.748 161.962C356.114 161.962 356.683 161.962 357.456 161.962C358.269 161.962 359.205 161.962 360.262 161.962C361.319 161.962 362.377 161.962 363.434 161.962C364.491 161.962 365.467 161.962 366.362 161.962C367.257 161.962 367.928 161.962 368.375 161.962C369.351 161.962 370.083 161.82 370.571 161.535C371.059 161.25 371.405 160.661 371.608 159.766C371.811 158.831 371.954 157.448 372.035 155.618C372.564 155.943 373.194 156.248 373.926 156.533C374.699 156.818 375.39 157.021 376 157.143C375.837 159.461 375.532 161.23 375.085 162.45C374.638 163.711 373.906 164.585 372.889 165.073C371.913 165.561 370.53 165.805 368.741 165.805C368.456 165.805 367.867 165.805 366.972 165.805C366.077 165.805 365.04 165.805 363.861 165.805C362.682 165.805 361.502 165.805 360.323 165.805C359.184 165.805 358.168 165.805 357.273 165.805C356.378 165.805 355.809 165.805 355.565 165.805C353.328 165.805 351.58 165.642 350.319 165.317C349.099 164.992 348.245 164.422 347.757 163.609C347.31 162.796 347.086 161.657 347.086 160.193V152.69ZM357.151 151.165L360.323 149.152C361.421 150.291 362.58 151.572 363.8 152.995C365.061 154.378 366.057 155.537 366.789 156.472L363.556 158.851C362.865 157.834 361.909 156.594 360.689 155.13C359.469 153.666 358.29 152.344 357.151 151.165ZM377.891 152.873L381.856 151.714C382.507 152.893 383.137 154.154 383.747 155.496C384.398 156.838 384.987 158.139 385.516 159.4C386.085 160.661 386.533 161.779 386.858 162.755L382.649 164.158C382.364 163.182 381.958 162.043 381.429 160.742C380.9 159.441 380.331 158.099 379.721 156.716C379.111 155.333 378.501 154.052 377.891 152.873ZM338.546 151.958L342.511 153.483C341.942 155.313 341.23 157.306 340.376 159.461C339.563 161.576 338.648 163.385 337.631 164.89L333.666 162.877C334.357 161.942 335.008 160.864 335.618 159.644C336.269 158.383 336.838 157.082 337.326 155.74C337.855 154.398 338.261 153.137 338.546 151.958ZM364.837 130.913H369.107V143.784C369.107 144.516 369.29 145.004 369.656 145.248C370.022 145.451 370.835 145.553 372.096 145.553C372.381 145.553 372.93 145.553 373.743 145.553C374.556 145.553 375.451 145.553 376.427 145.553C377.444 145.553 378.379 145.553 379.233 145.553C380.087 145.553 380.697 145.553 381.063 145.553C381.714 145.553 382.202 145.472 382.527 145.309C382.852 145.106 383.096 144.719 383.259 144.15C383.422 143.54 383.523 142.625 383.564 141.405C384.052 141.69 384.662 141.974 385.394 142.259C386.167 142.544 386.838 142.747 387.407 142.869C387.244 144.577 386.96 145.919 386.553 146.895C386.146 147.83 385.536 148.481 384.723 148.847C383.95 149.172 382.893 149.335 381.551 149.335C381.226 149.335 380.595 149.335 379.66 149.335C378.765 149.335 377.749 149.335 376.61 149.335C375.512 149.335 374.495 149.335 373.56 149.335C372.625 149.335 372.015 149.335 371.73 149.335C369.9 149.335 368.477 149.193 367.46 148.908C366.484 148.583 365.793 148.013 365.386 147.2C365.02 146.387 364.837 145.248 364.837 143.784V130.913ZM350.868 115.236L354.04 113.528C355.057 114.545 356.073 115.663 357.09 116.883C358.147 118.062 359.123 119.221 360.018 120.36C360.913 121.499 361.645 122.536 362.214 123.471L358.798 125.423C358.31 124.488 357.619 123.43 356.724 122.251C355.87 121.072 354.914 119.872 353.857 118.652C352.84 117.391 351.844 116.253 350.868 115.236ZM354.101 126.338H358.127V145.98C358.127 146.956 358.005 147.708 357.761 148.237C357.517 148.725 357.029 149.132 356.297 149.457C355.606 149.701 354.65 149.864 353.43 149.945C352.251 149.986 350.787 150.006 349.038 150.006C348.957 149.518 348.774 148.969 348.489 148.359C348.245 147.749 347.981 147.22 347.696 146.773C348.997 146.773 350.156 146.793 351.173 146.834C352.19 146.834 352.861 146.814 353.186 146.773C353.552 146.773 353.796 146.712 353.918 146.59C354.04 146.468 354.101 146.265 354.101 145.98V126.338ZM339.888 126.338H355.809V129.815H339.888V126.338ZM335.008 124.691C334.967 124.366 334.866 123.979 334.703 123.532C334.54 123.044 334.378 122.556 334.215 122.068C334.052 121.539 333.89 121.092 333.727 120.726C334.174 120.685 334.662 120.523 335.191 120.238C335.76 119.913 336.33 119.486 336.899 118.957C337.346 118.632 338.038 118.042 338.973 117.188C339.908 116.334 340.925 115.297 342.023 114.077C343.162 112.857 344.178 111.617 345.073 110.356L349.221 111.82C347.432 113.894 345.52 115.887 343.487 117.798C341.494 119.709 339.563 121.295 337.692 122.556V122.617C337.692 122.617 337.55 122.678 337.265 122.8C336.98 122.922 336.675 123.105 336.35 123.349C336.025 123.552 335.72 123.776 335.435 124.02C335.15 124.264 335.008 124.488 335.008 124.691ZM335.008 124.691L334.947 121.702L337.204 120.421L357.395 118.957C357.476 119.486 357.598 120.075 357.761 120.726C357.924 121.336 358.046 121.844 358.127 122.251C354.264 122.536 351.01 122.8 348.367 123.044C345.764 123.288 343.629 123.491 341.962 123.654C340.335 123.817 339.054 123.959 338.119 124.081C337.224 124.162 336.553 124.264 336.106 124.386C335.659 124.467 335.293 124.569 335.008 124.691ZM367.277 115.541H384.052V119.14H367.277V115.541ZM367.277 135.793H384.052V139.392H367.277V135.793ZM337.265 126.338H341.169V136.159C341.169 137.704 341.067 139.372 340.864 141.161C340.701 142.91 340.335 144.638 339.766 146.346C339.197 148.054 338.343 149.579 337.204 150.921C337.001 150.677 336.696 150.392 336.289 150.067C335.882 149.742 335.476 149.416 335.069 149.091C334.662 148.766 334.296 148.542 333.971 148.42C334.988 147.159 335.72 145.838 336.167 144.455C336.614 143.032 336.899 141.608 337.021 140.185C337.184 138.721 337.265 137.359 337.265 136.098V126.338ZM340.864 141.466C342.694 141.059 344.849 140.531 347.33 139.88C349.811 139.189 352.393 138.497 355.077 137.806L355.443 140.429C353.166 141.202 350.909 141.974 348.672 142.747C346.435 143.52 344.321 144.211 342.328 144.821L340.864 141.466ZM341.962 133.841L343.67 131.584C344.768 131.909 345.927 132.316 347.147 132.804C348.367 133.251 349.526 133.699 350.624 134.146C351.763 134.593 352.718 135.02 353.491 135.427L351.783 137.989C351.01 137.582 350.055 137.135 348.916 136.647C347.818 136.159 346.659 135.671 345.439 135.183C344.219 134.654 343.06 134.207 341.962 133.841ZM364.837 111.027H369.168V122.312C369.168 123.207 369.27 123.817 369.473 124.142C369.717 124.467 370.246 124.63 371.059 124.63C371.425 124.63 372.076 124.63 373.011 124.63C373.946 124.63 374.963 124.63 376.061 124.63C377.2 124.63 378.237 124.63 379.172 124.63C380.107 124.63 380.758 124.63 381.124 124.63C381.815 124.63 382.629 124.61 383.564 124.569C384.54 124.488 385.313 124.406 385.882 124.325C385.963 124.894 386.024 125.545 386.065 126.277C386.146 126.968 386.228 127.558 386.309 128.046C385.821 128.168 385.109 128.249 384.174 128.29C383.239 128.331 382.283 128.351 381.307 128.351C380.9 128.351 380.189 128.351 379.172 128.351C378.196 128.351 377.118 128.351 375.939 128.351C374.76 128.351 373.702 128.351 372.767 128.351C371.832 128.351 371.222 128.351 370.937 128.351C369.31 128.351 368.07 128.168 367.216 127.802C366.362 127.395 365.752 126.745 365.386 125.85C365.02 124.955 364.837 123.735 364.837 122.19V111.027ZM402.169 117.676H423.519V121.763H402.169V117.676ZM408.574 158.973H425.715V162.816H408.574V158.973ZM408.574 148.847H425.776V152.507H408.574V148.847ZM399.363 129.083H430.9V133.17H399.363V129.083ZM411.563 111.088H415.833V131.645H411.563V111.088ZM427.728 112.674L431.876 113.955C428.541 121.56 424.21 128.27 418.883 134.085C413.596 139.86 407.598 144.597 400.888 148.298C400.725 147.973 400.461 147.586 400.095 147.139C399.77 146.651 399.424 146.163 399.058 145.675C398.692 145.187 398.346 144.821 398.021 144.577C404.69 141.242 410.567 136.871 415.65 131.462C420.733 126.053 424.759 119.791 427.728 112.674ZM409.977 139.087H425.532V142.869H409.977V166.415H405.829V141.771L408.33 139.087H409.977ZM423.763 139.087H428.155V165.561H423.763V139.087ZM433.523 114.077H451.701V118.408H438.037V166.72H433.523V114.077ZM450.603 114.077H451.457L452.189 113.894L455.483 115.968C454.222 118.896 452.799 122.007 451.213 125.301C449.668 128.554 448.143 131.604 446.638 134.451C448.834 136.322 450.501 138.131 451.64 139.88C452.779 141.588 453.572 143.215 454.019 144.76C454.507 146.305 454.751 147.81 454.751 149.274C454.751 151.185 454.507 152.832 454.019 154.215C453.572 155.598 452.779 156.635 451.64 157.326C450.583 158.058 449.2 158.526 447.492 158.729C446.679 158.81 445.764 158.851 444.747 158.851C443.73 158.851 442.734 158.831 441.758 158.79C441.717 158.139 441.575 157.387 441.331 156.533C441.128 155.679 440.823 154.927 440.416 154.276C441.433 154.357 442.388 154.418 443.283 154.459C444.178 154.459 444.95 154.439 445.601 154.398C446.17 154.398 446.699 154.337 447.187 154.215C447.675 154.093 448.102 153.93 448.468 153.727C449.159 153.32 449.647 152.69 449.932 151.836C450.217 150.982 450.339 150.006 450.298 148.908C450.298 146.956 449.708 144.841 448.529 142.564C447.35 140.246 445.154 137.745 441.941 135.061C442.754 133.475 443.568 131.808 444.381 130.059C445.194 128.27 445.987 126.501 446.76 124.752C447.533 123.003 448.244 121.336 448.895 119.75C449.546 118.164 450.115 116.761 450.603 115.541V114.077ZM481.591 137.623H486.166V158.424C486.166 159.522 486.39 160.234 486.837 160.559C487.325 160.844 488.403 160.986 490.07 160.986C490.436 160.986 491.107 160.986 492.083 160.986C493.1 160.986 494.198 160.986 495.377 160.986C496.597 160.986 497.715 160.986 498.732 160.986C499.789 160.986 500.582 160.986 501.111 160.986C502.128 160.986 502.88 160.762 503.368 160.315C503.897 159.868 504.263 158.973 504.466 157.631C504.71 156.289 504.893 154.296 505.015 151.653C505.34 151.897 505.747 152.141 506.235 152.385C506.764 152.629 507.292 152.853 507.821 153.056C508.39 153.259 508.878 153.402 509.285 153.483C509.082 156.655 508.736 159.095 508.248 160.803C507.76 162.511 506.987 163.711 505.93 164.402C504.873 165.093 503.368 165.439 501.416 165.439C501.091 165.439 500.542 165.439 499.769 165.439C498.996 165.439 498.081 165.439 497.024 165.439C496.007 165.439 494.991 165.439 493.974 165.439C492.957 165.439 492.063 165.439 491.29 165.439C490.517 165.439 489.989 165.439 489.704 165.439C487.589 165.439 485.942 165.236 484.763 164.829C483.584 164.422 482.75 163.711 482.262 162.694C481.815 161.677 481.591 160.254 481.591 158.424V137.623ZM485.8 131.645L489.033 128.961C490.741 129.856 492.49 130.913 494.279 132.133C496.068 133.312 497.736 134.532 499.281 135.793C500.826 137.054 502.046 138.253 502.941 139.392L499.525 142.442C498.63 141.303 497.431 140.083 495.926 138.782C494.421 137.481 492.795 136.2 491.046 134.939C489.297 133.678 487.549 132.58 485.8 131.645ZM507.516 140.612L511.481 138.721C513.026 140.592 514.531 142.645 515.995 144.882C517.459 147.078 518.76 149.254 519.899 151.409C521.078 153.564 521.953 155.496 522.522 157.204L518.069 159.339C517.581 157.631 516.788 155.699 515.69 153.544C514.592 151.348 513.331 149.132 511.908 146.895C510.485 144.618 509.021 142.523 507.516 140.612ZM472.746 140.063L477.016 141.222C476.609 143.54 476.081 145.919 475.43 148.359C474.779 150.758 473.946 153.036 472.929 155.191C471.953 157.346 470.733 159.237 469.269 160.864L465.182 158.363C466.565 156.899 467.744 155.171 468.72 153.178C469.737 151.185 470.57 149.05 471.221 146.773C471.872 144.496 472.38 142.259 472.746 140.063ZM466.89 116.944H492.449V121.153H466.89V116.944ZM478.236 110.539H482.75V128.473H478.236V110.539ZM504.527 110.6H509.041V128.473H504.527V110.6ZM494.95 116.944H520.875V121.153H494.95V116.944Z" fill="white"/>
<path d="M13.62 14.58H18.06V64.68H13.62V14.58ZM3.48002 26.52H26.94V30.72H3.48002V26.52ZM13.86 28.14L16.68 29.34C16.08 31.46 15.34 33.66 14.46 35.94C13.58 38.18 12.62 40.42 11.58 42.66C10.58 44.86 9.50003 46.94 8.34002 48.9C7.22002 50.82 6.08002 52.46 4.92002 53.82C4.68002 53.22 4.32002 52.52 3.84002 51.72C3.40002 50.92 2.98002 50.24 2.58002 49.68C3.70002 48.48 4.80002 47.04 5.88002 45.36C6.96002 43.68 8.00002 41.86 9.00002 39.9C10.04 37.94 10.98 35.96 11.82 33.96C12.66 31.92 13.34 29.98 13.86 28.14ZM23.22 10.44L25.98 14.04C24.14 14.76 22.06 15.42 19.74 16.02C17.42 16.62 15.02 17.16 12.54 17.64C10.06 18.08 7.66002 18.46 5.34002 18.78C5.26002 18.3 5.08002 17.72 4.80002 17.04C4.56002 16.36 4.32002 15.78 4.08002 15.3C6.32002 14.9 8.62002 14.46 10.98 13.98C13.38 13.5 15.64 12.96 17.76 12.36C19.92 11.72 21.74 11.08 23.22 10.44ZM17.76 31.5C18.16 31.94 18.76 32.66 19.56 33.66C20.4 34.62 21.28 35.68 22.2 36.84C23.12 37.96 23.96 39.04 24.72 40.08C25.52 41.08 26.08 41.8 26.4 42.24L23.64 45.72C23.28 45 22.74 44.08 22.02 42.96C21.34 41.8 20.58 40.6 19.74 39.36C18.94 38.12 18.16 36.96 17.4 35.88C16.68 34.8 16.1 33.98 15.66 33.42L17.76 31.5ZM46.62 9.54H51.06V64.68H46.62V9.54ZM26.22 48.6L58.14 43.5L58.8 47.64L26.88 52.92L26.22 48.6ZM31.08 16.38L33.96 13.74C35.16 14.5 36.38 15.36 37.62 16.32C38.9 17.28 40.08 18.26 41.16 19.26C42.24 20.26 43.12 21.18 43.8 22.02L40.68 24.9C40.08 24.1 39.24 23.2 38.16 22.2C37.12 21.16 35.98 20.14 34.74 19.14C33.5 18.1 32.28 17.18 31.08 16.38ZM28.68 32.04L31.5 29.4C32.78 30.16 34.12 31.04 35.52 32.04C36.92 33.04 38.22 34.06 39.42 35.1C40.62 36.1 41.58 37.04 42.3 37.92L39.3 40.86C38.58 39.98 37.62 39.02 36.42 37.98C35.26 36.9 34 35.84 32.64 34.8C31.28 33.76 29.96 32.84 28.68 32.04ZM71.28 15.42H116.64V19.98H71.28V15.42ZM75.12 35.04H111.96V39.54H75.12V35.04ZM67.8 55.86H119.94V60.42H67.8V55.86ZM134.52 21.48H151.2V24.9H134.52V21.48ZM162.12 21.48H179.1V24.9H162.12V21.48ZM177.18 12.42H181.74V58.62C181.74 60.14 181.52 61.3 181.08 62.1C180.68 62.9 179.98 63.5 178.98 63.9C177.94 64.26 176.5 64.48 174.66 64.56C172.86 64.68 170.6 64.74 167.88 64.74C167.8 64.3 167.66 63.8 167.46 63.24C167.3 62.68 167.1 62.1 166.86 61.5C166.66 60.94 166.44 60.46 166.2 60.06C167.6 60.1 168.94 60.12 170.22 60.12C171.5 60.16 172.62 60.16 173.58 60.12C174.58 60.12 175.26 60.12 175.62 60.12C176.22 60.12 176.62 60.02 176.82 59.82C177.06 59.58 177.18 59.18 177.18 58.62V12.42ZM134.88 12.42H153.9V34.44H134.88V30.66H149.64V16.2H134.88V12.42ZM179.58 12.42V16.2H163.8V30.72H179.58V34.5H159.54V12.42H179.58ZM132.42 12.42H136.86V64.8H132.42V12.42ZM202.92 41.46H237.48V45.66H202.92V41.46ZM203.28 25.2H240.18V48.9H235.68V29.4H203.28V25.2ZM234.66 9.72L238.38 13.14C235.98 13.86 233.3 14.54 230.34 15.18C227.42 15.82 224.34 16.42 221.1 16.98C217.9 17.54 214.66 18.04 211.38 18.48C208.1 18.92 204.9 19.3 201.78 19.62C201.7 19.1 201.52 18.48 201.24 17.76C201 17 200.76 16.4 200.52 15.96C203.56 15.6 206.66 15.2 209.82 14.76C213.02 14.28 216.14 13.78 219.18 13.26C222.22 12.74 225.06 12.18 227.7 11.58C230.38 10.98 232.7 10.36 234.66 9.72ZM200.52 15.96H205.08V34.26C205.08 36.58 204.96 39.1 204.72 41.82C204.48 44.5 204.02 47.22 203.34 49.98C202.7 52.74 201.74 55.4 200.46 57.96C199.22 60.52 197.56 62.86 195.48 64.98C195.28 64.7 194.96 64.34 194.52 63.9C194.12 63.5 193.7 63.1 193.26 62.7C192.82 62.34 192.42 62.06 192.06 61.86C193.98 59.9 195.5 57.78 196.62 55.5C197.74 53.22 198.58 50.86 199.14 48.42C199.7 45.94 200.06 43.5 200.22 41.1C200.42 38.66 200.52 36.38 200.52 34.26V15.96Z" fill="white"/>
<path d="M360.09 43.56L364.41 41.64C366.05 43.8 367.73 46.12 369.45 48.6C371.17 51.04 372.77 53.42 374.25 55.74C375.77 58.06 377.01 60.12 377.97 61.92L373.41 64.38C372.53 62.58 371.33 60.46 369.81 58.02C368.33 55.58 366.73 53.1 365.01 50.58C363.33 48.06 361.69 45.72 360.09 43.56ZM342.51 11.34L347.37 12.9C345.97 16.18 344.31 19.4 342.39 22.56C340.51 25.72 338.49 28.66 336.33 31.38C334.17 34.1 331.95 36.5 329.67 38.58C329.43 38.26 329.05 37.88 328.53 37.44C328.05 36.96 327.55 36.5 327.03 36.06C326.55 35.58 326.11 35.22 325.71 34.98C327.95 33.06 330.11 30.86 332.19 28.38C334.31 25.86 336.25 23.16 338.01 20.28C339.77 17.36 341.27 14.38 342.51 11.34ZM333.27 61.86C333.15 61.5 332.99 61.02 332.79 60.42C332.59 59.86 332.37 59.26 332.13 58.62C331.89 57.98 331.65 57.44 331.41 57C332.25 56.8 333.11 56.24 333.99 55.32C334.91 54.4 335.93 53.22 337.05 51.78C337.69 51.1 338.59 49.98 339.75 48.42C340.95 46.82 342.29 44.92 343.77 42.72C345.25 40.52 346.73 38.16 348.21 35.64C349.73 33.12 351.11 30.58 352.35 28.02L357.39 30.18C355.39 33.74 353.27 37.26 351.03 40.74C348.79 44.22 346.47 47.54 344.07 50.7C341.71 53.82 339.33 56.62 336.93 59.1V59.22C336.93 59.22 336.73 59.32 336.33 59.52C335.97 59.68 335.55 59.88 335.07 60.12C334.59 60.4 334.17 60.68 333.81 60.96C333.45 61.28 333.27 61.58 333.27 61.86ZM333.27 61.86L333.15 58.02L336.45 56.22L371.85 54.18C371.93 54.86 372.07 55.62 372.27 56.46C372.51 57.3 372.69 57.98 372.81 58.5C367.17 58.86 362.33 59.18 358.29 59.46C354.25 59.74 350.83 59.96 348.03 60.12C345.27 60.32 343.01 60.5 341.25 60.66C339.49 60.82 338.09 60.96 337.05 61.08C336.01 61.2 335.21 61.32 334.65 61.44C334.09 61.56 333.63 61.7 333.27 61.86ZM360.33 11.1H365.67C366.67 14.26 367.97 17.34 369.57 20.34C371.17 23.3 373.01 26 375.09 28.44C377.17 30.84 379.39 32.82 381.75 34.38C381.39 34.7 380.99 35.12 380.55 35.64C380.11 36.12 379.67 36.62 379.23 37.14C378.83 37.66 378.49 38.16 378.21 38.64C375.81 36.8 373.53 34.56 371.37 31.92C369.25 29.28 367.35 26.4 365.67 23.28C363.99 20.16 362.63 16.98 361.59 13.74H360.33V11.1ZM351.03 11.1H364.23V15.72H351.03V11.1ZM398.67 27.48H434.13V30.36H398.67V27.48ZM402.15 20.88H430.95V23.76H402.15V20.88ZM414.21 17.58H418.35V29.16H414.21V17.58ZM413.55 39.9L416.73 41.1C415.41 42.22 413.77 43.3 411.81 44.34C409.85 45.38 407.81 46.3 405.69 47.1C403.57 47.9 401.51 48.6 399.51 49.2C399.35 48.96 399.13 48.68 398.85 48.36C398.57 48.04 398.27 47.72 397.95 47.4C397.67 47.04 397.41 46.74 397.17 46.5C399.17 46.02 401.19 45.46 403.23 44.82C405.27 44.14 407.19 43.4 408.99 42.6C410.83 41.76 412.35 40.86 413.55 39.9ZM431.07 42.9L433.95 44.7C432.63 45.66 431.17 46.58 429.57 47.46C427.97 48.3 426.49 49.02 425.13 49.62L422.73 48C423.65 47.56 424.61 47.04 425.61 46.44C426.65 45.84 427.65 45.24 428.61 44.64C429.57 44 430.39 43.42 431.07 42.9ZM406.35 35.04V39.24H426.57V35.04H406.35ZM402.51 32.58H430.59V41.64H402.51V32.58ZM391.41 12.24H441.57V64.8H437.13V16.32H395.67V64.8H391.41V12.24ZM394.05 58.2H439.59V62.28H394.05V58.2ZM414.99 44.52L417.75 42.84C419.63 43.88 421.59 45.06 423.63 46.38C425.71 47.66 427.67 48.96 429.51 50.28C431.39 51.56 432.95 52.74 434.19 53.82L431.19 55.8C430.03 54.76 428.53 53.58 426.69 52.26C424.89 50.9 422.95 49.56 420.87 48.24C418.83 46.88 416.87 45.64 414.99 44.52ZM404.85 57.54L404.73 54.78L406.35 53.46L418.41 50.52C418.41 50.96 418.41 51.46 418.41 52.02C418.41 52.58 418.43 53.04 418.47 53.4C415.67 54.16 413.43 54.78 411.75 55.26C410.07 55.74 408.75 56.14 407.79 56.46C406.87 56.74 406.21 56.96 405.81 57.12C405.41 57.28 405.09 57.42 404.85 57.54ZM404.85 57.54C404.77 57.14 404.59 56.66 404.31 56.1C404.07 55.5 403.85 55.04 403.65 54.72C404.09 54.56 404.57 54.26 405.09 53.82C405.65 53.34 405.93 52.58 405.93 51.54V44.28L409.41 44.34V54.54C409.41 54.54 409.17 54.64 408.69 54.84C408.25 55.04 407.73 55.3 407.13 55.62C406.53 55.9 405.99 56.22 405.51 56.58C405.07 56.94 404.85 57.26 404.85 57.54ZM463.11 37.62H496.05V41.28H463.11V37.62ZM463.11 47.4H496.05V51H463.11V47.4ZM463.11 57.36H496.23V61.38H463.11V57.36ZM452.73 17.88H506.43V22.08H452.73V17.88ZM459.57 27.66H499.47V64.8H494.79V31.68H464.07V64.8H459.57V27.66ZM477.27 20.04L482.79 20.46C482.23 22.22 481.61 24 480.93 25.8C480.29 27.56 479.69 29.08 479.13 30.36L474.81 29.7C475.13 28.78 475.45 27.76 475.77 26.64C476.09 25.48 476.37 24.32 476.61 23.16C476.89 22 477.11 20.96 477.27 20.04ZM491.61 9.48L496.59 10.8C495.47 12.4 494.29 14 493.05 15.6C491.81 17.2 490.67 18.58 489.63 19.74L485.73 18.42C486.41 17.58 487.11 16.64 487.83 15.6C488.55 14.56 489.23 13.52 489.87 12.48C490.55 11.4 491.13 10.4 491.61 9.48ZM463.17 11.1L467.13 9.36C468.25 10.44 469.33 11.66 470.37 13.02C471.45 14.34 472.27 15.5 472.83 16.5L468.69 18.66C468.17 17.62 467.37 16.4 466.29 15C465.25 13.56 464.21 12.26 463.17 11.1ZM543.87 9.6H548.01V34.92C548.01 37.92 547.87 40.82 547.59 43.62C547.35 46.42 546.81 49.1 545.97 51.66C545.13 54.18 543.89 56.56 542.25 58.8C540.65 61 538.47 63.02 535.71 64.86C535.51 64.54 535.21 64.18 534.81 63.78C534.41 63.42 534.01 63.06 533.61 62.7C533.21 62.34 532.85 62.06 532.53 61.86C535.05 60.18 537.07 58.34 538.59 56.34C540.11 54.34 541.25 52.2 542.01 49.92C542.77 47.64 543.27 45.26 543.51 42.78C543.75 40.26 543.87 37.64 543.87 34.92V9.6ZM554.25 9.6H558.51V64.74H554.25V9.6ZM534.03 19.86H545.73V24H534.03V19.86ZM556.47 19.86H569.07V24H556.47V19.86ZM556.71 32.4H568.47V36.48H556.71V32.4ZM556.41 45.48H570.09V49.62H556.41V45.48ZM534.45 32.4H545.85V36.48H534.45V32.4ZM531.09 48.06C532.81 47.58 534.81 46.98 537.09 46.26C539.41 45.54 541.81 44.78 544.29 43.98L544.95 47.52C542.87 48.32 540.79 49.1 538.71 49.86C536.63 50.58 534.67 51.28 532.83 51.96L531.09 48.06ZM514.17 40.74C516.49 40.06 519.29 39.22 522.57 38.22C525.89 37.18 529.25 36.12 532.65 35.04L533.31 39.18C530.19 40.22 527.05 41.26 523.89 42.3C520.73 43.34 517.87 44.26 515.31 45.06L514.17 40.74ZM515.01 21.72H533.19V25.92H515.01V21.72ZM522.51 9.66H526.71V59.58C526.71 60.78 526.55 61.72 526.23 62.4C525.95 63.08 525.43 63.6 524.67 63.96C523.95 64.32 522.99 64.56 521.79 64.68C520.59 64.8 519.03 64.84 517.11 64.8C517.07 64.28 516.91 63.6 516.63 62.76C516.39 61.96 516.13 61.24 515.85 60.6C517.13 60.64 518.29 60.66 519.33 60.66C520.41 60.7 521.13 60.7 521.49 60.66C521.85 60.66 522.11 60.58 522.27 60.42C522.43 60.3 522.51 60.02 522.51 59.58V9.66Z" fill="white"/>
<path d="M266.09 16.48L304.77 55.17" stroke="white" stroke-width="2" stroke-miterlimit="10"/>
<path d="M304.77 16.48L266.09 55.17" stroke="white" stroke-width="2" stroke-miterlimit="10"/>
<path d="M33.25 156.73H1V120.13H33.25" stroke="white" stroke-width="2" stroke-miterlimit="10"/>
<path d="M537.61 156.73H569.86V120.13H537.61" stroke="white" stroke-width="2" stroke-miterlimit="10"/>
</svg>
