<svg width="261" height="15" viewBox="0 0 261 15" fill="none" xmlns="http://www.w3.org/2000/svg">
<path d="M21.8357 14.4265H18.5257L15.9307 10.1377H6.12574L3.53074 14.4265H0.220734L7.96573 1.5148C8.45573 0.699999 9.37574 0.125 10.4157 0.125H11.6407C12.6807 0.125 13.6007 0.695 14.0907 1.5148L21.8357 14.4265ZM14.2157 7.27343L11.6407 2.98442H10.4157L7.84073 7.27343H14.2157Z" stroke="white" stroke-width="0.25" stroke-miterlimit="10"/>
<path d="M41.3507 9.9327L44.3357 14.4265H40.9007L38.0407 10.1377H27.2507V14.4265H24.3907V0.130127H40.1207C42.4907 0.130127 44.3907 2.0497 44.3907 4.41914V5.84872C44.3907 7.78826 43.1257 9.42283 41.3457 9.9327H41.3507ZM41.5507 4.41401C41.5507 3.6392 40.8957 2.98442 40.1207 2.98442H27.2507V7.27343H40.1207C40.8957 7.27343 41.5507 6.63841 41.5507 5.8436V4.41401Z" stroke="white" stroke-width="0.25" stroke-miterlimit="10"/>
<path d="M55.5307 14.4265V2.9893H46.9507V0.130127H66.9757V2.9893H58.3957V14.4265H55.5357H55.5307Z" stroke="white" stroke-width="0.25" stroke-miterlimit="10"/>
<path d="M69.5257 0.125H72.3857V14.4216H69.5257V0.125Z" stroke="white" stroke-width="0.25" stroke-miterlimit="10"/>
<path d="M77.8007 4.41401C77.8007 5.20882 78.4557 5.8436 79.2307 5.8436H90.6707C93.0407 5.8436 94.9607 7.76317 94.9607 10.1326C94.9607 12.502 93.0407 14.4216 90.6707 14.4216H74.9407V11.5424H90.6707C91.4457 11.5424 92.1007 10.9074 92.1007 10.1326C92.1007 9.35779 91.4457 8.70302 90.6707 8.70302H79.2307C76.8807 8.70302 74.9407 6.78344 74.9407 4.41401C74.9407 2.04458 76.8807 0.125 79.2307 0.125H94.9607V2.98442H79.2307C78.4557 2.98442 77.8007 3.63919 77.8007 4.41401Z" stroke="white" stroke-width="0.25" stroke-miterlimit="10"/>
<path d="M106.101 14.4265V2.9893H97.5207V0.130127H117.546V2.9893H108.966V14.4265H106.106H106.101Z" stroke="white" stroke-width="0.25" stroke-miterlimit="10"/>
<path d="M120.101 0.125H122.961V14.4216H120.101V0.125Z" stroke="white" stroke-width="0.25" stroke-miterlimit="10"/>
<path d="M128.376 4.41401V10.1326C128.376 10.9074 129.031 11.5424 129.806 11.5424H145.536V14.4216H129.806C127.436 14.4216 125.516 12.482 125.516 10.1326V4.41401C125.516 2.04458 127.436 0.125 129.806 0.125H145.536V2.98442H129.806C129.031 2.98442 128.376 3.63919 128.376 4.41401Z" stroke="white" stroke-width="0.25" stroke-miterlimit="10"/>
<path d="M167.606 13.0369L159.841 0.125H163.191L170.056 11.5424H171.281L178.146 0.125H181.476L173.731 13.0369C173.241 13.8517 172.321 14.4265 171.281 14.4265H170.056C169.016 14.4265 168.096 13.8567 167.606 13.0369Z" stroke="white" stroke-width="0.25" stroke-miterlimit="10"/>
<path d="M184.036 0.125H186.896V14.4216H184.036V0.125Z" stroke="white" stroke-width="0.25" stroke-miterlimit="10"/>
<path d="M192.311 4.41401C192.311 5.20882 192.966 5.8436 193.741 5.8436H205.181C207.551 5.8436 209.471 7.76317 209.471 10.1326C209.471 12.502 207.551 14.4216 205.181 14.4216H189.451V11.5424H205.181C205.956 11.5424 206.611 10.9074 206.611 10.1326C206.611 9.35779 205.956 8.70302 205.181 8.70302H193.741C191.391 8.70302 189.451 6.78344 189.451 4.41401C189.451 2.04458 191.391 0.125 193.741 0.125H209.471V2.98442H193.741C192.966 2.98442 192.311 3.63919 192.311 4.41401Z" stroke="white" stroke-width="0.25" stroke-miterlimit="10"/>
<path d="M212.031 0.125H214.891V14.4216H212.031V0.125Z" stroke="white" stroke-width="0.25" stroke-miterlimit="10"/>
<path d="M233.156 14.4265H221.736C219.366 14.4265 217.446 12.4872 217.446 10.1377V4.41914C217.446 2.0497 219.366 0.130127 221.736 0.130127H233.156C235.546 0.130127 237.446 2.0497 237.446 4.41914V10.1377C237.446 12.4872 235.546 14.4265 233.156 14.4265ZM221.736 11.5424H233.156C233.971 11.5424 234.606 10.9074 234.606 10.1326V4.41401C234.606 3.6392 233.971 2.98442 233.156 2.98442H221.736C220.941 2.98442 220.306 3.6392 220.306 4.41401V10.1326C220.306 10.9074 220.941 11.5424 221.736 11.5424Z" stroke="white" stroke-width="0.25" stroke-miterlimit="10"/>
<path d="M257.166 0.125H260.046V11.9322C260.026 13.3019 258.901 14.4265 257.531 14.4265C256.981 14.4265 256.426 14.2218 256.021 13.8968L242.861 3.39936V14.4316H240.001V2.6244C240.001 1.23473 241.126 0.130126 242.516 0.130126C243.066 0.130126 243.601 0.315111 244.026 0.660028L257.166 11.1575V0.125Z" stroke="white" stroke-width="0.25" stroke-miterlimit="10"/>
</svg>
