<svg width="849" height="47" viewBox="0 0 849 47" fill="none" xmlns="http://www.w3.org/2000/svg">
<path d="M9.505 14.0748C9.505 16.6148 11.595 18.6448 14.065 18.6448H50.585C58.145 18.6448 64.285 24.7748 64.285 32.3448C64.285 39.9148 58.155 46.0448 50.585 46.0448H0.375V36.8448H50.595C53.075 36.8448 55.165 34.8248 55.165 32.3448C55.165 29.8648 53.075 27.7748 50.595 27.7748H14.065C6.565 27.7748 0.375 21.6448 0.375 14.0748C0.375 6.50477 6.565 0.384766 14.065 0.384766H64.285V9.51477H14.065C11.585 9.51477 9.505 11.6048 9.505 14.0848V14.0748Z" stroke="#00BA00" stroke-width="0.75" stroke-miterlimit="10"/>
<path d="M81.625 0.384766V32.3448C81.625 34.8248 83.645 36.8448 86.195 36.8448H122.655C125.195 36.8448 127.215 34.8248 127.285 32.3448V0.384766H136.415V32.3448C136.415 39.8448 130.285 46.0448 122.655 46.0448H86.195C78.625 46.0448 72.435 39.8448 72.435 32.3448V0.384766H81.635H81.625Z" stroke="#00BA00" stroke-width="0.75" stroke-miterlimit="10"/>
<path d="M153.685 14.0748C153.685 16.6148 155.775 18.6448 158.245 18.6448H194.765C202.325 18.6448 208.465 24.7748 208.465 32.3448C208.465 39.9148 202.335 46.0448 194.765 46.0448H144.545V36.8448H194.765C197.245 36.8448 199.325 34.8248 199.325 32.3448C199.325 29.8648 197.235 27.7748 194.765 27.7748H158.245C150.745 27.7748 144.545 21.6448 144.545 14.0748C144.545 6.50477 150.755 0.384766 158.255 0.384766H208.475V9.51477H158.255C155.775 9.51477 153.695 11.6048 153.695 14.0848L153.685 14.0748Z" stroke="#00BA00" stroke-width="0.75" stroke-miterlimit="10"/>
<path d="M244.005 46.0348V9.50477H216.615V0.384766H280.525V9.51477H253.135V46.0348H244.005Z" stroke="#00BA00" stroke-width="0.75" stroke-miterlimit="10"/>
<path d="M357.675 46.0348H347.115L338.835 32.3348H307.535L299.255 46.0348H288.695L313.415 4.81477C314.985 2.20477 317.915 0.384766 321.245 0.384766H325.155C328.485 0.384766 331.415 2.21477 332.985 4.81477L357.705 46.0348H357.675ZM333.345 23.2048L325.125 9.50477H321.215L312.995 23.2048H333.345Z" stroke="#00BA00" stroke-width="0.75" stroke-miterlimit="10"/>
<path d="M365.825 0.384766H374.955V46.0348H365.825V0.384766Z" stroke="#00BA00" stroke-width="0.75" stroke-miterlimit="10"/>
<path d="M437.885 0.385H447.085V38.075C447.015 42.445 443.435 46.035 439.065 46.035C437.305 46.035 435.545 45.385 434.235 44.335L392.235 10.815V46.035H383.105V8.335C383.105 3.905 386.695 0.375 391.125 0.375C392.885 0.375 394.585 0.965 395.955 2.075L437.885 35.595V0.385Z" stroke="#00BA00" stroke-width="0.75" stroke-miterlimit="10"/>
<path d="M524.225 46.0348H513.665L505.385 32.3348H474.085L465.805 46.0348H455.245L479.965 4.81477C481.535 2.20477 484.465 0.384766 487.795 0.384766H491.705C495.035 0.384766 497.965 2.21477 499.535 4.81477L524.255 46.0348H524.225ZM499.905 23.2048L491.685 9.50477H487.775L479.555 23.2048H499.905Z" stroke="#00BA00" stroke-width="0.75" stroke-miterlimit="10"/>
<path d="M582.595 46.0348H532.375V0.384766H582.595C590.095 0.384766 596.225 6.51477 596.225 14.0848C596.225 17.6048 594.925 20.7348 592.765 23.2148C594.915 25.6248 596.225 28.8248 596.225 32.3448C596.225 39.8448 590.095 46.0448 582.595 46.0448V46.0348ZM541.505 18.6448H582.595C585.075 18.6448 587.165 16.6248 587.165 14.0748C587.165 11.5248 585.075 9.50477 582.595 9.50477H541.505V18.6348V18.6448ZM541.505 36.8348H582.595C585.075 36.8348 587.165 34.8148 587.165 32.3348C587.165 29.8548 585.075 27.7648 582.595 27.7648H541.505V36.8248V36.8348Z" stroke="#00BA00" stroke-width="0.75" stroke-miterlimit="10"/>
<path d="M604.375 0.384766H613.505V46.0348H604.375V0.384766Z" stroke="#00BA00" stroke-width="0.75" stroke-miterlimit="10"/>
<path d="M621.655 32.3348V0.384766H630.785V32.3448C630.785 34.8248 632.805 36.8448 635.285 36.8448H685.505V46.0448H635.285C627.785 46.0448 621.655 39.8448 621.655 32.3448V32.3348Z" stroke="#00BA00" stroke-width="0.75" stroke-miterlimit="10"/>
<path d="M693.645 0.384766H702.775V46.0348H693.645V0.384766Z" stroke="#00BA00" stroke-width="0.75" stroke-miterlimit="10"/>
<path d="M738.325 46.0348V9.50477H710.935V0.384766H774.845V9.51477H747.455V46.0348H738.325Z" stroke="#00BA00" stroke-width="0.75" stroke-miterlimit="10"/>
<path d="M819.965 25.2248V46.0248H810.765V25.2248L782.995 0.384766H796.695L815.345 17.0848L834.055 0.384766H847.755L819.975 25.2348L819.965 25.2248Z" stroke="#00BA00" stroke-width="0.75" stroke-miterlimit="10"/>
</svg>
