<?xml version="1.0" encoding="UTF-8"?>
<svg id="_圖層_1" data-name="圖層_1" xmlns="http://www.w3.org/2000/svg" version="1.1" viewBox="0 0 1902 183">
  <!-- Generator: Adobe Illustrator 30.0.0, SVG Export Plug-In . SVG Version: 2.1.1 Build 123)  -->
  <path d="M133.5,171.7C-43.9,238.6-40.8-47,133.5,8.5v27.3c-137.7-62.8-138.7,177.8,0,110.4v25.5h0ZM169.9,93.7c-4.2-119.3,168.4-124.9,166.7-4,4.4,119.7-167.9,123.7-166.7,4h0ZM198.2,91.8c-2.2,87.4,112.7,88.9,110.1.4,3.4-90.3-111.6-88.2-110.1-.4ZM544.3,178.6c.4-27.6-1.2-120.9,1.6-147.4h-.7c1.5,7-54.4,136.8-58.2,147.4h-17.6c-4.6-12.7-59.7-137.4-58.5-147.4h-.7c2,23.9.8,121,1.1,147.4h-25.1V4.4h37.7c5.8,16,52.4,123.3,54.4,137.4h.8c2.7-13.1,49.7-122.2,55.8-137.4h36.2v174.1h-26.8ZM658.8,26.5v152.1h-27V4.4h27v22ZM865.8,178.6h-30.1c-2.9-5.1-91.4-139.2-90-140.6h-.7c2.1,13.9.6,123.6,1,140.6h-26.2V4.4h31.9c4.6,7.5,86.3,133.8,88.5,138.4h.6c-2.5-14.2-.7-121.2-1.2-138.4h26.3v174.1h0ZM1061.4,166.8c-190.2,86.1-196.8-220.4-5.2-156.6v27.7c-141.7-70.3-150.7,162.2-21.9,113.5v-43.6h-37v-22.9h64.1v81.9h0ZM1183.5,142.5c18.7,18.9,81.9,27.3,81.7-7.4-2.5-21.7-18.3-23.5-39.7-35.2-15.7-7.5-26.6-15.1-32.8-22.8-15.1-18.3-11.6-49.3,8.4-62.6,18.6-15.9,65.2-16,85-6.5v27.7c-15.2-11.2-47.7-16-65-5-11.9,7-12.4,24.5-2.5,33.1,10.7,10,57.5,27.8,65,41.2,15.7,18.3,12.3,51-7.2,64.1-21.1,16.2-67.7,16.1-93,2.6v-29.1h0ZM1332.2,93.7c-4.2-119.3,168.4-124.9,166.7-4,4.4,119.7-167.9,123.7-166.7,4h0ZM1360.5,91.8c-2.2,87.4,112.7,88.9,110.1.4,3.4-90.3-111.6-88.2-110.1-.4ZM1537.3,93.7c-4.2-119.3,168.4-124.9,166.7-4,4.4,119.7-167.9,123.7-166.7,4h0ZM1565.6,91.8c-2.2,87.4,112.7,88.9,110.1.4,3.4-90.3-111.6-88.2-110.1-.4ZM1899.7,178.6h-30.1c-2.9-5.1-91.4-139.2-90.1-140.6h-.7c2.1,13.9.6,123.6,1,140.6h-26.2V4.4h31.9c4.6,7.5,86.3,133.8,88.5,138.4h.6c-2.5-14.2-.7-121.2-1.2-138.4h26.3v174.1Z" fill="none" stroke="#fff" stroke-miterlimit="10" stroke-width="3"/>
</svg>