<svg width="970" height="32" viewBox="0 0 970 32" fill="none" xmlns="http://www.w3.org/2000/svg">
<path d="M34.275 31.205H0.255005V0.275024H34.265C39.385 0.275024 43.545 4.42502 43.545 9.55502V21.925C43.545 27.005 39.395 31.205 34.265 31.205H34.275ZM6.445 24.975H34.275C35.995 24.975 37.365 23.605 37.365 21.925V9.55502C37.365 7.83502 35.995 6.46502 34.275 6.46502H6.445V24.975Z" stroke="#00BA00" stroke-width="0.51" stroke-miterlimit="10"/>
<path d="M58.385 0.275005H92.395V6.455H58.385C56.665 6.455 55.295 7.86501 55.295 9.54501V12.635H92.405V18.815H55.295V21.905C55.295 23.585 56.665 24.955 58.385 24.955H92.395V31.185H58.385C53.265 31.185 49.065 26.985 49.065 21.905V9.53501C49.065 4.41501 53.265 0.255005 58.385 0.255005V0.275005Z" stroke="#00BA00" stroke-width="0.51" stroke-miterlimit="10"/>
<path d="M114.705 28.195L97.925 0.275024H105.165L120.005 24.965H122.655L137.505 0.275024H144.705L127.965 28.195C126.905 29.965 124.915 31.195 122.665 31.195H120.015C117.765 31.195 115.775 29.955 114.715 28.195H114.705Z" stroke="#00BA00" stroke-width="0.51" stroke-miterlimit="10"/>
<path d="M159.545 0.275005H193.555V6.455H159.545C157.825 6.455 156.455 7.86501 156.455 9.54501V12.635H193.565V18.815H156.455V21.905C156.455 23.585 157.825 24.955 159.545 24.955H193.555V31.185H159.545C154.425 31.185 150.225 26.985 150.225 21.905V9.53501C150.225 4.41501 154.425 0.255005 159.545 0.255005V0.275005Z" stroke="#00BA00" stroke-width="0.51" stroke-miterlimit="10"/>
<path d="M199.075 21.925V0.275024H205.255V21.925C205.255 23.605 206.625 24.975 208.305 24.975H242.315V31.205H208.305C203.225 31.205 199.075 27.005 199.075 21.925Z" stroke="#00BA00" stroke-width="0.51" stroke-miterlimit="10"/>
<path d="M281.815 31.205H257.125C252.005 31.205 247.845 27.005 247.845 21.925V9.55502C247.845 4.43502 251.995 0.275024 257.125 0.275024H281.815C286.985 0.275024 291.095 4.42502 291.095 9.55502V21.925C291.095 27.005 286.985 31.205 281.815 31.205ZM257.115 24.975H281.805C283.575 24.975 284.945 23.605 284.945 21.925V9.55502C284.945 7.87502 283.575 6.46502 281.805 6.46502H257.115C255.395 6.46502 254.025 7.87502 254.025 9.55502V21.925C254.025 23.605 255.395 24.975 257.115 24.975Z" stroke="#00BA00" stroke-width="0.51" stroke-miterlimit="10"/>
<path d="M339.895 9.55502V12.645C339.895 17.765 335.695 21.925 330.615 21.925H302.785V31.205H296.605V0.275024H330.615C335.695 0.275024 339.895 4.42502 339.895 9.55502ZM333.715 9.55502C333.715 7.87502 332.305 6.46502 330.625 6.46502H302.795V15.745H330.625C332.305 15.745 333.715 14.375 333.715 12.655V9.56502V9.55502Z" stroke="#00BA00" stroke-width="0.51" stroke-miterlimit="10"/>
<path d="M351.605 31.205H345.425V5.35502C345.465 2.52502 347.725 0.275024 350.545 0.275024C352.445 0.275024 353.995 1.29502 354.915 2.79502L368.605 24.745L382.345 2.74502C383.225 1.28502 384.865 0.275024 386.715 0.275024C389.495 0.275024 391.795 2.52502 391.795 5.35502V31.195H385.615V9.20502L373.465 28.685C372.535 30.185 370.945 31.205 369.045 31.205H368.165C366.305 31.205 364.675 30.185 363.795 28.735L351.605 9.21502V31.215V31.205Z" stroke="#00BA00" stroke-width="0.51" stroke-miterlimit="10"/>
<path d="M406.645 0.275005H440.655V6.455H406.645C404.925 6.455 403.555 7.86501 403.555 9.54501V12.635H440.665V18.815H403.555V21.905C403.555 23.585 404.925 24.955 406.645 24.955H440.655V31.185H406.645C401.525 31.185 397.325 26.985 397.325 21.905V9.53501C397.325 4.41501 401.525 0.255005 406.645 0.255005V0.275005Z" stroke="#00BA00" stroke-width="0.51" stroke-miterlimit="10"/>
<path d="M483.285 0.275024H489.515V25.805C489.475 28.765 487.045 31.195 484.085 31.195C482.895 31.195 481.695 30.755 480.815 30.045L452.365 7.33502V31.185H446.185V5.66502C446.185 2.66502 448.615 0.275024 451.615 0.275024C452.805 0.275024 453.955 0.675024 454.885 1.42502L483.285 24.135V0.275024Z" stroke="#00BA00" stroke-width="0.51" stroke-miterlimit="10"/>
<path d="M513.585 31.205V6.46502H495.035V0.275024H538.325V6.45502H519.775V31.195H513.595L513.585 31.205Z" stroke="#00BA00" stroke-width="0.51" stroke-miterlimit="10"/>
<path d="M612.525 9.55502V12.645C612.525 17.765 608.325 21.925 603.245 21.925H575.415V31.205H569.235V0.275024H603.245C608.325 0.275024 612.525 4.42502 612.525 9.55502ZM606.345 9.55502C606.345 7.87502 604.935 6.46502 603.255 6.46502H575.425V15.745H603.255C604.935 15.745 606.345 14.375 606.345 12.655V9.56502V9.55502Z" stroke="#00BA00" stroke-width="0.51" stroke-miterlimit="10"/>
<path d="M652.015 31.205H627.325C622.205 31.205 618.045 27.005 618.045 21.925V9.55502C618.045 4.43502 622.195 0.275024 627.325 0.275024H652.015C657.185 0.275024 661.295 4.42502 661.295 9.55502V21.925C661.295 27.005 657.185 31.205 652.015 31.205ZM627.325 24.975H652.015C653.785 24.975 655.155 23.605 655.155 21.925V9.55502C655.155 7.87502 653.785 6.46502 652.015 6.46502H627.325C625.605 6.46502 624.235 7.87502 624.235 9.55502V21.925C624.235 23.605 625.605 24.975 627.325 24.975Z" stroke="#00BA00" stroke-width="0.51" stroke-miterlimit="10"/>
<path d="M685.365 31.205V6.46502H666.815V0.275024H710.105V6.45502H691.555V31.195H685.375L685.365 31.205Z" stroke="#00BA00" stroke-width="0.51" stroke-miterlimit="10"/>
<path d="M724.945 0.275005H758.955V6.455H724.945C723.225 6.455 721.855 7.86501 721.855 9.54501V12.635H758.965V18.815H721.855V21.905C721.855 23.585 723.225 24.955 724.945 24.955H758.955V31.185H724.945C719.825 31.185 715.625 26.985 715.625 21.905V9.53501C715.625 4.41501 719.825 0.255005 724.945 0.255005V0.275005Z" stroke="#00BA00" stroke-width="0.51" stroke-miterlimit="10"/>
<path d="M801.585 0.275024H807.815V25.805C807.775 28.765 805.345 31.195 802.385 31.195C801.195 31.195 799.995 30.755 799.115 30.045L770.665 7.33502V31.185H764.485V5.66502C764.485 2.66502 766.915 0.275024 769.915 0.275024C771.105 0.275024 772.255 0.675024 773.185 1.42502L801.585 24.135V0.275024Z" stroke="#00BA00" stroke-width="0.51" stroke-miterlimit="10"/>
<path d="M831.885 31.205V6.46502H813.335V0.275024H856.625V6.45502H838.075V31.195H831.895L831.885 31.205Z" stroke="#00BA00" stroke-width="0.51" stroke-miterlimit="10"/>
<path d="M862.135 0.275024H868.315V31.195H862.135V0.275024Z" stroke="#00BA00" stroke-width="0.51" stroke-miterlimit="10"/>
<path d="M920.575 31.205H913.415L907.805 21.925H886.605L880.995 31.205H873.835L890.575 3.28503C891.635 1.51503 893.625 0.285034 895.875 0.285034H898.525C900.775 0.285034 902.765 1.52503 903.825 3.28503L920.565 31.205H920.575ZM904.105 15.735L898.535 6.45503H895.885L890.315 15.735H904.095H904.105Z" stroke="#00BA00" stroke-width="0.51" stroke-miterlimit="10"/>
<path d="M926.095 21.925V0.275024H932.275V21.925C932.275 23.605 933.645 24.975 935.325 24.975H969.335V31.205H935.325C930.245 31.205 926.095 27.005 926.095 21.925Z" stroke="#00BA00" stroke-width="0.51" stroke-miterlimit="10"/>
</svg>
