<svg width="250" height="40" viewBox="0 0 250 40" fill="none" xmlns="http://www.w3.org/2000/svg">
<path d="M15.9175 14.4889H0.1875V0.192383H15.9175C18.2875 0.192383 20.2075 2.11192 20.2075 4.48135V10.2C20.2075 12.5494 18.2875 14.4889 15.9175 14.4889ZM3.0475 11.6096H15.9175C16.7125 11.6096 17.3475 10.9748 17.3475 10.2V4.48135C17.3475 3.68654 16.7125 3.0517 15.9175 3.0517H3.0475V11.6096Z" stroke="#00BA00" stroke-width="0.375" stroke-miterlimit="10"/>
<path d="M27.0775 0.192383H42.8075V3.0517H27.0775C26.2825 3.0517 25.6475 3.70654 25.6475 4.48135V5.91101H42.8075V8.77032H25.6475V10.2C25.6475 10.9748 26.2825 11.6096 27.0775 11.6096H42.8075V14.4889H27.0775C24.7075 14.4889 22.7675 12.5494 22.7675 10.2V4.48135C22.7675 2.11192 24.7075 0.192383 27.0775 0.192383Z" stroke="#00BA00" stroke-width="0.375" stroke-miterlimit="10"/>
<path d="M53.1275 13.0993L45.3625 0.192383H48.7125L55.5775 11.6096H56.8025L63.6725 0.192383H67.0025L59.2575 13.1043C58.7675 13.9191 57.8475 14.4939 56.8075 14.4939H55.5825C54.5425 14.4939 53.6225 13.9241 53.1325 13.1043L53.1275 13.0993Z" stroke="#00BA00" stroke-width="0.375" stroke-miterlimit="10"/>
<path d="M73.8675 0.192383H89.5975V3.0517H73.8675C73.0725 3.0517 72.4375 3.70654 72.4375 4.48135V5.91101H89.6025V8.77032H72.4375V10.2C72.4375 10.9748 73.0725 11.6096 73.8675 11.6096H89.5975V14.4889H73.8675C71.4975 14.4889 69.5575 12.5494 69.5575 10.2V4.48135C69.5575 2.11192 71.4975 0.192383 73.8675 0.192383Z" stroke="#00BA00" stroke-width="0.375" stroke-miterlimit="10"/>
<path d="M92.1575 10.2V0.192383H95.0175V10.2C95.0175 10.9748 95.6525 11.6096 96.4275 11.6096H112.158V14.4889H96.4275C94.0775 14.4889 92.1575 12.5494 92.1575 10.2Z" stroke="#00BA00" stroke-width="0.375" stroke-miterlimit="10"/>
<path d="M130.428 14.4889H119.008C116.638 14.4889 114.717 12.5494 114.717 10.2V4.48135C114.717 2.11192 116.638 0.192383 119.008 0.192383H130.428C132.818 0.192383 134.717 2.11192 134.717 4.48135V10.2C134.717 12.5494 132.818 14.4889 130.428 14.4889ZM119.008 11.6096H130.428C131.243 11.6096 131.878 10.9748 131.878 10.2V4.48135C131.878 3.70654 131.243 3.0517 130.428 3.0517H119.008C118.213 3.0517 117.577 3.70654 117.577 4.48135V10.2C117.577 10.9748 118.213 11.6096 119.008 11.6096Z" stroke="#00BA00" stroke-width="0.375" stroke-miterlimit="10"/>
<path d="M157.298 4.48135V5.91101C157.298 8.28044 155.358 10.2 153.008 10.2H140.137V14.4889H137.277V0.192383H153.008C155.358 0.192383 157.298 2.11192 157.298 4.48135ZM154.438 4.48135C154.438 3.70654 153.783 3.0517 153.008 3.0517H140.137V7.34067H153.008C153.783 7.34067 154.438 6.70582 154.438 5.91101V4.48135Z" stroke="#00BA00" stroke-width="0.375" stroke-miterlimit="10"/>
<path d="M162.712 14.4891H159.853V2.53694C159.873 1.22725 160.913 0.1875 162.223 0.1875C163.103 0.1875 163.818 0.657387 164.243 1.35222L170.577 11.5048L176.932 1.33222C177.342 0.657387 178.097 0.1875 178.952 0.1875C180.237 0.1875 181.303 1.22725 181.303 2.53694V14.4841H178.443V4.31651L172.822 13.3243C172.392 14.0192 171.657 14.4891 170.777 14.4891H170.368C169.508 14.4891 168.753 14.0192 168.348 13.3443L162.708 4.31651V14.4891H162.712Z" stroke="#00BA00" stroke-width="0.375" stroke-miterlimit="10"/>
<path d="M188.173 0.192383H203.902V3.0517H188.173C187.378 3.0517 186.743 3.70654 186.743 4.48135V5.91101H203.902V8.77032H186.743V10.2C186.743 10.9748 187.378 11.6096 188.173 11.6096H203.902V14.4889H188.173C185.803 14.4889 183.863 12.5494 183.863 10.2V4.48135C183.863 2.11192 185.803 0.192383 188.173 0.192383Z" stroke="#00BA00" stroke-width="0.375" stroke-miterlimit="10"/>
<path d="M223.622 0.192499H226.503V11.9997C226.483 13.3693 225.357 14.4941 223.987 14.4941C223.437 14.4941 222.883 14.2891 222.473 13.9642L209.318 3.46671V14.4991H206.457V2.6819C206.457 1.29223 207.583 0.1875 208.973 0.1875C209.523 0.1875 210.058 0.372456 210.483 0.717373L223.622 11.2148V0.192499Z" stroke="#00BA00" stroke-width="0.375" stroke-miterlimit="10"/>
<path d="M237.642 14.4889V3.0517H229.062V0.192383H249.082V3.0517H240.503V14.4889H237.642Z" stroke="#00BA00" stroke-width="0.375" stroke-miterlimit="10"/>
<path d="M52.1175 28.9955V30.4252C52.1175 32.7946 50.1775 34.7141 47.8275 34.7141H34.9575V39.0031H32.0975V24.7065H47.8275C50.1775 24.7065 52.1175 26.6261 52.1175 28.9955ZM49.2575 28.9955C49.2575 28.2207 48.6025 27.5659 47.8275 27.5659H34.9575V31.8548H47.8275C48.6025 31.8548 49.2575 31.22 49.2575 30.4252V28.9955Z" stroke="#00BA00" stroke-width="0.375" stroke-miterlimit="10"/>
<path d="M70.3825 39.0031H58.9625C56.5925 39.0031 54.6725 37.0636 54.6725 34.7141V28.9955C54.6725 26.6261 56.5925 24.7065 58.9625 24.7065H70.3825C72.7725 24.7065 74.6725 26.6261 74.6725 28.9955V34.7141C74.6725 37.0636 72.7725 39.0031 70.3825 39.0031ZM58.9625 36.1238H70.3825C71.1975 36.1238 71.8325 35.489 71.8325 34.7141V28.9955C71.8325 28.2207 71.1975 27.5659 70.3825 27.5659H58.9625C58.1675 27.5659 57.5325 28.2207 57.5325 28.9955V34.7141C57.5325 35.489 58.1675 36.1238 58.9625 36.1238Z" stroke="#00BA00" stroke-width="0.375" stroke-miterlimit="10"/>
<path d="M85.8125 39.0031V27.5659H77.2325V24.7065H97.2525V27.5659H88.6725V39.0031H85.8125Z" stroke="#00BA00" stroke-width="0.375" stroke-miterlimit="10"/>
<path d="M104.122 24.7065H119.853V27.5659H104.122C103.327 27.5659 102.693 28.2207 102.693 28.9955V30.4252H119.857V33.2845H102.693V34.7141C102.693 35.489 103.327 36.1238 104.122 36.1238H119.853V39.0031H104.122C101.752 39.0031 99.8125 37.0636 99.8125 34.7141V28.9955C99.8125 26.6261 101.752 24.7065 104.122 24.7065Z" stroke="#00BA00" stroke-width="0.375" stroke-miterlimit="10"/>
<path d="M139.572 24.7065H142.452V36.5137C142.432 37.8834 141.308 39.0081 139.938 39.0081C139.387 39.0081 138.833 38.8032 138.428 38.4782L125.268 27.9808V39.0131H122.408V27.2059C122.408 25.8163 123.533 24.7115 124.923 24.7115C125.473 24.7115 126.002 24.8965 126.432 25.2414L139.572 35.7389V24.7065Z" stroke="#00BA00" stroke-width="0.375" stroke-miterlimit="10"/>
<path d="M153.587 39.0031V27.5659H145.008V24.7065H165.033V27.5659H156.452V39.0031H153.592H153.587Z" stroke="#00BA00" stroke-width="0.375" stroke-miterlimit="10"/>
<path d="M167.587 24.7065H170.447V39.0031H167.587V24.7065Z" stroke="#00BA00" stroke-width="0.375" stroke-miterlimit="10"/>
<path d="M194.617 39.0032H191.307L188.712 34.7143H178.902L176.307 39.0032H172.997L180.743 26.0913C181.233 25.2765 182.153 24.7017 183.193 24.7017H184.417C185.457 24.7017 186.378 25.2715 186.868 26.0913L194.612 39.0032H194.617ZM186.997 31.8549L184.423 27.566H183.197L180.622 31.8549H186.997Z" stroke="#00BA00" stroke-width="0.375" stroke-miterlimit="10"/>
<path d="M197.177 34.7141V24.7065H200.038V34.7141C200.038 35.489 200.673 36.1238 201.448 36.1238H217.177V39.0031H201.448C199.098 39.0031 197.177 37.0636 197.177 34.7141Z" stroke="#00BA00" stroke-width="0.375" stroke-miterlimit="10"/>
</svg>
