<svg width="796" height="136" viewBox="0 0 796 136" fill="none" xmlns="http://www.w3.org/2000/svg">
<g clip-path="url(#clip0_14_29)">
<path d="M244.36 35.47V69.15H237.54V39.99C235.1 45.63 231.83 51.26 227.17 56.34L225.15 54.53C230.3 46.87 234.13 36.57 236.36 26.55H226.41V23.07H237.55V13.47C233.86 14.1 230.24 14.51 227.11 14.79L226.62 12.08C234.55 10.2 241.86 7.77 248.75 3.38L254.11 9.3C251.26 10.41 247.85 11.39 244.37 12.15V23.08H253.9V26.56H244.37V30.6C248.13 33.24 252.93 37.28 255.09 39.79L249.73 44.73C248.34 42.09 246.32 38.68 244.37 35.47H244.36ZM279.5 46.4V68.46H272.4V48C264.88 49.74 257.23 51.34 249.99 52.87L248.95 49.32C256.54 47.79 264.61 46.05 272.4 44.24V4.57H279.5V42.64L287.23 40.76L288.13 44.31C285.35 45.01 282.42 45.7 279.5 46.4ZM255.49 27.89C260.43 30.74 264.68 33.88 268.64 38.26L262.93 43.34C260.01 38.33 257.01 34.29 253.53 29.98L255.48 27.89H255.49ZM264.54 25.1C261.2 20.44 258.35 16.82 254.66 12.71L256.4 10.55C261.27 13.06 265.66 15.91 269.69 19.88L264.54 25.1Z" fill="#00AC00"/>
<path d="M297.26 58.2299H357.04V63.6599H297.26V58.2299ZM302.27 9.43994H351.96V14.7299H302.27V9.43994ZM307.14 32.1999H347.09V37.4199H307.14V32.1999Z" fill="#00AC00"/>
<path d="M370.48 7.01001H394.84V32.55H377.58V68.46H370.48V7.01001ZM387.88 17.73V10.56H377.58V17.73H387.88ZM387.88 29.07V21.28H377.58V29.07H387.88ZM405.69 61.78C415.78 64.01 417.73 62.96 417.73 58.37V32.55H400.61V7.01001H424.9V60.25C424.9 69.23 417.87 72.22 404.86 64.56L405.69 61.78ZM417.73 17.73V10.56H407.57V17.73H417.73ZM417.73 29.07V21.28H407.57V29.07H417.73Z" fill="#00AC00"/>
<path d="M493.74 21.9V45.01H486.36V40.9H453.65C452.26 55.03 447.73 62.82 440.77 69.36L438.61 67.48C443.55 60.1 446.47 52.45 446.47 32.2V10.21L453.92 12.09C466.59 10.91 478.35 8.18999 485.31 4.35999L493.17 10.97C483.43 13.55 467.49 15.01 454.06 14.94V21.9H493.73H493.74ZM486.36 37.21V25.59H454.07V30.74C454.07 33.04 454 35.19 453.93 37.21H486.36Z" fill="#00AC00"/>
<path d="M551.44 58.44C549.56 55.24 547.75 52.52 546.15 50.23V68.05H539.26V53.09C535.57 58.66 530.49 62.83 527.15 64.85L525.48 62.62C530.14 58.24 535.01 51.83 537.87 44.11H528.41V40.49H539.27V32.21H546.16V40.49H555.76V44.11H546.16V46.13C549.99 48.43 553.26 51 556.25 54.13L551.45 58.44H551.44ZM548.31 15.92H530.15V12.3H553.53V4.37H560.63V12.3H583.87V15.92H562.5C569.18 21.56 577.88 24.62 586.93 26.5L582.89 33.74C574.61 31.1 565.84 25.81 560.62 18.64V34.72H553.52V19.48C547.26 27.14 536.68 31.73 527.77 34.37L526.73 31.8C535.36 28.11 543.36 22.68 548.3 15.93L548.31 15.92ZM589.51 58.16L584.5 64.35C580.74 61.43 577.05 56.76 574.27 50.92V68.53H567.38V50.64C564.46 56 558.61 61.78 553.67 64.7L551.93 62.4C557.64 56.97 560.98 52.59 564.6 44.1H557.43V40.48H567.38V32.27H574.27V40.48H585.41V44.1H574.41C578.79 51.34 584.36 54.96 589.51 58.16Z" fill="#00AC00"/>
<path d="M606.01 49.18L608.72 50.01C607.95 56.13 605.31 62.4 602.39 66.5L596.34 61.56C600.65 58.15 603.72 54.25 606.01 49.17V49.18ZM597.65 13.2C599.67 13.34 601.83 13.48 603.91 13.55C605.72 10.77 606.97 7.98004 608.5 3.67004L615.25 5.83004C612.61 9.31004 610.38 11.54 607.59 13.69C612.04 13.83 616.5 13.83 620.53 13.62C619.76 12.16 618.93 10.7 618.02 9.31004L620.18 7.64004C623.45 10.22 625.96 12.79 628.88 16.9L623.73 20.24L621.78 16.06C613.15 18.01 605.01 18.98 599.02 19.4L597.63 13.21L597.65 13.2ZM619.37 39.23V37.28H607.19V47.65H600.72V21.27H625.84V41.24C625.84 47.29 619.65 49.73 611.64 43.95L612.41 41.31C618.6 42.84 619.37 42.42 619.37 39.22V39.23ZM607.19 24.41V27.61H619.37V24.41H607.19ZM619.37 34.08V30.74H607.19V34.08H619.37ZM644.56 53.5C648.46 64.29 646.37 67.35 639.76 67.91C635.38 68.26 626.95 68.26 621.94 68.05C615.05 67.7701 611.5 66.94 611.5 61.02V49.05H618.32V57.82C618.32 60.95 619.15 61.86 623.05 62.07C628.13 62.28 634.81 62.28 638.36 61.86C641.49 61.51 641.98 60.89 641.7 53.51H644.55L644.56 53.5ZM622.64 49.53L624.03 47.09C628.07 48.41 633.36 50.78 636.91 53.42L632.32 59.13C629.33 55.79 625.43 51.96 622.65 49.53H622.64ZM629.53 38.95V26.77H636V34.91C639.97 33.17 644.14 30.66 648.04 27.39L653.33 32.26C648.46 34.63 641.5 36.64 636 37.83C636 40.89 636.56 41.38 639.41 41.66C642.4 41.94 645.39 41.94 648.32 41.59C652.01 41.17 652.63 40.55 652.43 35.05H655.14C657.85 42.91 657.02 46.53 648.74 47.09C645.12 47.37 641.5 47.37 637.88 47.16C631.96 46.74 629.53 46.05 629.53 38.95ZM629.81 16.19V4.50004H636.21V13.13C640.04 11.25 644.21 8.75004 647.69 5.75004L652.98 10.55C647.97 12.99 641.64 14.93 636.21 16.05C636.28 19.25 636.7 19.6 639.62 19.81C642.54 20.02 644.91 20.02 647.83 19.67C651.24 19.32 651.52 18.35 651.45 13.55H654.16C657.01 22.74 654.79 24.55 648.52 25.1C644.9 25.38 642.33 25.45 638.71 25.24C631.47 24.96 629.8 24.2 629.8 16.19H629.81ZM659.32 61.01L652.92 64.98C650.55 59.1301 648.47 54.68 645.75 50.37L647.98 48.63C652.5 52.11 656.19 56.01 659.32 61.02V61.01Z" fill="#00AC00"/>
<path d="M667.39 43.96L665.65 41.59C674.14 33.3101 680.2 22.73 683.68 8.32005L691.96 11.45C687.37 24.05 678.39 36.85 667.39 43.9501V43.96ZM724.46 63.73L716.39 68.18C715.21 65.05 713.68 61.57 711.94 58.0201C700.73 61.8501 685.15 64.7 673.52 65.81L671.43 56.9701C674.21 56.9701 677.28 56.9701 680.34 56.9001C685.07 49.0401 689.53 37.55 691.96 27.88L700.73 31.2901C696.83 40.2701 690.57 50.01 685.07 56.69C693.98 56.34 703.16 55.58 710.26 54.67C708.45 51.12 706.43 47.5 704.34 44.16L706.78 42.14C714.02 48.89 720.28 56.62 724.46 63.71V63.73ZM706.09 11.67H695.02V8.05005H709.08C711.52 21.9 720.08 30.3201 729.89 35.4701L723.77 43.89C714.79 37.21 708.32 26.21 706.09 11.67Z" fill="#00AC00"/>
<path d="M795.39 7.01001V68.67H788.43V64.77H747.09V68.81H740.13V7.01001H795.39ZM788.43 10.56H747.09V61.23H788.43V10.56ZM749.24 51.27L748.27 48.63C752.58 46.82 757.46 44.59 761.21 41.53H753.21V30.05H782.23V41.53H769.42C767.89 42.92 766.22 44.1 764.55 45.15V51.97C767.12 51.34 769.56 50.72 771.51 50.09L772.48 52.67C766.98 55.8 757.52 59 752.37 60.26L750.49 54.76C752.79 54.48 755.36 53.99 758.08 53.44V48.43C754.74 49.82 751.61 50.66 749.24 51.28V51.27ZM786.34 27.26H748.97V23.78H764.21V20.02H751.47V16.61H764.21V12.3H771.17V16.61H783.98V20.02H771.17V23.78H786.34V27.26ZM759.61 38.12H775.76V33.46H759.61V38.12ZM787.59 44.31C785.43 46.26 782.86 48.07 780.35 49.39C783.06 50.99 785.64 52.8 787.8 54.54L783.35 59.62C778.76 54.96 774.02 50.43 768.11 46.05L769.57 43.68C772.01 44.72 774.72 46.12 777.5 47.65C779.52 45.56 781.54 42.99 783 40.69L787.59 44.31Z" fill="#00AC00"/>
<path d="M229.75 117.73C229.84 122.59 229.14 127.67 228.26 130.56L223.88 128.72C225.5 126.14 227.21 121.98 228 117.47L229.75 117.73ZM237.55 106.78C239.83 109.1 241.62 111.73 242.94 114.4L239.31 116.11C239 114.97 238.61 113.79 238.22 112.61C234.06 114.49 229.29 115.85 225.78 116.51L224.77 112.13C225.78 112.13 226.87 112.13 228.05 112.04C229.8 109.85 231.47 107.53 233.09 104.81C230.81 105.55 228.36 106.21 226.08 106.61L225.16 102.45C226.04 102.49 226.91 102.49 227.79 102.49C229.23 98.72 230.59 93.91 231.21 89.92L235.98 91.28C234.4 95.18 232 99.43 229.89 102.45C231.51 102.45 233.09 102.36 234.53 102.23C235.49 100.43 236.46 98.51 237.46 96.27L241.66 98.5C238.51 103.89 234.3 108.62 230.84 111.81C233.03 111.59 235.35 111.28 237.54 110.93C237.1 109.75 236.66 108.61 236.18 107.6L237.54 106.77L237.55 106.78ZM233.17 116.72C234.61 120 236.28 124.78 236.85 127.49L232.43 128.32C232.3 125.17 231.95 120.7 231.51 117.15L233.17 116.71V116.72ZM236.84 115.41C238.9 117.73 241.57 121.72 242.71 124.08L238.72 126.01C237.93 123.03 236.57 118.96 235.39 116.16L236.83 115.42L236.84 115.41ZM258.79 129.25C255.81 129.56 252.22 129.64 249.16 129.43C243.77 129.04 243.03 128.34 243.03 122.16V105.74H256.3V94.44H241.63V92.21H260.81V111.57H256.3V107.98H247.59V121.6C247.59 124.67 247.85 125.1 250.48 125.32C252.32 125.45 255.56 125.45 257.62 125.23C260.64 124.92 260.9 124.35 260.82 117.61H262.66C264.85 126.02 264.54 128.73 258.81 129.26L258.79 129.25Z" fill="#666666"/>
<path d="M278.14 101.22V130.91H273.8V109.01C272.22 111.2 270.65 112.99 269.16 114.26L267.89 112.9C271.09 108.56 274.63 100.9 276.56 90.39L281.38 91.49C280.55 95.08 279.41 98.32 278.14 101.21V101.22ZM307.96 104.68H303.71V117.77H299.2V114.18H291.67C290.88 120.79 288.34 127.1 280.55 131.22L279.5 129.69C285.15 125.27 286.73 120.14 287.16 114.19H280.9V111.96H287.29C287.33 110.73 287.33 109.46 287.33 108.15V104.69H279.75V102.46H287.33V95.93H282.21V93.7H303.71V102.46H307.96V104.69V104.68ZM299.2 104.68H291.97V107.7C291.97 109.1 291.93 110.55 291.84 111.95H299.2V104.68ZM291.98 102.45H299.21V95.92H291.98V102.45Z" fill="#666666"/>
<path d="M350.05 91.98V130.82H345.67V128.67H319.18V130.95H314.8V91.97H350.05V91.98ZM345.67 94.21H319.18V126.44H345.67V94.21ZM320.88 122.9L319.61 119.09C324.16 118.35 329.38 116.86 332.79 115.63L333.4 117.21C330.16 119.31 324.95 121.68 320.88 122.9ZM332.75 102.71H319.96V100.52H332.66C332.62 98.77 332.57 96.97 332.57 95.27H336.34C336.34 97.07 336.34 98.82 336.43 100.52H340.24C339.41 98.77 338.27 96.71 337.48 95.35L338.88 94.34C340.28 95.39 342.34 97.54 343.43 99.11L341.33 100.51H344.88V102.7H336.52C336.69 106.29 337.05 109.58 337.53 112.29C338.63 109.97 339.41 107.39 339.98 104.5L343.53 105.73C342.44 109.76 340.86 113.44 338.67 116.59C339.37 118.47 340.25 119.74 341.3 120.18C342.18 120.53 342.31 118.73 342.35 114.14H344.1C345.85 122.99 344.14 125.22 341.3 124.65C338.93 124.17 337.23 122.42 335.96 119.83C333.68 122.15 330.92 124.08 327.55 125.52L326.72 123.99C330.14 121.93 332.81 119.61 334.82 116.9C333.59 112.92 333.02 107.88 332.76 102.71H332.75ZM321.14 115.06V105.47H331.48V115.06H321.14ZM324.56 113.05H328.11V107.49H324.56V113.05Z" fill="#666666"/>
<path d="M364.98 106.56C364.85 118.3 363.84 125.04 358.63 131.35L357.14 130.26C360.25 124.3 360.47 120.93 360.47 100.35V92.07H393.05V101.18H365.02V104.33H394.49V106.56H378.42C377.28 108.53 375.71 110.68 374.22 112.38C378.16 112.29 382.23 112.03 385.96 111.68C385.13 110.63 384.21 109.67 383.33 108.75L384.47 107.31C387.67 109.06 391.17 111.69 393.58 114.36L390.08 117.47C389.34 116.2 388.42 114.84 387.37 113.49C381.55 115.07 373.01 116.38 366.83 116.73L365.91 112.31C367.66 112.4 369.5 112.44 371.38 112.4C372.17 110.69 372.91 108.55 373.39 106.58H364.98V106.56ZM395.85 127.37V129.56H362.96V127.37H376.75V122.47H366.28V120.24H376.75V115.99H381.3V120.24H392.47V122.47H381.3V127.37H395.84H395.85ZM365.02 94.3V98.94H388.58V94.3H365.02Z" fill="#666666"/>
<path d="M423.22 105.21V107.57H436.4V109.63H423.22V112.17H439.47V114.36H402.47V112.17H418.59V109.63H405.15V107.57H418.59V105.21H406.33V103.11H418.59V100.44H401.95V98.25H418.59V95.84H406.85V93.69H418.59V90.1H423.23V93.69H435.1V98.24H440.05V100.43H435.1V105.2H423.23L423.22 105.21ZM407.28 116.77H434.52V130.83H430.05V128.77H411.74V130.92H407.27V116.77H407.28ZM411.75 121.63H430.06V118.87H411.75V121.63ZM411.75 126.62H430.06V123.69H411.75V126.62ZM423.22 98.24H430.71V95.83H423.22V98.24ZM423.22 103.1H430.71V100.43H423.22V103.1Z" fill="#666666"/>
<path d="M483.65 96.05V98.28H453.48V106.78C453.48 119.48 451.2 126.36 446.87 131.08L445.47 129.99C447.92 125.17 448.97 121.1 448.97 106.87V96.05H467.54C465 94.34 462.33 92.9 460.01 91.8L460.49 90C463.64 90.44 467.67 91.45 470.96 92.76L469.21 96.04H483.66L483.65 96.05ZM469.81 106.26H483.47V108.49H469.81V114.88H480.45V130.38H476.07V127.36H460.13V130.56H455.75V114.88H465.25V99.73H469.8V106.25L469.81 106.26ZM460.14 117.12V125.18H476.08V117.12H460.14Z" fill="#666666"/>
<path d="M529.68 124.96L528.1 129.6C523.28 129.91 516.06 129.95 510.71 129.73C502.7 129.42 499.54 127.89 497.4 123.91C496.04 126.89 494.2 129.3 492.15 131.49L489.3 128.47C491.27 126.89 493.42 125.01 494.95 123.04V113.1H490.18V110.87H499.33V122.78C500.95 125.63 504.15 126.02 510.93 126.02C516.58 126.02 524.11 125.67 529.67 124.97L529.68 124.96ZM496.13 108.05C494.6 105.95 492.06 103.01 490 100.96L490.96 99.43C493.37 100.48 496.87 102.5 499.19 104.64L496.12 108.06L496.13 108.05ZM491.53 92.07L492.54 90.49C495.04 91.41 498.45 93.34 500.82 95.35L497.89 98.72C496.18 96.62 493.73 94.12 491.54 92.06L491.53 92.07ZM510.15 117.43H500.95V115.24H507.21V111.47H502.13V109.32H507.21V106.04H511.33V109.32H516.98V106.04H521.1V109.32H526.57V111.47H521.1V115.24H528.15V117.43H510.33L513.35 119.88C510.28 122.2 506.52 123.91 502.14 124.96L501.44 123.38C504.81 121.76 507.66 119.88 510.15 117.42V117.43ZM502 100.78V92.63H513.21V99.55H505.72V100.47C505.72 102 506.11 102.09 508.79 102.09C511.07 102.09 511.37 102.05 512.38 100.64L514.48 102.83C513.25 104.93 511.59 105.24 508.57 105.24C503.58 105.24 502 104.93 502 100.77V100.78ZM505.72 97.46H509.66V94.74H505.72V97.46ZM511.33 115.24H516.98V111.47H511.33V115.24ZM514.92 100.7V92.64H526.09V99.56H518.6V100.48C518.6 102.06 519.08 102.1 521.75 102.1C523.98 102.1 524.6 102.06 525.6 100.7L527.7 102.93C526.47 104.94 524.33 105.25 521.35 105.25C516.62 105.25 514.91 104.94 514.91 100.7H514.92ZM516.1 119.4L516.84 117.74C520.87 118.79 524.28 119.93 527.79 121.64L525.64 125.06C522.97 123.31 519.68 121.34 516.09 119.41L516.1 119.4ZM518.6 97.46H522.54V94.74H518.6V97.46Z" fill="#666666"/>
<path d="M534.32 110.77V108.32H538.22V92.47H568.92V108.32H572.91V110.77H568.92V126.89C568.92 131.36 565.02 132.41 559.37 130.17L559.68 128.2C563.84 128.59 564.5 127.94 564.5 126.1V110.77H559.77V128.11H555.78V110.77H551.23V129.03H547.2V110.77H542.65V130.83H538.23V110.77H534.33H534.32ZM547.19 94.92H542.64V108.32H547.19V94.92ZM555.78 94.92H551.23V108.32H555.78V94.92ZM564.49 94.92H559.76V108.32H564.49V94.92Z" fill="#666666"/>
<path d="M2.6 123.28L2.84 122.21C5.09 122.69 5.47 122.48 5.44 120.33C5.44 118.67 4.96 116.63 3.67 114.38C4.23 112.66 4.98 110.06 5.25 108H2.52V130.28H0V106.1L2.31 106.72H4.96L5.63 106.18L8.31 107.28C7.24 110.28 5.76 112.75 4.69 114.3C6.7 116.47 7.96 118.78 7.99 121C8.07 124.51 5.5 125.5 2.6 123.28ZM23.06 127.65L20.89 130.44C18.18 128.54 14.59 124.7 13.7 117.09H11.77V125.96C13.08 125.72 14.4 125.45 15.5 125.16L15.88 126.21C13.6 127.52 9.85 128.94 6.76 129.67L6.06 126.75C6.97 126.7 7.99 126.56 9.06 126.43V106.89H20.56V117.1H14.88C15.31 119.11 15.98 120.75 16.81 122.09C17.94 120.94 19.03 119.52 19.92 118.04L22.31 119.92C21.05 121.1 19.2 122.33 17.54 123.14C19.09 125.18 21.05 126.52 23.06 127.67V127.65ZM11.77 111.27H17.83V108.21H11.77V111.27ZM11.77 115.75H17.83V112.64H11.77V115.75Z" fill="#00AC00"/>
<path d="M49.3 127.97V129.31H25.3V127.97H35.94V126.25H27.6V124.91H35.94V123.27H29.02V116.3H45.72V123.27H38.67V124.91H47.25V126.25H38.67V127.97H49.29H49.3ZM48.71 115H25.89V113.66H48.71V115ZM45.04 112.32H29.68V106.26H45.04V112.32ZM31.66 119.15H35.95V117.65H31.66V119.15ZM35.95 121.94V120.44H31.66V121.94H35.95ZM42.52 107.6H32.2V108.65H42.52V107.6ZM42.52 109.85H32.2V111H42.52V109.85ZM38.68 119.15H43.1V117.65H38.68V119.15ZM38.68 121.94H43.1V120.44H38.68V121.94Z" fill="#00AC00"/>
<path d="M62.33 122.37H51.98V120.95H62.33V117.55H55.15V106.58H72.55V117.55H65.26V120.95H75.64V122.37H65.26V130.09H62.34V122.37H62.33ZM69.72 111.3V107.98H57.95V111.3H69.72ZM69.72 116.18V112.64H57.95V116.18H69.72Z" fill="#00AC00"/>
<path d="M81.87 123.5L82.97 123.88C82.68 126.03 81.58 128.92 80.75 130.07L78.31 128.3C79.44 127.39 81.13 125.24 81.88 123.5H81.87ZM84.47 118.89V120.44H101.47C101.31 124.19 101.01 126.66 100.69 128.21C100.13 130.97 96.75 131.21 93.13 128.64L93.53 127.54C97.15 128.42 97.87 128.32 98.11 126.98C98.3 126.01 98.51 124 98.57 121.78H84.47V123.09H81.68V108.45H86.77C87.12 107.38 87.47 105.88 87.63 104.91L90.82 105.82C90.15 106.79 89.24 107.72 88.46 108.45H97.84V116.04H84.46V117.51H101.89V118.88H84.46L84.47 118.89ZM84.47 109.8V111.54H95.09V109.8H84.47ZM95.08 114.7V112.82H84.46V114.7H95.08ZM85.59 123.47C86.47 125 87.47 127.33 87.95 128.97L85.19 129.56C85.14 128.06 84.76 125.38 84.55 123.74L85.6 123.47H85.59ZM89.4 122.77C90.47 123.98 91.84 125.99 92.46 127.27L89.99 128.4C89.67 127.01 88.97 124.75 88.44 123.28L89.4 122.77ZM94.68 126.93C94.06 125.48 93.21 123.87 92.51 122.77L93.29 122.07C94.39 122.82 96 124.3 96.83 125.45L94.69 126.92L94.68 126.93Z" fill="#00AC00"/>
<path d="M112.21 119.96C112.64 118.81 113.04 117.23 113.31 115.72H111.59V127.49C111.59 129.98 109.44 131.27 105.21 128.7L105.53 127.6C108.48 128.32 108.91 128.11 108.91 126.85V115.72H104.94V114.43H110.84C109.88 113.22 108.67 111.83 107.49 110.6L108.13 109.74C108.88 110.12 109.82 110.62 110.7 111.21C111.34 110.08 111.96 108.77 112.23 107.86H105.74V106.57H112.25L112.97 106.06L115.65 107.59C114.55 109.14 113.1 110.81 111.84 111.96C112.38 112.34 112.86 112.74 113.23 113.11L111.97 114.42H113.23L113.85 113.91L116.32 115.14C115.41 117.07 113.91 119.48 113.1 120.39L112.19 119.93L112.21 119.96ZM119.37 124.89L121.7 126.55C119.37 128.45 116.23 129.98 113.5 130.71L113.04 129.66C115.21 128.64 117.52 127.01 119.37 124.89ZM120.68 108.21H115.88V106.87H128.56V108.21H123.55C122.96 109.28 122.24 110.38 121.67 111.13H127.22V124.62H116.44V111.13H120.3C120.46 110.22 120.59 109.09 120.68 108.21ZM124.6 112.5H119V115.05H124.6V112.5ZM124.6 116.39H119V119.12H124.6V116.39ZM124.6 120.47H119V123.26H124.6V120.47ZM129.34 128L127.68 130.41C126.23 129.1 124.11 127.41 122.1 126.04L122.64 124.99C124.95 125.66 127.06 126.57 129.34 127.99V128Z" fill="#00AC00"/>
<path d="M134.78 122.1C134.91 125.1 134.62 128.21 134 129.98L131.35 128.88C132.34 127.3 133.28 124.72 133.74 121.96L134.78 122.09V122.1ZM139.61 115.64C140.92 117.01 142.48 119.07 143.26 120.6L140.98 121.83C140.74 121.05 140.42 120.19 140.07 119.31C137.55 120.33 134.41 121.13 132.11 121.51L131.55 118.72C132.19 118.72 132.89 118.72 133.61 118.69C134.71 117.35 135.76 115.9 136.8 114.13C135.33 114.61 133.77 115.01 132.4 115.23L131.86 112.68C132.4 112.71 132.96 112.71 133.5 112.71C134.41 110.59 135.43 107.59 136.02 105.12L138.81 106.03C137.71 108.42 136.24 110.91 134.87 112.68C135.83 112.65 136.77 112.6 137.68 112.52C138.24 111.47 138.78 110.29 139.37 109.01L141.97 110.3C140.07 113.65 137.41 116.65 135.21 118.61C136.68 118.53 138.19 118.37 139.58 118.18C139.29 117.48 138.99 116.81 138.7 116.22L139.61 115.63V115.64ZM136.98 121.7C137.89 123.79 138.75 126.58 139.07 128.48L136.42 128.88C136.42 126.92 136.21 124.08 135.96 121.91L136.98 121.7ZM139.31 120.84C140.54 122.21 142.07 124.73 142.74 126.2L140.38 127.25C139.9 125.43 139.12 123.04 138.37 121.3L139.31 120.84ZM154.3 110.41C154.17 119.15 153.95 124.24 153.6 127.06C153.17 130.57 149.79 131.35 144.81 128.03L145.16 126.98C149.5 128.03 150.63 128.11 150.87 125.91C151.06 124.14 151.35 119.45 151.51 111.78H145C144.14 113.39 143.04 115.02 141.65 116.47L140.77 115.75C142.75 112.29 143.75 108.78 144.36 105.11L147.28 105.81C146.96 107.1 146.45 108.71 145.67 110.42H154.3V110.41ZM147.03 122.56C146.17 120.25 145.05 117.68 143.87 115.46L144.75 114.79C146.63 116.53 148.48 118.97 149.66 121.12L147.03 122.57V122.56Z" fill="#00AC00"/>
<path d="M168.42 120.33H162.42V122.29H159.58V110.31H168.43V105.27H171.38V110.31H180.31V122.13H177.47V120.33H171.38V130.36H168.43V120.33H168.42ZM168.42 118.89V111.79H162.42V118.89H168.42ZM177.46 118.89V111.79H171.37V118.89H177.46Z" fill="#00AC00"/>
<path d="M795.33 88.58H791.61V135.59H795.33V88.58Z" fill="#00AC00"/>
<path d="M612.31 88.58H608.59V135.59H612.31V88.58Z" fill="#00AC00"/>
<path d="M11.91 8.28002H19.28V10.33H2.69V8.28002H10.77C9.31 6.03002 7.58 3.67002 6.51 2.29002L7.57 1.15002C9.54 2.29002 12.3 4.54002 14.11 6.47002L11.9 8.28002H11.91ZM4.42 24.72H17.5V37.61H13.68V35.32H8.24V37.92H4.42V24.72ZM17.43 15.77H4.5V13.8H17.43V15.77ZM4.5 19.16H17.43V21.13H4.5V19.16ZM8.24 33.31H13.68V26.73H8.24V33.31ZM38.12 6.71002H31.14V33.83C31.14 38.01 26.81 39.62 19.75 35.64L20.18 34.06C26.05 35.16 26.96 34.93 26.96 32.37V6.71002H17.89V4.66002H38.11V6.71002H38.12Z" fill="#00AC00"/>
<path d="M13.05 64.92C9.81998 66.5 6.22998 67.72 2.71998 68.35L2.16998 66.77C10.01 64.33 15.25 60.15 18.53 55.54L19.95 56.21C21.53 53.96 22.67 51.24 23.58 48.13L27.76 49.39C27.29 50.38 26.77 51.32 26.18 52.19H37.81V54.2H30.16C31.22 55.54 32.33 57.35 33.08 59.05L29.45 60.19C29.17 58.53 28.66 56.25 28.11 54.2H24.68C23.73 55.3 22.75 56.29 21.76 57.08L22.86 57.59C22.62 57.87 22.39 58.14 22.15 58.46C28.53 61.89 32.99 62.56 38.7 63.15L36.93 67.52C34.6 67.28 31.1 66.22 27.55 64.33V66.1H13.05V64.92ZM3.19998 61.1L2.20998 59.88C5.04998 56.69 7.32998 52.55 8.47998 48.1L12.74 49.32C12.35 50.27 11.91 51.21 11.32 52.2H20.94V54.21H13.73C14.64 55.2 15.58 56.46 16.53 57.84L13.26 59.34C12.83 57.76 12.2 55.99 11.41 54.22H10.07C8.29998 56.78 5.96998 59.23 3.20998 61.12L3.19998 61.1ZM20.07 81.91L17.47 84.87C16.05 83.1 14.87 81.76 13.33 80.26C10.73 82.98 7.17998 84.87 3.86998 85.82L3.19998 84.36C7.92998 81.88 9.85998 79.47 11.63 75.53L15.85 76.63C15.5 77.34 15.1 78.05 14.63 78.68C16.44 79.51 18.14 80.45 20.07 81.91ZM6.70998 68.27H19.13V75.36H6.70998V68.27ZM10.37 73.52H15.53V70.13H10.37V73.52ZM14.63 64.1H27.08C24.95 62.96 22.82 61.5 20.89 59.73C19.19 61.31 17.03 62.8 14.62 64.1H14.63ZM28.58 78.64C31.69 79.78 34.77 81.2 36.97 82.66L34.61 85.93C32.64 84.12 30.08 82.11 27.4 80.21C25.15 82.97 22.43 84.62 19.04 85.89L18.29 84.51C22.35 81.99 24.12 79.19 25.54 75.6L29.68 76.74C29.33 77.41 28.97 78.04 28.58 78.63V78.64ZM21.64 68.27H34.02V75.36H21.64V68.27ZM25.19 73.52H30.35V70.13H25.19V73.52Z" fill="#00AC00"/>
<path d="M77.23 90.64C71.43 90.64 66.17 89.54 61.45 87.33C56.73 85.12 52.77 81.9 49.57 77.66L56.06 71.17C58.22 74.46 61.17 77.04 64.89 78.9C68.61 80.76 72.68 81.69 77.1 81.69C81.52 81.69 85.04 80.87 88.2 79.22C91.36 77.58 93.85 75.26 95.67 72.27C97.49 69.28 98.4 65.8 98.4 61.82C98.4 57.84 97.49 54.25 95.67 51.3C93.85 48.36 91.32 46.06 88.07 44.42C84.82 42.78 80.99 41.95 76.58 41.95C75.11 41.95 73.61 42.06 72.1 42.27C70.58 42.49 69.05 42.81 67.49 43.24L71.26 37.79C72.73 37.01 74.33 36.41 76.06 35.97C77.79 35.54 79.7 35.32 81.77 35.32C86.7 35.32 91.16 36.47 95.15 38.76C99.13 41.05 102.27 44.21 104.57 48.24C106.86 52.27 108.01 56.92 108.01 62.2C108.01 67.83 106.71 72.76 104.11 77C101.51 81.24 97.9 84.58 93.27 87C88.64 89.42 83.29 90.64 77.23 90.64ZM53.6 8.57V0H106.97V5.84L98.66 8.57H53.6ZM67.49 43.24V37.27L95.8 5.58L106.97 5.84L78.14 38.05L67.49 43.24Z" fill="#00AC00"/>
<path d="M133.21 36.48C140.93 36.48 146.65 41.68 146.65 49.4C146.65 57.12 140.93 62.25 133.21 62.25C125.49 62.25 119.77 57.13 119.77 49.4C119.77 41.67 125.41 36.48 133.21 36.48ZM133.21 57.42C137.52 57.42 140.93 54.23 140.93 49.4C140.93 44.57 137.51 41.38 133.21 41.38C128.91 41.38 125.49 44.5 125.49 49.4C125.49 54.3 128.83 57.42 133.21 57.42ZM158.53 37.07H164.77L140.12 89.04H133.88L158.53 37.07ZM152.14 76.87C152.14 69.15 157.78 63.95 165.58 63.95C173.38 63.95 179.02 69.15 179.02 76.87C179.02 84.59 173.3 89.72 165.58 89.72C157.86 89.72 152.14 84.6 152.14 76.87ZM165.58 84.89C169.89 84.89 173.3 81.7 173.3 76.87C173.3 72.04 169.88 68.85 165.58 68.85C161.28 68.85 157.86 71.97 157.86 76.87C157.86 81.77 161.2 84.89 165.58 84.89Z" fill="#00AC00"/>
<path d="M661.9 102.87C661.9 109.15 656.89 115.15 649.76 121.72L647.02 124.22V124.5H662.75V128.04H640.31V125.21L644.09 121.95C651.7 115.29 656.28 108.44 656.37 103.38C656.46 98.37 654.62 96.06 649.66 96.01C646.35 96.01 643.38 97.62 641.25 99.41V95.16C643.33 94.07 646.92 92.8 650.6 92.8C658.06 92.8 661.89 96.44 661.89 102.86L661.9 102.87Z" fill="#666666"/>
<path d="M715.04 119.36H710.65V128.15H705.6V119.36H690.2V115.77L704.61 93.47H710.66V115.86H715.05V119.36H715.04ZM705.6 115.87V103.73C705.6 101.84 705.69 99.38 705.79 98.25H705.51C705.13 99.24 704.38 100.56 702.77 103.21L695.12 115.59V115.87H705.61H705.6Z" fill="#666666"/>
<path d="M733.56 104.91C733.28 122.01 729.21 127.54 724.91 132.03L723.49 130.85C726.56 126.31 728.5 120.83 728.5 105.86V91.26L732.94 92.3C740.31 92.02 750.94 90.36 757.27 87.91L762.09 92.26C753.73 93.82 741.49 94.39 733.56 94.2V96.33H762.42V104.93H733.56V104.91ZM746.03 113.22C745.98 114.5 745.84 115.82 745.61 117.09H761.01C760.73 121.67 760.4 124.65 759.92 127.58C759.26 131.41 755.72 134.24 746.69 129.09L747.35 127.25C754.25 128.62 754.91 128.29 755.33 125.74C755.61 123.9 755.9 121.72 755.99 119.46H745.03C743.38 125.03 739.36 130.04 730.76 132.5L729.96 130.85C738.98 126.41 740.68 120.5 741.06 113.23H733.6V110.82H750.75C748.15 109.31 745.55 108.03 743.05 106.9L743.52 105.2C746.07 105.48 750.46 106.52 753.87 107.7L752.31 110.82H765.11V113.23H746.02L746.03 113.22ZM733.56 98.72V102.55H757.56V98.72H733.56Z" fill="#666666"/>
<path d="M683.68 110.11H671.55V112.77H683.68V110.11Z" fill="#666666"/>
</g>
<defs>
<clipPath id="clip0_14_29">
<rect width="795.39" height="135.59" fill="white"/>
</clipPath>
</defs>
</svg>
