<?xml version="1.0" encoding="UTF-8"?>
<svg id="_圖層_1" xmlns="http://www.w3.org/2000/svg" version="1.1" viewBox="0 0 1920 1115">
  <!-- Generator: Adobe Illustrator 30.3.0, SVG Export Plug-In . SVG Version: 2.1.3 Build 182)  -->
  <path d="M221,217v668M554.9,217v528.9M655,217v458.6M897.3,217v299.1M1452.5,214.3v140.4M1660.7,269v620.6M1728.6,214.3v417.2M736.9,282.1v109.5M816.2,303.2v148.2M1084.7,269v362.4M1155.7,270v417.4M1229.4,270v411.5M1278.9,269v362.4" fill="none" stroke="#fff" stroke-miterlimit="10" stroke-width="1.3"/>
  <path d="M211.8,142.6h5.4v1.4h-5.4v-1.4ZM212,148.4h5v1.4h-5v-1.4ZM211.6,156c1.7-.4,3.8-1.1,5.5-1.6l.2,1.3c-1.7.5-3.7,1.2-5.4,1.7l-.3-1.4ZM213.9,143.4h1.3v12.3l-1.3.4v-12.7ZM217.8,147.2h12.1v1.2h-12.1v-1.2ZM220.5,150.6v1.9h6.7v-1.9h-6.7ZM219.2,149.5h9.5v4.1h-9.5v-4.1ZM225.9,143v2.1h2v-2.1h-2ZM222.9,143v2.1h2v-2.1h-2ZM219.9,143v2.1h1.9v-2.1h-1.9ZM218.7,141.9h10.6v4.3h-10.6v-4.3ZM224.8,153c.6,1.6,1.6,3.1,3.1,4.1.7.5,1.6.9,2.5,1.1l-.5.5c-.2.2-.3.4-.4.6-2.9-.9-4.9-3.3-5.9-6.1l1.2-.3h0ZM228.7,153.9l1,.9c-1,.6-2.4,1.4-3.5,1.8l-.8-.7c1-.5,2.3-1.4,3.2-2h.1ZM223.1,152.8l1.1.5c-1.6,1.7-4.1,3-6.3,3.7,0-.2-.2-.3-.4-.5s-.3-.4-.5-.5c2.1-.6,4.6-1.6,6.1-3.2h0ZM219.9,159.5c0-.2-.1-.4-.2-.6-.1-.2-.2-.4-.3-.5.4-.3.7-.6.7-1.3v-1.9l1.2-.3v3.4h-.2c-.1.1-.3.3-.5.4s-.3.3-.5.4c-.1.1-.2.3-.2.4h0ZM219.9,159.5v-1l.6-.5,4.2-1v1.1c-1.7.4-3,.8-4.4,1.2-.1,0-.3.1-.3.2h-.1ZM218.5,170.7h11.6v1.4h-11.6v-1.4ZM223.4,167.2h1.5v16.5c0,.5,0,.8-.2,1-.1.2-.3.4-.6.5-.9.4-1.8.3-3.1.3,0-.3-.2-.7-.3-1,0-.2-.1-.3-.2-.5h2.5c.3,0,.4-.1.4-.4v-16.5h0ZM217.8,182.3c1.9-1.6,4.1-3.5,5.9-5.2l.6,1.1c-1.7,1.8-3.8,3.8-5.6,5.4l-.9-1.3ZM218.8,173.9l1.2-.5c.3.4.6.8.9,1.2.5.8,1.1,1.7,1.3,2.5l-1.3.6c-.4-1.3-1.3-2.7-2.1-3.8h0ZM228.6,173.2l1.3.7c-1.1,1.5-2.4,3.2-3.6,4.5l-1-.6c1.2-1.3,2.5-3.1,3.4-4.6h0ZM225.9,168.2l.9-.8c.8.5,1.9,1.4,2.4,2.1l-.9.9c-.5-.7-1.6-1.7-2.4-2.2ZM224.8,172.4c.4,2.4.8,4.5,1.8,6.4.9,1.7,2.2,3,3.8,4.2-.2.1-.4.3-.5.5-.2.2-.3.4-.4.6-3.9-2.7-5.3-6.9-5.9-11.5l1.2-.2h0ZM211.9,168.5h6.1v1.4h-6.1v-1.4ZM212.1,174.3h5.7v1.4h-5.7v-1.4ZM211.7,182.1c2.1-.6,4.4-1.3,6.5-2l.2,1.4c-2,.7-4.5,1.4-6.4,2l-.3-1.4ZM214.3,169.2h1.4v12.4l-1.4.3v-12.7ZM220.2,197h1.5v14.5h-1.5v-14.5ZM212,196.1h18v1.5h-18v-1.5ZM214,200.3h13.1v1.5h-11.6v7.5h-1.5v-9ZM226.7,200.3h1.5c0,.7.2,7.6-.2,8.1-.1.2-.3.4-.7.5-1.1.3-2.2.2-3.5.3,0-.5-.3-1.1-.5-1.5h2.9c.3,0,.5,0,.5-.4v-7h0ZM219.3,193.5l1.5-.5c.5.8,1.3,2.1,1.6,3l-1.5.5c-.4-1-1-2.1-1.5-3.1h-.1ZM1222.6,155.4h13v1.2h-13v-1.2ZM1223.1,152.2h13.4v1.3h-13.4v-1.3ZM1220.3,158.8h17.4v1.3h-17.4v-1.3ZM1228.2,150.6h1.6v9.1h-1.6v-9.1ZM1223.8,147.1v1.8h10.3v-1.8h-10.3ZM1223.8,144.2v1.8h10.3v-1.8h-10.3ZM1222.4,143h13.3v7.1h-13.3v-7.1ZM1223.7,150.1l1.5.4c-.9,1.9-2.3,3.7-3.9,5.1,0,0-.2-.2-.4-.3-.2-.1-.3-.2-.5-.3s-.3-.2-.4-.3c1.5-1.1,2.9-2.9,3.7-4.6h0ZM1220.8,170.5h7v1.3h-7v-1.3ZM1222.9,184.1h5.6v1.3h-5.6v-1.3ZM1222.9,180.7h5.6v1.2h-5.6v-1.2ZM1219.9,174.3h10.3v1.3h-10.3v-1.3ZM1223.9,168.4h1.4v6.7h-1.4v-6.7ZM1229.2,168.9l1.4.4c-2.1,4.8-5.6,8.8-10.2,11.3,0-.1,0-.2-.3-.4-.2-.3-.4-.7-.7-.8,4.4-2.2,7.8-5.9,9.7-10.5h0ZM1223.3,177.5h5.1v1.2h-5.1v7.7h-1.4v-8.1l.8-.9h.6ZM1227.9,177.5h1.4v8.7h-1.4v-8.7ZM1231.1,169.3h6v1.4h-4.5v15.8h-1.5v-17.3h0ZM1236.7,169.3h.5l1.1.6c-.8,1.9-1.9,4.2-2.9,6.1,1.2,1,2,2.1,2.4,3.4.3,1,.3,2.2,0,3.1-.2.5-.4.8-.8,1-.3.2-.8.4-1.4.5h-1.9c0-.2,0-.5,0-.7,0-.3-.2-.5-.3-.7h1.7c1.1,0,1.6-.8,1.5-1.8,0-1.8-1.1-3.1-2.7-4.5,1-2,2-4.3,2.8-6.4v-.5h0ZM1229.7,199.5h7.8v1.2h-7.8v9.3h-1.2v-9.5l.8-1h.4,0ZM1229.5,197.1l1.2.3c-.8,2.3-2,4.7-3.5,6.6-.2-.2-.4-.4-.7-.6,0-.1-.2-.2-.3-.3,1.4-1.6,2.5-4,3.2-6.1h.1ZM1229.3,202.3h7.9v1h-7.9v-1ZM1229.3,204.9h7.9v1h-7.9v-1ZM1229.2,207.6h8.5v1.1h-8.5v-1.1ZM1226,210.6h12.2v1.3h-12.2v-1.3ZM1232.8,199.9h1.3v8.3h-1.3v-8.3ZM1225.2,195.3h12.7v1.2h-11.4v15.3h-1.4v-16.5h.1ZM1220.3,195.3l.9-1c.4.2.8.4,1.2.7.4.3.8.5,1.2.8.4.3.7.5.9.8l-1,1.2c-.2-.2-.5-.5-.9-.8s-.8-.6-1.2-.9c-.4-.3-.8-.5-1.2-.7h0ZM1219.7,200.9l.9-1.1c.4.2.8.4,1.3.7.4.2.8.5,1.2.8.4.3.7.5.9.7l-.9,1.2c-.2-.2-.5-.5-.9-.8-.7-.5-1.7-1.1-2.5-1.5h0ZM1220.2,211.7c1-2,1.9-4.4,2.7-6.5l1.2.8c-.7,2.1-1.7,4.4-2.6,6.4l-1.4-.8h.1ZM1232.1,197.3l1.1-.5c.4.5,1,1.4,1.2,2l-1.1.5c-.2-.6-.7-1.5-1.1-2.1h0ZM1230.3,237.2c-6.2.2-8.8-6.7-6.3-11.6,1.6-3.2,5.9-4.4,9.1-3,.8.4,1.4.8,1.9,1.3l-1.1,1.2c-.4-.4-1-.7-1.6-1-5.7-2.1-9,3.9-6.8,8.7,1.5,3.3,6.3,3.7,8.8,1.1l1,1.2c-1.5,1.4-3,2.1-5.1,2.1h0ZM1227.7,250.8v2.3h4.6v-2.3h-4.6ZM1226.2,249.8h7.5v4.5h-7.5v-4.5ZM1225.3,256.7v3h2.7v-3h-2.7ZM1224.1,255.6h5.2v5.2h-5.2v-5.2h0ZM1232,256.7v3h2.8v-3h-2.8ZM1230.7,255.6h5.4v5.2h-5.4v-5.2h0ZM1220.2,247.1h16.9v1.4h-16.9v-1.4ZM1221,247.2h1.5c0,.8-.3,13.8.3,14,.2.3.5.6.9.8,1.2.4,2.9.2,4.3.2h7.6c.7,0,1.6,0,2.2-.2,0,.3,0,.7,0,1,0,.2,0,.3,0,.4-.6.1-1.4.1-2.1.1h-9.6c-2.9.2-5.5-.5-5.4-3.9v-12.5h0ZM545.8,142.6h5.4v1.4h-5.4v-1.4ZM546,148.4h5v1.4h-5v-1.4ZM545.6,156c1.7-.4,3.8-1.1,5.5-1.6l.2,1.3c-1.7.5-3.7,1.2-5.4,1.7l-.3-1.4ZM547.9,143.4h1.3v12.3l-1.3.4v-12.7ZM551.8,147.2h12.1v1.2h-12.1v-1.2ZM554.5,150.6v1.9h6.7v-1.9h-6.7ZM553.2,149.5h9.5v4.1h-9.5v-4.1ZM559.9,143v2.1h2v-2.1h-2ZM556.9,143v2.1h2v-2.1h-2ZM553.9,143v2.1h1.9v-2.1h-1.9ZM552.7,141.9h10.6v4.3h-10.6v-4.3ZM558.8,153c.6,1.6,1.6,3.1,3.1,4.1.7.5,1.6.9,2.5,1.1,0,.1-.3.3-.5.5s-.3.4-.4.6c-2.9-.9-4.9-3.3-5.9-6.1l1.2-.3h0ZM562.7,153.9l1,.9c-1,.6-2.4,1.4-3.5,1.8l-.8-.7c1-.5,2.3-1.4,3.2-2h0ZM557.1,152.8l1.1.5c-1.6,1.7-4.1,3-6.3,3.7,0-.2-.2-.3-.4-.5s-.3-.4-.5-.5c2.1-.6,4.6-1.6,6.1-3.2h0ZM553.9,159.5c0-.2,0-.4-.2-.6,0-.2-.2-.4-.3-.5.4-.3.7-.6.7-1.3v-1.9l1.2-.3v3.4h-.2c0,.1-.3.3-.5.4s-.3.3-.5.4c0,.1-.2.3-.2.4h0ZM553.9,159.5v-1l.6-.5,4.2-1v1.1c-1.7.4-3,.8-4.4,1.2,0,0-.3.1-.3.2h0ZM549.1,173.1h11.6v1.4h-11.6v-1.4ZM546.4,177.6h17.2v1.4h-17.2v-1.4ZM554.3,173.7h1.6v9.9c0,.9-.2,1.3-1,1.6-1.1.3-2.3.2-3.7.3,0-.1,0-.3-.2-.5,0-.2,0-.4-.2-.5,0-.2-.2-.3-.3-.5h3.3c.2,0,.3,0,.4-.1,0,0,0-.2,0-.3v-9.9ZM546.4,169.3h17.1v4.4h-1.5v-3h-14.1v3h-1.5v-4.4ZM553.5,167.7l1.5-.4c.2.4.5.8.7,1.3s.4.9.5,1.2l-1.6.5c-.2-.7-.7-1.9-1.1-2.5h0ZM554.2,197h1.5v14.5h-1.5v-14.5ZM546,196.1h18v1.5h-18v-1.5ZM548,200.3h13.1v1.5h-11.6v7.5h-1.5v-9ZM560.7,200.3h1.5c0,.7.2,7.6-.2,8.1,0,.2-.3.4-.7.5-1.1.3-2.2.2-3.5.3,0-.5-.3-1.1-.5-1.5h2.9c.3,0,.5,0,.5-.4v-7h0ZM553.3,193.5l1.5-.5c.5.8,1.3,2.1,1.6,3l-1.5.5c-.4-1-1-2.1-1.5-3.1h0ZM1729.2,152.5l1.4-.6c1.1,1.4,2.3,3.2,3.3,4.7.5.8.9,1.5,1.2,2.1l-1.5.8c-.3-.6-.7-1.3-1.2-2.1-1-1.6-2.2-3.4-3.2-4.8h0ZM1723.3,141.8l1.6.5c-1.4,3.1-3.4,6.3-5.9,8.6,0-.1-.2-.2-.4-.4-.2-.2-.3-.3-.5-.5s-.3-.3-.4-.4c2.4-2.1,4.4-4.9,5.6-7.9h0ZM1720.3,158.6c0-.1,0-.3-.2-.5,0-.3-.3-.8-.5-1.1.3,0,.6-.3.9-.6s.7-.7,1-1.2c1.3-1.5,2.6-3.5,3.7-5.4.5-.8,1-1.7,1.4-2.5l1.7.7c-1.9,3.4-4.2,6.9-6.8,9.6h-.2c0,.1-.3.2-.4.3-.2,0-.3.2-.4.3s-.2.2-.2.3h0ZM1720.3,158.6v-1.3l1.1-.6,11.8-.7c0,.2,0,.5,0,.8,0,.3,0,.5.2.7-4.6.4-9.2.3-13.2,1.1ZM1729.3,141.7h1.8c.9,3,2.7,6,5.4,7.8,0,.1-.2.2-.4.4-.2.2-.3.3-.4.5s-.2.3-.3.5c-2.6-2-4.5-5.2-5.5-8.3h-.4v-.9h-.2ZM1726.2,141.7h4.4v1.5h-4.4v-1.5ZM1723.2,169.8h12.7v1.3h-12.7v-1.3ZM1728.7,170.4h1.7c-.3,1-.8,2.2-1.3,3l-1.2-.2c.3-.8.6-2,.8-2.8ZM1732.2,167.2l1.5.4c-.6.9-1.3,2-1.9,2.8l-1.2-.4c.2-.3.4-.6.6-.9.2-.3.4-.7.6-1s.3-.7.5-.9h0ZM1725.3,167.7l1.2-.5c.3.3.6.7.8,1.1.3.4.5.8.6,1.1l-1.2.6c0-.3-.3-.7-.6-1.1-.2-.4-.5-.8-.8-1.2h0ZM1726.3,176.5v1.7h6.5v-1.7h-6.5ZM1726.3,179.3v1.7h6.5v-1.7h-6.5ZM1726.3,173.8v1.7h6.5v-1.7h-6.5ZM1724.9,172.7h9.4v9.4h-9.4v-9.4ZM1718.7,167.9l1.1-.7c.6.6,1.3,1.4,1.9,2.1.3.3.5.7.7.9l-1.2.8c-.7-1-1.7-2.3-2.5-3.2h0ZM1717.9,171.8h4.4v1.3h-4.4v-1.3ZM1721.5,181c1.4,3.1,4.7,2.9,7.8,3,2.2,0,4.9-.1,7.1-.3-.2.2-.3.6-.4.9,0,.2,0,.4,0,.5-2.1,0-4.5.2-6.6.2-3.5,0-7.3-.2-8.8-3.8l1-.5h0ZM1721.8,176.8h.6l.7.3c-.6,3.6-1.9,6.7-4.6,8.6-.2-.3-.6-.8-1-1,2.5-1.6,3.7-4.4,4.2-7.6v-.3h.1ZM1718.2,178.3v-1.2l.7-.4h3.3v1.2h-3.6c-.2,0-.4.1-.5.2v.2ZM1718.2,178.3c0-.1,0-.3-.2-.4,0-.3-.2-.7-.4-.9.2,0,.3-.1.5-.2.2,0,.3-.2.5-.4.9-.9,1.8-2.3,2.6-3.3.3-.4.6-.8.7-1h0l.5-.2,1,.5c-1.2,1.7-2.6,3.7-4,5.2h-.2c0,0-.2.1-.4.2-.2,0-.3.2-.4.3,0,0-.2.2-.2.3h0ZM1727.6,209.5h6.6v1.3h-6.6v-1.3ZM1728.6,195.2h5.3v1.3h-5.3v-1.3ZM1727,204.3h7.9v7.2h-1.4v-5.9h-5v5.9h-1.4v-7.2h0ZM1733.3,195.2h.6l.9.4c-1.3,4.5-4.8,8-9,9.8,0-.2-.2-.4-.4-.6-.2-.2-.3-.4-.5-.6,3.8-1.5,7.2-4.8,8.4-8.8v-.3h0ZM1728.9,193.2l1.4.4c-.3.9-.7,1.8-1.1,2.6-.8,1.6-1.8,3.1-2.9,4.3-.2-.2-.5-.5-.8-.7-.2-.1-.3-.2-.4-.3,1.8-1.5,3.1-4,3.8-6.3ZM1728.5,196.1c.6,1.6,1.7,3.1,2.9,4.4,1.4,1.5,3.1,2.7,5.1,3.4-.3.3-.7.8-.9,1.3-3.6-1.6-6.4-4.8-8-8.3l1-.8h0ZM1718.8,202.1h1.3v7.2h-1.3v-7.2ZM1720.1,195.4v3.5h3.8v-3.5h-3.8ZM1718.8,194h6.5v6.2h-6.5v-6.2ZM1721.6,199.5h1.4v9.1h-1.4v-9.1ZM1717.8,209.2c2.5-.5,5.3-1.2,7.9-1.8v1.3c-2.3.6-5.3,1.3-7.6,1.9l-.3-1.5h0ZM1722.1,203.1h3.4v1.3h-3.4v-1.3ZM648.6,154.4h13v1.2h-13v-1.2ZM649.1,151.2h13.4v1.3h-13.4v-1.3ZM646.3,157.8h17.4v1.3h-17.4v-1.3ZM654.2,149.6h1.6v9.1h-1.6v-9.1ZM649.8,146.1v1.8h10.3v-1.8h-10.3ZM649.8,143.2v1.8h10.3v-1.8h-10.3ZM648.4,142h13.3v7.1h-13.3v-7.1ZM649.7,149.1l1.5.4c-.9,1.9-2.3,3.7-3.9,5.1,0,0-.2-.2-.4-.3,0-.1-.3-.2-.5-.3s-.3-.2-.4-.3c1.5-1.1,2.9-2.9,3.7-4.6h0ZM646.8,169.5h7v1.3h-7v-1.3ZM648.9,183.1h5.6v1.3h-5.6v-1.3ZM648.9,179.7h5.6v1.2h-5.6v-1.2ZM645.9,173.3h10.3v1.3h-10.3v-1.3ZM649.9,167.4h1.4v6.7h-1.4v-6.7ZM655.2,167.9l1.4.4c-2.1,4.8-5.6,8.8-10.2,11.3,0-.1,0-.2-.3-.4-.2-.3-.4-.7-.7-.8,4.4-2.2,7.8-5.9,9.7-10.5h0ZM649.3,176.5h5.1v1.2h-5.1v7.7h-1.4v-8.1l.8-.9h.6ZM653.9,176.5h1.4v8.7h-1.4v-8.7ZM657.1,168.3h6v1.4h-4.5v15.8h-1.5v-17.3h0ZM662.7,168.3h.5l1.1.6c-.8,1.9-1.9,4.2-2.9,6.1,1.2,1,2,2.1,2.4,3.4.3,1,.3,2.2,0,3.1,0,.5-.4.8-.8,1-.3.2-.8.4-1.4.5h-1.9c0-.2,0-.5,0-.7,0-.3-.2-.5-.3-.7h1.7c.3,0,.7,0,.9-.2.5-.3.6-1,.6-1.6,0-1.8-1.1-3.1-2.7-4.5,1-2,2-4.3,2.8-6.4v-.5h.1ZM650.9,198.8h1.6v9.9c0,.5,0,.8.2.9,1,.4,3,.1,4.2.2,1.4,0,2,0,2.2-1.6,0-.6.2-1.5.2-2.6,0,0,.3.2.4.3.2,0,.3.2.5.2s.3.1.5.2c-.2,2.8-.2,5.2-3.5,4.9h-3.5c-1.2,0-2.1,0-2.6-1-.5-.7,0-10.4-.2-11.5h0ZM647.7,200.3l1.4.3c-.3,2.5-.9,5.6-1.7,7.9l-1.5-.6c1-2.2,1.5-5.1,1.8-7.6h0ZM660.2,200.3l1.4-.5c1.1,2.3,2.2,5.1,2.7,7.5l-1.5.6c-.5-2.4-1.5-5.3-2.6-7.6h0ZM651.8,194.9l1-1c1.8,1.2,4,2.9,5.4,4.4l-1.1,1.1c-1.4-1.6-3.6-3.3-5.4-4.6h0ZM738.9,148h7.2v1.4h-7.2v-1.4ZM728.2,143.3h8.8v1.3h-8.8v-1.3ZM728,151.2h9.1v1.3h-9.1v-1.3ZM727.9,147.9h9.5v1.3h-9.5v-1.3ZM742.5,148.5h1.5v11h-1.5v-11ZM729.5,145l1.2-.3c.2.4.4.9.5,1.4.2.5.3.9.3,1.3l-1.3.4c0-.4-.2-.8-.3-1.3s-.3-1-.5-1.5h0ZM734.5,144.7l1.4.3c-.4,1.1-.9,2.5-1.4,3.4l-1.2-.3c.3-.7.6-1.5.8-2.3,0-.4.3-.8.3-1.1h.1ZM744.6,141.6l1.2,1.1c-2.2.8-4.7,1.3-7,1.6,0-.2,0-.3-.2-.6,0-.2-.2-.4-.3-.6,2-.3,4.4-.8,6.3-1.6h0ZM731.3,141.5l1.5-.4c.4.7,1,1.9,1.2,2.6l-1.5.5c0-.4-.3-.8-.5-1.3s-.5-1-.7-1.4h0ZM738.4,143.1h1.4c-.2,5.1.9,11.9-2.1,16.4-.3-.3-.8-.7-1.2-.9,1.7-2.4,1.8-5.7,1.9-8.5v-6.9h0ZM734.4,154l1-.5c.6.9,1.3,2.3,1.7,3.2l-1.1.6c-.2-.4-.4-1-.7-1.6s-.6-1.2-.9-1.7ZM729.8,153.6l1.2.3c-.4,1.3-1.2,3-2.1,4,0-.1-.3-.2-.5-.4s-.4-.3-.6-.3c.8-1,1.5-2.4,1.9-3.7h0ZM732,148.5h1.5v11h-1.5v-11ZM731.2,164.2l1.6.3c-.8,3.2-2,6.5-3.9,9.1-.2-.2-.6-.5-.9-.6-.2-.1-.3-.2-.4-.3,1.9-2.4,2.9-5.5,3.6-8.5h0ZM730.5,168.3h6.5v1.5h-7.2l.8-1.5h0ZM738.9,164.2l1.5.3c-.8,3.1-1.9,6.5-3.8,9.1-.3-.3-.9-.7-1.3-.9,1.8-2.4,2.9-5.5,3.5-8.5h0ZM738.7,168.3h7.5v1.5h-8.3l.7-1.5h0ZM731.9,168.9h1.5v13.7h-1.5v-13.7ZM741.6,168.8h1.5v11.8c0,1.5-.8,1.9-2.2,1.9h-2c0-.2,0-.5-.2-.8,0-.3-.2-.6-.3-.8h2.8c.2,0,.3,0,.3-.1v-12.1h.1ZM731.2,188.9h1.5v16.7h-1.5v-16.7ZM727.9,192.8h7.8v1.4h-7.8v-1.4ZM731.3,193.4l.9.4c-.9,2.8-2.1,5.9-3.9,8.2,0-.2-.2-.4-.4-.7,0-.3-.3-.5-.4-.7,1.7-2,3-4.7,3.8-7.2h0ZM734.4,187.5l.9,1.2c-2.1.8-4.6,1.3-6.9,1.6,0-.2,0-.4-.2-.6,0-.2-.2-.4-.2-.6,2.1-.4,4.5-.8,6.4-1.6h0ZM732.6,194.5c0,.1.3.4.6.7s.6.7.9,1.1c.3.4.6.7.8,1.1.3.3.5.6.6.7l-.9,1.2c0-.2-.3-.5-.5-.9s-.5-.8-.8-1.2-.5-.8-.8-1.2c-.2-.4-.4-.6-.6-.8l.7-.6h0ZM742.2,187.2h1.5v18.4h-1.5v-18.4ZM735.4,200.2l10.6-1.7.2,1.4-10.6,1.8-.2-1.4h0ZM737.1,189.5l1-.9c1.1.7,2.4,1.7,3.3,2.8l-1,1c-.2-.3-.5-.6-.8-.9-.3-.3-.7-.7-1.1-1-.4-.3-.8-.7-1.2-.9h-.2ZM736.3,194.7l.9-.9c.9.5,1.9,1.2,2.6,1.9.4.3.7.6,1,.9l-1,1c-.2-.3-.6-.6-1-1-.7-.7-1.7-1.4-2.6-2h0ZM728.1,223.4h17.9v1.3h-17.9v-1.3ZM731.8,219.9h9.5v1.1h-9.5v-1.1ZM736.5,222.5h1.5v4.5c0,.7,0,1.1-.8,1.4-1,.3-2,.1-3.2.2,0-.2,0-.4-.2-.6,0-.2-.2-.4-.3-.6h2.2c.5,0,.9.2,1-.3v-4.4l-.2-.2ZM740.9,219.9h.7l.9.7c-.5.4-1,.7-1.6,1.1-1.1.7-2.4,1.2-3.7,1.7,0-.1-.2-.3-.4-.4,0-.2-.3-.3-.4-.4,1.1-.4,2.2-.9,3.2-1.5s.9-.6,1.2-.9v-.3h0ZM728.5,217.4h17.1v3.7h-1.5v-2.5h-14.1v2.5h-1.4v-3.7h0ZM743,211h1.4c0,2.2-.3,4.9-.5,7h-1.4c.3-2.1.4-4.9.5-7ZM739.8,211h3.8v1h-3.8v-1ZM733.6,210.4l.7.9c-1.1.5-2.8.7-4,.9l-.6-.9c.4,0,.8-.2,1.3-.3.8-.2,1.8-.5,2.6-.7h0ZM730.5,213.1h3.6v1h-3.6v-1ZM730.6,215.2h3.6v1h-3.6v-1ZM739.9,213.1h3.6v1h-3.6v-1ZM739.8,215.2h3.5v1h-3.5v-1ZM738,210.4l1.1.3c-.9,1.2-2.4,2.4-3.7,3.1l-.4-.4c-.2-.2-.3-.3-.4-.4,1.2-.6,2.7-1.6,3.5-2.7h0ZM734.8,211.3l.8-.7c.4.2.9.4,1.4.7s.9.5,1.3.8c.4.3.8.5,1.1.8l-.8.7c-.6-.6-1.5-1.1-2.4-1.6-.5-.3-.9-.5-1.4-.7h0ZM738,213.8l1.1.3c-.9,1.3-2.6,2.5-4,3.3,0-.1-.2-.2-.4-.4s-.3-.3-.4-.4c1.3-.6,2.9-1.7,3.7-2.8h0ZM734.7,214.6l.8-.6c.9.4,2,1,2.8,1.6.4.3.8.6,1.1.8l-.8.7c-.6-.6-1.6-1.3-2.4-1.8-.5-.3-1-.6-1.4-.8h0ZM729.7,211.4l1.5.4.4,6.2h-1.4l-.4-6.6h0ZM731.1,239.2h11.8v1h-11.8v-1ZM732.2,237h9.6v1h-9.6v-1ZM736.2,235.9h1.4v3.9h-1.4v-3.9ZM736,243.3l1.1.4c-1.5,1.3-3.8,2.1-5.7,2.7,0-.2-.3-.4-.5-.6,0-.1-.2-.2-.3-.3.7-.2,1.3-.3,2-.6,1.2-.4,2.5-.9,3.4-1.6h0ZM741.9,244.3l1,.6c-.4.3-.9.6-1.5.9-.5.3-1,.5-1.5.7l-.8-.5c.3-.1.6-.3,1-.5.3-.2.7-.4,1-.6.3-.2.6-.4.8-.6h0ZM733.6,241.7v1.4h6.7v-1.4h-6.7ZM732.3,240.9h9.4v3h-9.4v-3ZM728.6,234.1h16.7v17.5h-1.5v-16.2h-13.8v16.2h-1.4v-17.5ZM729.5,249.4h15.2v1.4h-15.2v-1.4ZM736.5,244.8l.9-.6c.6.3,1.3.7,2,1.2.7.4,1.3.9,2,1.3.6.4,1.1.8,1.6,1.2l-1,.7c-.4-.3-.9-.7-1.5-1.2s-1.2-.9-1.9-1.3c-.7-.5-1.3-.9-2-1.2h0ZM733.1,249.2v-.9l.5-.4,4-1v1c-1.4.4-2.5.7-3.6,1-.5.1-.7.2-1,.4h0ZM733.1,249.2c0-.1,0-.3-.2-.5,0-.2-.2-.4-.2-.5.4-.2.8-.5.8-1.1v-2.4h1.2v3.4h-.2c0,.1-.3.3-.5.4-.2,0-.4.2-.5.3s-.2.2-.2.3h-.2ZM735.7,260.8v2.3h4.6v-2.3h-4.6ZM734.2,259.8h7.5v4.5h-7.5v-4.5ZM733.3,266.7v3h2.7v-3h-2.7ZM732.1,265.6h5.2v5.2h-5.2v-5.2ZM740,266.7v3h2.8v-3h-2.8ZM738.7,265.6h5.4v5.2h-5.4v-5.2ZM728.2,257.1h16.9v1.4h-16.9v-1.4ZM729,257.2h1.5c0,.8-.3,13.8.3,14,.2.3.5.6.9.8,1.2.4,2.9.2,4.3.2h7.6c.7,0,1.6,0,2.2-.2,0,.3,0,.7,0,1v.4c-.6.1-1.4.1-2.1.1h-9.6c-2.9.2-5.5-.5-5.4-3.9v-12.5h.2ZM889.1,141.5h15.9v1.5h-15.9v-1.5ZM888,154.6h18v1.5h-18v-1.5ZM896.1,142.2h1.7v12.9h-1.7v-12.9ZM896.1,166.3h9.7v1.4h-9.7v-1.4ZM895.6,173.5h10.6v1.4h-10.6v-1.4ZM902.5,166.9h1.4v16.7h-1.4v-16.7ZM897.8,166.9h1.4c-.3,5.3,1.1,12.5-2.9,16.8-.2-.2-.5-.4-.8-.6,0,0-.3-.2-.4-.2,2.3-2.3,2.6-5.8,2.6-8.9v-7h.1ZM888,166.3h7v1.4h-7v-1.4ZM890,172.4h4.7v8.7h-4.7v-1.3h3.4v-6h-3.4v-1.4ZM890.6,166.9l1.4.3c-.7,3.4-1.6,7.1-3.7,9.8,0-.5-.4-1.2-.7-1.6,1.7-2.3,2.5-5.5,3-8.5ZM889.4,172.4h1.3v10.3h-1.3v-10.3ZM896.3,197.3h8.1v1.3h-8.1v-1.3ZM894.8,200.9h11.3v1.4h-11.3v-1.4ZM894.7,193.7h11.3v3.5h-1.4v-2.2h-8.4v2.2h-1.4v-3.5h0ZM897.6,201.5h1.4c0,3.6-1.3,7-5.2,8.1,0-.2-.2-.4-.4-.6-.2-.2-.3-.4-.5-.6,3.4-.8,4.5-3.7,4.6-6.9h.1ZM901.1,201.5h1.4v6c0,.7.3.6.9.6s1.1.2,1.4-.2c0-.1,0-.4.2-.7v-1.7c0,0,.2.2.4.2s.3.1.5.2c.2,0,.3,0,.4.1,0,.9,0,1.5-.2,2,0,.5-.3.8-.5,1-.4.4-1.2.3-1.9.3s-1.5,0-2-.2c-.6-.3-.6-.9-.7-1.7v-6h0ZM898.7,191.5l1.4-.4c.3.4.5.8.7,1.3.3.5.4.9.6,1.2l-1.4.5c-.2-.8-.8-1.9-1.2-2.6h0ZM888.6,192h4.7v1.4h-3.3v16.2h-1.4v-17.5h0ZM892.9,192h.5l1,.5c-.6,1.6-1.3,3.6-2,5.2,1.6,1.7,2.1,3.7,1.6,5.8,0,.4-.3.7-.6.9,0,0-.3.2-.5.2-.6.2-1.3.2-1.9.2,0-.2,0-.4,0-.7,0-.3,0-.5-.3-.7h.6c.4,0,.9,0,1.1-.2.8-.9.4-2.1,0-3.2-.2-.7-.7-1.4-1.4-2.2.2-.5.4-.9.5-1.4.2-.5.4-1,.5-1.5.2-.5.3-1,.5-1.4,0-.4.3-.8.4-1.2v-.4h.1ZM1653,157.3c-.7,0-1.3-.1-1.9-.4-3.9-2.1-3.7-9.8-1.3-12.9,1.7-2.3,5.4-2.4,7.2-.3l-1,1.1c-1.7-2.1-4.9-1.1-5.6,1.5-.7,2.3-1,7,.9,9,1.2,1.2,3.3.7,3.9-.9.5-1,.4-2.5,0-3.5-.2-.5-.5-.9-.9-1.1-.9-.6-2-.5-3,0-.5.3-1.1.8-1.6,1.5v-1.4c.2-.4.6-.7,1-1,1.3-1.1,3.2-1.2,4.6-.4.6.3,1.1.8,1.4,1.5,1.4,2.8,0,7.4-3.7,7.3h0ZM1663.7,157.3c-3.1.2-5.7-2.7-4.3-5.7.5-1,1.4-1.8,2.3-2.3h0c-.5-.5-1-.9-1.4-1.5-1.7-2.6.4-5.9,3.4-5.7,2.8-.2,4.9,2.7,3.7,5.3-.3.8-1,1.6-1.6,2.1h0c.4.3.8.6,1.2,1,.4.3.7.7.9,1.2,1.4,2.9-1.1,5.7-4.2,5.5h0ZM1664.7,149c1.3-1.1,1.9-2.8,1.2-4.3-.2-.4-.5-.7-.8-.9-2.3-1.4-4.8,1.2-3.2,3.5.3.4.7.7,1.2,1s1.1.5,1.6.7h0ZM1663.7,155.9c.6,0,1.1-.1,1.5-.3s.8-.5,1-.9c.5-.7.5-1.9,0-2.5-.2-.4-.5-.7-.9-.9-.8-.6-1.8-1-2.7-1.3-2.1,1.1-3,4.4-.5,5.7.5.2,1,.3,1.6.3h0ZM1653.4,163.2h1.5v18.4h-1.5v-18.4ZM1651.6,167.1l1.1.2c0,1.2-.2,2.5-.5,3.7,0,.6-.3,1.2-.5,1.7l-1.2-.4c.2-.4.3-1,.5-1.6.3-1.1.5-2.5.6-3.6h0ZM1654.9,166.9l1.1-.5c.2.4.4.8.6,1.3.4.8.7,1.6.9,2.4l-1.1.6c-.2-.8-.6-1.7-.9-2.5-.2-.5-.4-.9-.6-1.3ZM1657.7,166.4h9.9v6.8h-1.5v-5.4h-8.4v-1.4h0ZM1656.6,172.4h12.7v1.5h-12.7v-1.5ZM1661.6,163.2h1.5c0,3.2.3,8.5-.6,11.6-.8,3-2.7,5.3-5.5,6.8,0-.1-.2-.3-.3-.4,0-.1-.2-.3-.4-.4,0-.1-.3-.2-.4-.3,2.7-1.3,4.6-3.4,5.2-6.2.7-2.8.3-8.2.4-11.1h.1ZM1663.4,174.9l1.3-.6c1,1.4,2.2,3.1,3.1,4.5.5.7.9,1.4,1.2,1.9l-1.4.8c-1.2-2.1-2.9-4.6-4.3-6.6h.1ZM1658.7,195.4v2.6h7.9v-2.6h-7.9ZM1657.3,194.2h10.7v5h-10.7v-5ZM1656.5,191.3h12.4v1.3h-12.4v-1.3ZM1661.8,189.2h1.5v15.8h-1.5v-15.8ZM1661.5,198.7l1.1.4c-1.3,2.1-3.4,4.1-5.6,5.3,0-.1-.2-.2-.3-.4-.2-.3-.5-.6-.7-.8,2.1-.9,4.3-2.6,5.5-4.6h0ZM1662.2,199.7l.9-.9c1.3.8,2.9,1.9,4.1,2.9.7.5,1.2.9,1.6,1.4l-1,1.1c-1.5-1.5-3.8-3.2-5.6-4.4h0ZM1651.7,189.9l1.1-.7c.8.9,1.9,2.2,2.4,3.1l-1.2.8c-.4-.7-1-1.5-1.5-2.1-.3-.4-.6-.8-.9-1.1h0ZM1650.9,193.8h4.2v1.3h-4.2v-1.3ZM1654.5,203c1.4,3.1,4.8,2.9,7.8,3,2.2,0,4.9,0,7.1-.3,0,.1,0,.2-.2.4,0,.3-.2.7-.3,1h-2.1c-4.6-.1-11.2,1.4-13.4-3.8l1-.5v.2ZM1654.5,198.8h.7l.7.2c-.5,3.5-1.7,6.6-4.2,8.6-.2-.3-.7-.8-1-1,2.3-1.7,3.5-4.4,3.9-7.5v-.3h0ZM1651.2,200.3v-1.2l.7-.4h3.2v1.2h-3.4c-.2,0-.4.1-.5.2v.2ZM1651.2,200.3c0-.1,0-.3-.2-.4,0-.3-.2-.7-.4-.9.2,0,.3-.1.5-.2.2,0,.3-.2.5-.4,1-1.2,2.2-3.1,3.1-4.4h0l.4-.3,1,.5c-.9,1.3-1.9,2.8-2.9,4-.3.5-.6.8-.9,1.2h-.2c0,.1-.2.2-.4.3-.2,0-.3.2-.4.3,0,0-.2.2-.2.3h0ZM1662.2,226.5l1.4-.6c1.1,1.4,2.3,3.2,3.3,4.7.5.8.9,1.5,1.2,2.1l-1.5.8c-.3-.6-.7-1.3-1.2-2.1-1-1.6-2.2-3.4-3.2-4.8h0ZM1656.3,215.8l1.6.5c-1.4,3.1-3.4,6.3-5.9,8.6,0-.1-.2-.2-.4-.4-.2-.2-.3-.3-.5-.5s-.3-.3-.4-.4c2.4-2.1,4.4-4.9,5.6-7.9h0ZM1653.3,232.6c0-.1,0-.3-.2-.5,0-.3-.3-.8-.5-1.1.3,0,.6-.3.9-.6s.7-.7,1-1.2c1.3-1.5,2.6-3.5,3.7-5.4.5-.8,1-1.7,1.4-2.5l1.7.7c-1.9,3.4-4.2,6.9-6.8,9.6h-.2c0,.1-.3.2-.4.3-.2,0-.3.2-.4.3s-.2.2-.2.3h0ZM1653.3,232.6v-1.3l1.1-.6,11.8-.7c0,.2,0,.5,0,.8,0,.3,0,.5.2.7-4.6.4-9.2.3-13.2,1.1ZM1662.3,215.7h1.8c.9,3,2.7,6,5.4,7.8,0,.1-.2.2-.4.4-.2.2-.3.3-.4.5s-.2.3-.3.5c-2.6-2-4.5-5.2-5.5-8.3h-.4v-.9h-.2ZM1659.2,215.7h4.4v1.5h-4.4v-1.5ZM1660.6,257.5h6.6v1.3h-6.6v-1.3ZM1661.6,243.2h5.3v1.3h-5.3v-1.3ZM1660,252.3h7.9v7.2h-1.4v-5.9h-5v5.9h-1.4v-7.2h0ZM1666.3,243.2h.6l.9.4c-1.3,4.5-4.8,8-9,9.8,0-.2-.2-.4-.4-.6-.2-.2-.3-.4-.5-.6,3.8-1.5,7.2-4.8,8.4-8.8v-.3h0ZM1661.9,241.2l1.4.4c-.3.9-.7,1.8-1.1,2.6-.8,1.6-1.8,3.1-2.9,4.3-.2-.2-.5-.5-.8-.7-.2-.1-.3-.2-.4-.3,1.8-1.5,3.1-4,3.8-6.3ZM1661.5,244.1c.6,1.6,1.7,3.1,2.9,4.4,1.4,1.5,3.1,2.7,5.1,3.4-.3.3-.7.8-.9,1.3-3.6-1.6-6.4-4.8-8-8.3l1-.8h0ZM1651.8,250.1h1.3v7.2h-1.3v-7.2h0ZM1653.1,243.4v3.5h3.8v-3.5h-3.8ZM1651.8,242h6.5v6.2h-6.5v-6.2ZM1654.6,247.5h1.4v9.1h-1.4v-9.1ZM1650.8,257.2c2.5-.5,5.3-1.2,7.9-1.8v1.3c-2.3.6-5.3,1.3-7.6,1.9l-.3-1.5h0ZM1655.1,251.1h3.4v1.3h-3.4v-1.3ZM810.2,141.2l1.6.3c-.8,3.2-2,6.5-3.9,9.1-.2-.2-.6-.5-.9-.6-.2-.1-.3-.2-.4-.3,1.9-2.4,2.9-5.5,3.6-8.5h0ZM809.5,145.3h6.5v1.5h-7.2l.8-1.5h0ZM817.9,141.2l1.5.3c-.8,3.1-1.9,6.5-3.8,9.1-.3-.3-.9-.7-1.3-.9,1.8-2.4,2.9-5.5,3.5-8.5h0ZM817.7,145.3h7.5v1.5h-8.3l.7-1.5h0ZM810.9,145.9h1.5v13.7h-1.5v-13.7ZM820.6,145.8h1.5v11.8c0,1.5-.8,1.9-2.2,1.9h-2c0-.2,0-.5-.2-.8,0-.3-.2-.6-.3-.8h2.8c.2,0,.3,0,.3-.1v-12.1h.1ZM810.2,165.9h1.5v16.7h-1.5v-16.7ZM806.9,169.8h7.8v1.4h-7.8v-1.4ZM810.3,170.4l.9.4c-.9,2.8-2.1,5.9-3.9,8.2,0-.2-.2-.4-.4-.7,0-.3-.3-.5-.4-.7,1.7-2,3-4.7,3.8-7.2h0ZM813.4,164.5l.9,1.2c-2.1.8-4.6,1.3-6.9,1.6,0-.2,0-.4-.2-.6,0-.2-.2-.4-.2-.6,2.1-.4,4.5-.8,6.4-1.6h0ZM811.6,171.5c0,.1.3.4.6.7s.6.7.9,1.1c.3.4.6.7.8,1.1.3.3.5.6.6.7l-.9,1.2c0-.2-.3-.5-.5-.9s-.5-.8-.8-1.2-.5-.8-.8-1.2c-.2-.4-.4-.6-.6-.8l.7-.6h0ZM821.2,164.2h1.5v18.4h-1.5v-18.4ZM814.4,177.2l10.6-1.7.2,1.4-10.6,1.8-.2-1.4h0ZM816.1,166.5l1-.9c1.1.7,2.4,1.7,3.3,2.8l-1,1c-.2-.3-.5-.6-.8-.9-.3-.3-.7-.7-1.1-1-.4-.3-.8-.7-1.2-.9h-.2ZM815.3,171.7l.9-.9c.9.5,1.9,1.2,2.6,1.9.4.3.7.6,1,.9l-1,1c-.2-.3-.6-.6-1-1-.7-.7-1.7-1.4-2.6-2h0ZM808.5,189.1h15.1v1.5h-15.1v-1.5ZM809.7,195.7h12.3v1.5h-12.3v-1.5ZM807.3,202.6h17.4v1.5h-17.4v-1.5ZM818.2,211.2h5.5v1.4h-5.5v-1.4ZM818.2,215.8h5.5v1.3h-5.5v-1.3ZM818.2,220.4h5.6v1.4h-5.6v-1.4ZM823.1,211.2h1.4v15.5c0,.4,0,.8-.2,1-.3.7-1,.7-1.8.8h-1.8c0-.4-.3-1.1-.5-1.5.9,0,2,.2,2.7,0v-15.8h.2ZM817.6,211.2h1.4c-.2,5.4.9,12.6-2,17.5-.2-.2-.5-.5-.8-.6,0,0-.3-.2-.4-.2,1.7-2.7,1.8-6.3,1.8-9.4v-7.3ZM807,212.9h9.6v1.3h-9.6v-1.3ZM809.4,216h5.1v1.2h-5.1v-1.2ZM809.4,219.1h5.1v1.2h-5.1v-1.2ZM806.8,222.4h9.9v1.3h-9.9v-1.3ZM808.7,210.4h1.4v12.5h-1.4v-12.5ZM813.7,210.4h1.4v12.5h-1.4v-12.5ZM809.6,224.1l1.4.4c-.7,1.4-1.8,3-3,4.1,0,0-.2-.2-.4-.3,0-.1-.3-.2-.5-.3,0-.1-.3-.2-.4-.3,1.1-.9,2.2-2.3,2.8-3.6h.1ZM812.4,224.8l1.2-.6c.3.3.5.6.8,1,.5.6,1,1.3,1.3,2l-1.2.7c0-.3-.3-.6-.5-.9-.4-.7-1-1.5-1.5-2.1h0ZM807.2,234.2h6.5v1.3h-6.5v-1.3ZM806.8,240.5h7.6v1.4h-7.6v-1.4ZM810.1,241.2h1.4v8.7c0,2-2,1.7-3.6,1.7,0-.4-.3-1.1-.5-1.4h2.2c.3,0,.4,0,.4-.3v-8.6h0ZM813.2,234.2h.6l.9.6c-.9,1.5-2.3,3.2-3.7,4.3,0-.1-.2-.3-.4-.5s-.3-.3-.5-.4c1.1-1,2.3-2.4,3-3.7v-.3h.1ZM814,240.5h.4l.9.2c-.5,1.3-1.1,3.2-1.7,4.4l-1.1-.3c.6-1.2,1.1-2.8,1.5-4.1v-.2h0ZM807.8,237.7l.8-1c1.6.8,3.4,2,4.7,3.2l-.9,1.1c-.3-.3-.7-.7-1.2-1.1-1-.8-2.2-1.7-3.4-2.2h0ZM814.9,234.1h10.2v1.3h-10.2v-1.3ZM817.1,241.6v2h5.9v-2h-5.9ZM817.1,244.6v2h5.9v-2h-5.9ZM817.1,238.5v1.9h5.9v-1.9h-5.9ZM815.7,237.3h8.7v10.4h-8.7v-10.4ZM819.2,234.8l1.7.2c-.3,1-.6,2.3-1,3.3l-1.3-.3c0-.3.2-.6.2-1,.2-.7.3-1.5.4-2.2h0ZM817.7,248.1l1.3.8c-1.2,1.2-3,2.1-4.6,2.7-.2-.3-.7-.8-1-1,.5-.2,1.1-.4,1.6-.7s1.1-.6,1.5-.9c.5-.3.8-.6,1.1-.9h.1ZM820.8,249l1.1-.8c1.2.7,2.6,1.7,3.6,2.6l-1.2.9c-.9-.9-2.4-1.9-3.5-2.6h0ZM810.2,262.4h11.7v1.5h-11.7v-1.5ZM816,267.1h6.7v1.4h-6.7v-1.4ZM815.2,263h1.6v10.1l-1.6-.2v-9.9ZM810.5,265.4l1.5.2c-.5,3.6-1.5,6.8-4.1,9.1l-.3-.3c0-.1-.3-.2-.5-.4-.2-.1-.3-.2-.4-.3,2.5-2,3.3-5,3.8-8.2h0ZM811.4,268c1.7,5.7,8.2,4.7,12.9,4.8h.8c0,.1,0,.3-.2.4,0,.2-.2.4-.2.6s0,.4,0,.5c-5.7,0-12.3,1-14.4-5.8l1.2-.5ZM807.6,258.5h16.7v4.4h-1.5v-2.9h-13.7v2.9h-1.5v-4.4ZM814.5,256.5l1.5-.4c.2.4.5.8.7,1.3s.4.8.5,1.2l-1.5.5c-.2-.7-.7-1.8-1.1-2.5h-.1ZM807,284h6v1.4h-6v-1.4ZM809.5,279.4h1.4v13h-1.4v-13ZM806.7,292.7c2-.8,4.3-1.7,6.4-2.6l.3,1.3c-1.9.9-4.3,2-6.1,2.8l-.6-1.5h0ZM818.7,279.2h1.4v13.9h-1.4v-13.9ZM812.4,287.4l10.8-4.5.6,1.3-10.8,4.6-.6-1.3h0ZM814.6,281.1h1.4v13.4c0,.4,0,.6,0,.8,0,.2.2.3.4.4,1.5.2,3.5,0,5.1.1,1,0,1.9.1,2-1.1,0-.4.2-1,.2-1.8.2.1.4.3.6.4.3.1.5.2.7.2-.2,1.4,0,2.6-1.2,3.3-1.3.6-3.2.2-4.7.3-1.6-.1-3.7.5-4.5-1.1-.5-.5,0-14-.3-15h.2ZM822.8,283.4h-.2l.6-.5,1.2.4v.3c-.3,2.8-.5,6.1-1.1,8.8l-1.2-.4c.5-2.7.7-5.8.8-8.6h0ZM1078.6,154.4h13v1.2h-13v-1.2ZM1079.1,151.2h13.4v1.3h-13.4v-1.3ZM1076.3,157.8h17.4v1.3h-17.4v-1.3ZM1084.2,149.6h1.6v9.1h-1.6v-9.1ZM1079.8,146.1v1.8h10.3v-1.8h-10.3ZM1079.8,143.2v1.8h10.3v-1.8h-10.3ZM1078.4,142h13.3v7.1h-13.3v-7.1ZM1079.7,149.1l1.5.4c-.9,1.9-2.3,3.7-3.9,5.1,0,0-.2-.2-.4-.3-.2-.1-.3-.2-.5-.3s-.3-.2-.4-.3c1.5-1.1,2.9-2.9,3.7-4.6h0ZM1076.8,169.5h7v1.3h-7v-1.3ZM1078.9,183.1h5.6v1.3h-5.6v-1.3ZM1078.9,179.7h5.6v1.2h-5.6v-1.2ZM1075.9,173.3h10.3v1.3h-10.3v-1.3ZM1079.9,167.4h1.4v6.7h-1.4v-6.7ZM1085.2,167.9l1.4.4c-2.1,4.8-5.6,8.8-10.2,11.3,0-.1,0-.2-.3-.4-.2-.3-.4-.7-.7-.8,4.4-2.2,7.8-5.9,9.7-10.5h0ZM1079.3,176.5h5.1v1.2h-5.1v7.7h-1.4v-8.1l.8-.9h.6ZM1083.9,176.5h1.4v8.7h-1.4v-8.7ZM1087.1,168.3h6v1.4h-4.5v15.8h-1.5v-17.3h0ZM1092.7,168.3h.5l1.1.6c-.8,1.9-1.9,4.2-2.9,6.1,1.2,1,2,2.1,2.4,3.4.3,1,.3,2.2,0,3.1-.2.5-.4.8-.8,1-.3.2-.8.4-1.4.5h-1.9c0-.2,0-.5,0-.7,0-.3-.2-.5-.3-.7h1.7c1.1,0,1.6-.8,1.5-1.8,0-1.8-1.1-3.1-2.7-4.5,1-2,2-4.3,2.8-6.4v-.5h0ZM1085.7,198.5h7.8v1.2h-7.8v9.3h-1.2v-9.5l.8-1h.4,0ZM1085.5,196.1l1.2.3c-.8,2.3-2,4.7-3.5,6.6-.2-.2-.4-.4-.7-.6,0-.1-.2-.2-.3-.3,1.4-1.6,2.5-4,3.2-6.1h.1ZM1085.3,201.3h7.9v1h-7.9v-1ZM1085.3,203.9h7.9v1h-7.9v-1ZM1085.2,206.6h8.5v1.1h-8.5v-1.1ZM1082,209.6h12.2v1.3h-12.2v-1.3ZM1088.8,198.9h1.3v8.3h-1.3v-8.3ZM1081.2,194.3h12.7v1.2h-11.4v15.3h-1.4v-16.5h.1ZM1076.3,194.3l.9-1c.4.2.8.4,1.2.7.4.3.8.5,1.2.8.4.3.7.5.9.8l-1,1.2c-.2-.2-.5-.5-.9-.8s-.8-.6-1.2-.9c-.4-.3-.8-.5-1.2-.7h0ZM1075.7,199.9l.9-1.1c.4.2.8.4,1.3.7.4.2.8.5,1.2.8.4.3.7.5.9.7l-.9,1.2c-.2-.2-.5-.5-.9-.8-.7-.5-1.7-1.1-2.5-1.5h0ZM1076.2,210.7c1-2,1.9-4.4,2.7-6.5l1.2.8c-.7,2.1-1.7,4.4-2.6,6.4l-1.4-.8h.1ZM1088.1,196.3l1.1-.5c.4.5,1,1.4,1.2,2l-1.1.5c-.2-.6-.7-1.5-1.1-2.1h0ZM1078.1,236l5.6-14.7h2.3l5.7,14.7h-2l-1.7-4.5h-6.2l-1.7,4.5h-2ZM1082.2,230.1h5.4l-.9-2.3c-.3-.8-.6-1.7-.9-2.5s-.6-1.6-.9-2.5h0c-.8,2.4-1.8,4.9-2.6,7.3h0ZM1083.7,249.8v2.3h4.6v-2.3h-4.6ZM1082.2,248.8h7.5v4.5h-7.5v-4.5ZM1081.3,255.7v3h2.7v-3h-2.7ZM1080.1,254.6h5.2v5.2h-5.2v-5.2h0ZM1088,255.7v3h2.8v-3h-2.8ZM1086.7,254.6h5.4v5.2h-5.4v-5.2h0ZM1076.2,246.1h16.9v1.4h-16.9v-1.4ZM1077,246.2h1.5c0,.8-.3,13.8.3,14,.2.3.5.6.9.8,1.2.4,2.9.2,4.3.2h7.6c.7,0,1.6,0,2.2-.2,0,.3,0,.7,0,1,0,.2,0,.3,0,.4-.6.1-1.4.1-2.1.1h-9.6c-2.9.2-5.5-.5-5.4-3.9v-12.5h0ZM1149.6,154.4h13v1.2h-13v-1.2ZM1150.1,151.2h13.4v1.3h-13.4v-1.3ZM1147.3,157.8h17.4v1.3h-17.4v-1.3ZM1155.2,149.6h1.6v9.1h-1.6v-9.1ZM1150.8,146.1v1.8h10.3v-1.8h-10.3ZM1150.8,143.2v1.8h10.3v-1.8h-10.3ZM1149.4,142h13.3v7.1h-13.3v-7.1ZM1150.7,149.1l1.5.4c-.9,1.9-2.3,3.7-3.9,5.1,0,0-.2-.2-.4-.3-.2-.1-.3-.2-.5-.3s-.3-.2-.4-.3c1.5-1.1,2.9-2.9,3.7-4.6h0ZM1147.8,169.5h7v1.3h-7v-1.3ZM1149.9,183.1h5.6v1.3h-5.6v-1.3ZM1149.9,179.7h5.6v1.2h-5.6v-1.2ZM1146.9,173.3h10.3v1.3h-10.3v-1.3ZM1150.9,167.4h1.4v6.7h-1.4v-6.7ZM1156.2,167.9l1.4.4c-2.1,4.8-5.6,8.8-10.2,11.3,0-.1,0-.2-.3-.4-.2-.3-.4-.7-.7-.8,4.4-2.2,7.8-5.9,9.7-10.5h0ZM1150.3,176.5h5.1v1.2h-5.1v7.7h-1.4v-8.1l.8-.9h.6ZM1154.9,176.5h1.4v8.7h-1.4v-8.7ZM1158.1,168.3h6v1.4h-4.5v15.8h-1.5v-17.3h0ZM1163.7,168.3h.5l1.1.6c-.8,1.9-1.9,4.2-2.9,6.1,1.2,1,2,2.1,2.4,3.4.3,1,.3,2.2,0,3.1-.2.5-.4.8-.8,1-.3.2-.8.4-1.4.5h-1.9c0-.2,0-.5,0-.7,0-.3-.2-.5-.3-.7h1.7c1.1,0,1.6-.8,1.5-1.8,0-1.8-1.1-3.1-2.7-4.5,1-2,2-4.3,2.8-6.4v-.5h0ZM1156.7,198.5h7.8v1.2h-7.8v9.3h-1.2v-9.5l.8-1h.4,0ZM1156.5,196.1l1.2.3c-.8,2.3-2,4.7-3.5,6.6-.2-.2-.4-.4-.7-.6,0-.1-.2-.2-.3-.3,1.4-1.6,2.5-4,3.2-6.1h.1ZM1156.3,201.3h7.9v1h-7.9v-1ZM1156.3,203.9h7.9v1h-7.9v-1ZM1156.2,206.6h8.5v1.1h-8.5v-1.1ZM1153,209.6h12.2v1.3h-12.2v-1.3ZM1159.8,198.9h1.3v8.3h-1.3v-8.3ZM1152.2,194.3h12.7v1.2h-11.4v15.3h-1.4v-16.5h.1ZM1147.3,194.3l.9-1c.4.2.8.4,1.2.7.4.3.8.5,1.2.8.4.3.7.5.9.8l-1,1.2c-.2-.2-.5-.5-.9-.8s-.8-.6-1.2-.9c-.4-.3-.8-.5-1.2-.7h0ZM1146.7,199.9l.9-1.1c.4.2.8.4,1.3.7.4.2.8.5,1.2.8.4.3.7.5.9.7l-.9,1.2c-.2-.2-.5-.5-.9-.8-.7-.5-1.7-1.1-2.5-1.5h0ZM1147.2,210.7c1-2,1.9-4.4,2.7-6.5l1.2.8c-.7,2.1-1.7,4.4-2.6,6.4l-1.4-.8h.1ZM1159.1,196.3l1.1-.5c.4.5,1,1.4,1.2,2l-1.1.5c-.2-.6-.7-1.5-1.1-2.1h0ZM1150.5,236v-14.7h4.1c4.6-.2,8.1,2.6,7.9,7.3.2,4.6-3.2,7.6-7.8,7.4h-4.2ZM1152.3,234.5c2.8,0,6.2,0,7.5-2.7.9-1.6.9-4.7,0-6.4-1.3-2.7-4.8-2.7-7.5-2.6v11.6h0ZM1154.7,249.8v2.3h4.6v-2.3h-4.6ZM1153.2,248.8h7.5v4.5h-7.5v-4.5ZM1152.3,255.7v3h2.7v-3h-2.7ZM1151.1,254.6h5.2v5.2h-5.2v-5.2h0ZM1159,255.7v3h2.8v-3h-2.8ZM1157.7,254.6h5.4v5.2h-5.4v-5.2h0ZM1147.2,246.1h16.9v1.4h-16.9v-1.4ZM1148,246.2h1.5c0,.8-.3,13.8.3,14,.2.3.5.6.9.8,1.2.4,2.9.2,4.3.2h7.6c.7,0,1.6,0,2.2-.2,0,.3,0,.7,0,1,0,.2,0,.3,0,.4-.6.1-1.4.1-2.1.1h-9.6c-2.9.2-5.5-.5-5.4-3.9v-12.5h0ZM1272.6,154.4h13v1.2h-13v-1.2ZM1273.1,151.2h13.4v1.3h-13.4v-1.3ZM1270.3,157.8h17.4v1.3h-17.4v-1.3ZM1278.2,149.6h1.6v9.1h-1.6v-9.1ZM1273.8,146.1v1.8h10.3v-1.8h-10.3ZM1273.8,143.2v1.8h10.3v-1.8h-10.3ZM1272.4,142h13.3v7.1h-13.3v-7.1ZM1273.7,149.1l1.5.4c-.9,1.9-2.3,3.7-3.9,5.1,0,0-.2-.2-.4-.3-.2-.1-.3-.2-.5-.3s-.3-.2-.4-.3c1.5-1.1,2.9-2.9,3.7-4.6h0ZM1270.8,169.5h7v1.3h-7v-1.3ZM1272.9,183.1h5.6v1.3h-5.6v-1.3ZM1272.9,179.7h5.6v1.2h-5.6v-1.2ZM1269.9,173.3h10.3v1.3h-10.3v-1.3ZM1273.9,167.4h1.4v6.7h-1.4v-6.7ZM1279.2,167.9l1.4.4c-2.1,4.8-5.6,8.8-10.2,11.3,0-.1,0-.2-.3-.4-.2-.3-.4-.7-.7-.8,4.4-2.2,7.8-5.9,9.7-10.5h0ZM1273.3,176.5h5.1v1.2h-5.1v7.7h-1.4v-8.1l.8-.9h.6ZM1277.9,176.5h1.4v8.7h-1.4v-8.7ZM1281.1,168.3h6v1.4h-4.5v15.8h-1.5v-17.3h0ZM1286.7,168.3h.5l1.1.6c-.8,1.9-1.9,4.2-2.9,6.1,1.2,1,2,2.1,2.4,3.4.3,1,.3,2.2,0,3.1-.2.5-.4.8-.8,1-.3.2-.8.4-1.4.5h-1.9c0-.2,0-.5,0-.7,0-.3-.2-.5-.3-.7h1.7c1.1,0,1.6-.8,1.5-1.8,0-1.8-1.1-3.1-2.7-4.5,1-2,2-4.3,2.8-6.4v-.5h0ZM1279.7,198.5h7.8v1.2h-7.8v9.3h-1.2v-9.5l.8-1h.4,0ZM1279.5,196.1l1.2.3c-.8,2.3-2,4.7-3.5,6.6-.2-.2-.4-.4-.7-.6,0-.1-.2-.2-.3-.3,1.4-1.6,2.5-4,3.2-6.1h.1ZM1279.3,201.3h7.9v1h-7.9v-1ZM1279.3,203.9h7.9v1h-7.9v-1ZM1279.2,206.6h8.5v1.1h-8.5v-1.1ZM1276,209.6h12.2v1.3h-12.2v-1.3ZM1282.8,198.9h1.3v8.3h-1.3v-8.3ZM1275.2,194.3h12.7v1.2h-11.4v15.3h-1.4v-16.5h.1ZM1270.3,194.3l.9-1c.4.2.8.4,1.2.7.4.3.8.5,1.2.8.4.3.7.5.9.8l-1,1.2c-.2-.2-.5-.5-.9-.8s-.8-.6-1.2-.9c-.4-.3-.8-.5-1.2-.7h0ZM1269.7,199.9l.9-1.1c.4.2.8.4,1.3.7.4.2.8.5,1.2.8.4.3.7.5.9.7l-.9,1.2c-.2-.2-.5-.5-.9-.8-.7-.5-1.7-1.1-2.5-1.5h0ZM1270.2,210.7c1-2,1.9-4.4,2.7-6.5l1.2.8c-.7,2.1-1.7,4.4-2.6,6.4l-1.4-.8h.1ZM1282.1,196.3l1.1-.5c.4.5,1,1.4,1.2,2l-1.1.5c-.2-.6-.7-1.5-1.1-2.1h0ZM1273.8,236v-14.7c1.9,0,6.3-.2,8,.4,3.3.7,3.5,5.6.2,6.4h0c1,.3,1.8.6,2.4,1.3,1.8,1.9.8,5.5-1.8,6.2-1.8.7-6.7.4-8.8.4h0ZM1275.6,227.6c2.3-.2,6.8.8,6.9-2.4,0-3.2-4.6-2.2-6.9-2.4v4.8h0ZM1275.6,234.5c2.6-.2,7.9,1,7.8-2.9,0-3.5-5.3-2.5-7.8-2.6v5.5ZM1277.7,249.8v2.3h4.6v-2.3h-4.6ZM1276.2,248.8h7.5v4.5h-7.5v-4.5ZM1275.3,255.7v3h2.7v-3h-2.7ZM1274.1,254.6h5.2v5.2h-5.2v-5.2h0ZM1282,255.7v3h2.8v-3h-2.8ZM1280.7,254.6h5.4v5.2h-5.4v-5.2h0ZM1270.2,246.1h16.9v1.4h-16.9v-1.4ZM1271,246.2h1.5c0,.8-.3,13.8.3,14,.2.3.5.6.9.8,1.2.4,2.9.2,4.3.2h7.6c.7,0,1.6,0,2.2-.2,0,.3,0,.7,0,1,0,.2,0,.3,0,.4-.6.1-1.4.1-2.1.1h-9.6c-2.9.2-5.5-.5-5.4-3.9v-12.5h0ZM1451.5,143.7h7.9v1.4h-7.9v-1.4ZM1450.6,150.7h10.6v1.4h-10.6v-1.4ZM1455.2,148.4h1.5c0,.4.2,11.6-.2,11.4,0,.2-.3.4-.7.5-.3.1-.7.2-1.2.2h-1.9c0-.4-.3-1.1-.5-1.4h2.6c.2,0,.3,0,.3-.1v-10.7h0ZM1458.8,143.7h.7l1,.6c-.8,1.2-1.8,2.5-2.9,3.5-.5.5-1.1,1-1.6,1.4,0-.1-.2-.3-.4-.5-.2-.2-.3-.3-.5-.4,1.4-1.1,2.7-2.9,3.6-4.4v-.3h.1ZM1443.3,153.2l.9-1c2.3,1.7,4.8,3.7,6.7,5.8l-1,1.3c-.8-1-1.9-2-3-3-.6-.5-1.2-1.1-1.9-1.6-.6-.5-1.2-1-1.8-1.5h.1ZM1443.3,153.2c1-3.4,1.7-7.4,2.1-10.9h1.5c-.5,3.7-1.2,7.8-2.2,11.3l-1.4-.4h0ZM1448.7,145.1h1.4c.3,6-.8,11.9-6.2,15.6,0-.1-.2-.2-.3-.4-.2-.2-.5-.5-.8-.7,2-1.4,3.5-3.1,4.4-5.1.8-1.7,1.2-3.5,1.3-5.2,0-1.4,0-2.9,0-4.2h0ZM1442.8,146.8c2.7,0,5.7-.3,8.5-.4v1.4c-2.7.2-5.8.4-8.3.5l-.2-1.4h0ZM1451.2,172h1.5v14.5h-1.5v-14.5ZM1443,171.1h18v1.5h-18v-1.5ZM1445,175.3h13.1v1.5h-11.6v7.5h-1.5v-9ZM1457.7,175.3h1.5c0,.7.2,7.6-.2,8.1,0,.2-.4.4-.7.5-1.1.3-2.2.2-3.5.3,0-.5-.3-1.1-.5-1.5h2.9c.3,0,.5,0,.5-.4v-7h0ZM1450.3,168.5l1.5-.5c.5.8,1.3,2.1,1.6,3l-1.5.5c-.4-1-1-2.1-1.5-3.1h0ZM1447,198.6l1-.9c1.4.7,3.1,1.6,4.2,2.6l-1.1,1c-.3-.3-.7-.6-1.1-.9-.5-.3-1-.7-1.5-1s-1-.6-1.6-.9h0ZM1456.3,195.9h.6l1,.5c-2.8,4.9-8.5,7.4-13.8,8.6,0-.2-.2-.4-.3-.7,0-.3-.3-.5-.4-.7,4.9-.9,10.4-3.2,13-7.6v-.2h0ZM1449.6,195.9h7.1v1.3h-7.1v-1.3ZM1451.1,194.2l1.7.4c-2.2,2.4-5,4.3-8.3,5.6,0-.3-.4-.6-.7-.8,0-.1-.3-.2-.4-.3,2.9-1,5.7-2.6,7.6-4.8h.1ZM1449.6,205.9l1.1-.9c.5.3,1.1.6,1.6.9,1,.6,2.1,1.4,2.8,2.1l-1.2,1c-.3-.3-.7-.7-1.2-1-.9-.7-2.2-1.5-3.2-2.1h0ZM1459.2,202.9h.6l1,.5c-2.6,6-9.2,8.4-15.3,9.3,0-.4-.4-1.1-.7-1.4,5.5-.7,12-2.7,14.4-8.2v-.2h0ZM1452.7,202.9h6.9v1.3h-6.9v-1.3ZM1454.3,201l1.7.4c-2.4,2.8-5.8,4.7-9.6,6.1,0-.1,0-.3-.3-.4,0-.1-.2-.3-.3-.4,0-.1-.2-.3-.3-.3,3.3-1.1,6.7-2.7,8.8-5.3h0ZM992.2,93.2c-.5,0-1-.4-1-.9v-1.6h-4.2v1.6c0,.5-.4.9-1,.9h-15.3c-.5,0-1-.4-1-.9v-1.6h-4.2v1.6c0,.5-.4.9-1,.9h-5.7v1.9h5.7c.5,0,1,.4,1,.9v1.6h4.2v-1.6c0-.5.4-.9,1-.9h15.3c.5,0,1,.4,1,.9v1.6h4.2v-1.6c0-.5.4-.9,1-.9h5.7v-1.9h-5.7ZM959.1,130.5l3.6-1.6v-6.3l-3.6,1.6v6.3h0ZM964.6,130.5l3.6-1.6v-6.3l-3.6,1.6v6.3h0ZM970.1,130.5l3.6-1.6v-6.3l-3.6,1.6v6.3h0ZM978.7,110.9v1.9h17.3v-13.3h-17.3v1.9h0v9.5h0ZM982.9,107.7c0-.3.3-.5.6-.5h6v-1.9h-6c-.3,0-.6-.2-.6-.5v-2.8c0-.3.3-.5.6-.5h7.8c.3,0,.6.2.6.5v8.4c0,.3-.3.5-.6.5h-7.8c-.3,0-.6-.2-.6-.5v-2.7ZM997.7,128.1v-12.8h-20.4v12.8c0,.5-.7.4-1,.4v1.9h22.7v-1.9c-.4,0-1.2.2-1.2-.4h0ZM983.1,128.3c0,.1,0,.3-.3.3h-1.1c-.2,0-.3-.1-.3-.3v-10.8c0,0,0-.3.3-.3h1.1c.2,0,.3,0,.3.3v10.8ZM988.3,128.3c0,.1,0,.3-.3.3h-1.1c-.2,0-.3-.1-.3-.3v-10.8c0,0,0-.3.3-.3h1.1c.2,0,.3,0,.3.3v10.8ZM993.5,128.3c0,.1,0,.3-.3.3h-1.1c-.2,0-.3-.1-.3-.3v-10.8c0,0,0-.3.3-.3h1.1c.2,0,.3,0,.3.3v10.8ZM975.6,105.8h-5.2l-1.8,2.2c-.4.4-.9.7-1.5.7h-3.1c-.3,0-.4-.3-.3-.5l7.3-8.7h-5.2l-7.6,9v2h8.3l-6.2,7.6c-.5.7-1.5.7-2.3.7v1.9h16.9v-5.6h-4.2v3.2c0,.3-.2.5-.6.5h-4.6c-.3,0-.4-.3-.3-.5l10.2-12.6h.2ZM974.9,47.7c0-.4.7-.3,1.1-.3s.4.2.4.4v14.7h4.2v-14.7c0-.2.2-.4.5-.4s.9,0,1,.3c2.1,5.4,6.8,10.1,13,11.8v-4.6c-3.7-1.1-6.5-3.8-8.1-6.8-.2-.3,0-.7.5-.7h7.6v-1.9h-14c-.2,0-.5-.2-.5-.4v-2h-4.2v2c0,.2-.2.4-.5.4h-14v1.9h7.6c.4,0,.6.4.5.7-1.6,3-4.4,5.7-8.1,6.8v4.6c6.2-1.6,10.9-6.3,13-11.8h0ZM991.1,66.8h6.6v-1.9h-6.6c-.2,0-.4-.2-.4-.3v-2.6h-4.2v2.6c0,.2-.2.3-.4.3h-6.6v1.9h6.6c.3,0,.4.2.4.4-1,3.1-3.7,6-6.8,7.7v4.8c2.6-1.1,5-2.8,6.9-4.9v8.1h4.2v-8.1c1.9,2.1,4.3,3.8,6.9,4.9v-4.8c-3.1-1.7-5.9-4.6-6.8-7.7,0-.2,0-.5.4-.4h-.2ZM970.4,64.5v-2.6h-4.2v2.6c0,.2-.2.3-.4.3h-6.6v1.9h6.6c.3,0,.4.2.4.4-1,3.1-3.7,6-6.8,7.7v4.8c2.6-1.1,5-2.8,6.9-4.9v8.1h4.2v-8.1c1.9,2.1,4.3,3.8,6.9,4.9v-4.8c-3.1-1.7-5.9-4.6-6.8-7.7,0-.2,0-.5.4-.4h6.6v-1.9h-6.6c-.2,0-.4-.2-.4-.3h-.2ZM216.1,884.7c.2,6.5,9.6,6.5,9.8,0-.2-6.5-9.6-6.5-9.8,0ZM554.9,750.6c6.5-.2,6.5-9.6,0-9.8-6.5.2-6.5,9.6,0,9.8ZM650.1,675.3c.2,6.5,9.6,6.5,9.8,0-.2-6.5-9.6-6.5-9.8,0ZM892.5,515.8c.2,6.5,9.6,6.5,9.8,0-.2-6.5-9.6-6.5-9.8,0ZM1447.6,354.5c.2,6.5,9.6,6.5,9.8,0-.2-6.5-9.6-6.5-9.8,0ZM1655.8,889.4c.2,6.5,9.6,6.5,9.8,0-.2-6.5-9.6-6.5-9.8,0ZM1728.6,636.1c6.5-.2,6.5-9.6,0-9.8-6.5.2-6.5,9.6,0,9.8ZM736.9,396.3c6.5-.2,6.5-9.6,0-9.8-6.5.2-6.5,9.6,0,9.8ZM811.3,451.2c.2,6.5,9.6,6.5,9.8,0-.2-6.5-9.6-6.5-9.8,0ZM1084.7,636.1c6.5-.2,6.5-9.6,0-9.8-6.5.2-6.5,9.6,0,9.8ZM1150.8,687.1c.2,6.5,9.6,6.5,9.8,0-.2-6.5-9.6-6.5-9.8,0ZM1224.5,681.2c.2,6.5,9.6,6.5,9.8,0-.2-6.5-9.6-6.5-9.8,0ZM1278.9,636.1c6.5-.2,6.5-9.6,0-9.8-6.5.2-6.5,9.6,0,9.8ZM1663.2,1100.1h5v.9h-11.1v-.9h5v-2.8h-3.9v-.9h8.7v.9h-3.8v2.8ZM1658.1,1093.8h-.9v-2.9h5.1c-.2-.4-.4-.9-.6-1.3l1-.3c.3.5.6,1.1.8,1.6h4.7v2.6h-1v-1.7h-2.5v2.1c0,.4,0,.5.4.5h2.2c.3,0,.8,0,1,0,0,.3,0,.6.1.9-.2,0-.7,0-1.1,0h-2.3c-1.1,0-1.4-.4-1.4-1.4v-2.1h-1.7c-.2,2.3-.9,3.4-4.1,3.9,0-.2-.3-.6-.5-.8,2.9-.4,3.4-1.3,3.6-3.1h-2.8v2ZM1674.3,1096l-1.6.5v3.7c0,.6-.1.8-.5,1-.3.2-.9.2-1.8.2,0-.2-.2-.6-.3-.9.6,0,1.1,0,1.3,0,.2,0,.2,0,.2-.2v-3.4c-.6.2-1.1.3-1.6.5l-.3-1c.5-.1,1.2-.3,1.9-.5v-2.8h-1.7v-.9h1.7v-2.6h1v2.6h1.5v.9h-1.5v2.5l1.5-.4v.9ZM1681.1,1091.7v9.4h-1v-.6h-4.3v.7h-.9v-9.5h2.2c.2-.7.5-1.6.6-2.3h1.1c-.2.9-.5,1.7-.7,2.3h3.1ZM1675.8,1092.7v3h4.3v-3h-4.3ZM1680.2,1099.6v-3.1h-4.3v3.1h4.3ZM1694.9,1093v.7h-2.2v1.1h-7.6l.2-1.1h-2.1v-.7h2.2v-1.1h7.5v1.1c0,0,2,0,2,0ZM1690.5,1099.5c1.5.4,3.1.8,4,1.2l-.6.6c-.9-.4-2.4-.9-4-1.3l.5-.6h-2.9l.8.5c-1.1.6-2.8,1.1-4.3,1.3-.1-.2-.4-.5-.5-.7,1.4-.2,3.1-.7,4-1.1h-2.5v-4h8.2v4h-2.8ZM1684.6,1092.6h-.9v-2.1h5c-.2-.3-.4-.7-.6-1l.8-.3c.3.4.6.8.8,1.2h4.8v2.1h-.9v-1.3h-9v1.3ZM1685.9,1096.6h6.3v-.6h-6.3v.6ZM1685.9,1097.8h6.3v-.6h-6.3v.6ZM1685.9,1098.9h6.3v-.6h-6.3v.6ZM1686.1,1094.3h2.4c0-.2,0-.4,0-.6h-2.4v.6ZM1686.4,1092.5v.6c0,0,2.3,0,2.3,0v-.6s-2.3,0-2.3,0ZM1691.8,1094.3v-.6c0,0-2.4,0-2.4,0,0,.2,0,.4,0,.6h2.4ZM1692,1092.5h-2.4v.6c0,0,2.4,0,2.4,0v-.6ZM1700.5,1099.1c-.9.7-2.2,1.5-3.4,1.9-.1-.2-.5-.5-.7-.7,1.1-.4,2.4-1,3.2-1.6l.9.3ZM1708,1094.3v.8h-11.4v-.8h5.3c-.1-.2-.3-.4-.4-.6l.7-.2h-4.1v-3.6h8.5v3.6h-4.2c.2.2.4.6.5.8h5.1ZM1702.8,1098.5v1.9c0,.5-.1.7-.5.8-.4.1-1,.1-1.9.1,0-.2-.2-.5-.3-.8.7,0,1.3,0,1.5,0,.2,0,.2,0,.2-.2v-1.9h-3.5v-2.7h8v2.7h-3.5ZM1699,1091.4h6.6v-.8h-6.6v.8ZM1699,1092.8h6.6v-.8h-6.6v.8ZM1699.3,1097.7h6.1v-1.2h-6.1v1.2ZM1704.5,1098.8c1.2.4,2.7,1.1,3.4,1.6l-.7.6c-.7-.5-2.2-1.3-3.4-1.7l.6-.6ZM1709.5,1095.2c.3-.9.5-2.3.6-3.3h.8c0,1.1-.3,2.6-.6,3.6l-.8-.3ZM1711.4,1089.4h.9v11.9h-.9v-11.9ZM1713.1,1091.3c.3.6.7,1.4.8,1.9l-.7.4c-.1-.5-.5-1.4-.8-2l.7-.3ZM1721.4,1093.6v.7h-7.9v-.7h3.4v-.9h-2.7v-.7h2.7v-.8h-3.1v-.7h3.1v-1h.9v1h3.1v.7h-3.1v.8h2.8v.7h-2.8v.9h3.5ZM1720.6,1100.2c0,.5-.1.7-.5.9-.4.2-.9.2-1.9.2,0-.2-.2-.6-.3-.8.7,0,1.3,0,1.4,0,.2,0,.2,0,.2-.2v-1h-4.5c-.1.8-.4,1.6-.9,2.2-.1-.2-.5-.6-.7-.7.7-1,.8-2.3.8-3.3v-2.4h6.2v5.1ZM1719.7,1098.5v-1h-4.4c0,.3,0,.7,0,1h4.4ZM1715.3,1095.8v1h4.4v-1h-4.4ZM1726.9,1098.1c-1.3.5-2.7,1.1-3.8,1.5l-.3-1c.5-.1,1-.3,1.6-.6v-4.6h-1.4v-.9h1.4v-3h.9v3h1.3v.9h-1.3v4.2l1.4-.5.2.9ZM1733.1,1100.4c.2,0,.4,0,.4,0,.1,0,.2-.1.2-.3,0-.2,0-.6,0-1.1.2.2.5.3.8.4,0,.5,0,1-.2,1.3-.1.2-.2.3-.5.4-.2,0-.5.1-.8.1h-.9c-.3,0-.7,0-.9-.2-.2-.2-.3-.4-.3-1.1v-1.9h-1.2c-.2,1.9-.9,2.9-3.2,3.4,0-.2-.3-.6-.5-.8,2.1-.4,2.7-1.2,2.8-2.7h-1.4v-3.7h5.9v3.7h-1.6v2c0,.2,0,.3.1.4,0,0,.2,0,.4,0h.6ZM1734.3,1093.6h-7.2v-.8h1.8c0-.4-.2-.9-.4-1.2l.8-.2c.2.4.4.9.5,1.3h-.5c0,.1,2.2.1,2.2.1.2-.4.4-1,.5-1.4l.9.2c-.2.4-.4.8-.6,1.2h2v.8ZM1733.9,1091.2h-6.5v-.8h2.8c-.1-.3-.2-.6-.4-.9l.9-.2c.2.3.3.7.4,1h2.7v.8ZM1728.6,1095.8h4.1v-.8h-4.1v.8ZM1728.6,1097.3h4.1v-.9h-4.1v.9ZM1740,1097.2c0-.2,0-.4-.1-.7-2.8.4-3.1.5-3.4.6,0-.2-.2-.7-.3-.9.3,0,.6-.4,1-.9.2-.2.6-.8,1.1-1.5-1.3.2-1.6.2-1.8.3,0-.2-.2-.6-.3-.9.2,0,.4-.3.7-.7.3-.4,1.2-1.9,1.7-3.3l.9.4c-.6,1.2-1.3,2.5-2,3.5h1.3c.3-.7.7-1.2.9-1.8l.8.5c-.8,1.5-1.8,3-2.9,4.2l2-.3c-.1-.4-.3-.9-.4-1.3l.7-.2c.4.8.7,2,.8,2.7l-.8.2ZM1737.5,1097.9c-.1,1.1-.4,2.4-.7,3.2-.2,0-.6-.2-.8-.3.3-.8.5-2,.6-3h.8ZM1738.7,1097.7c.2.9.3,2,.4,2.7h-.8c0-.6-.2-1.7-.3-2.6h.7ZM1739.9,1097.4c.3.7.6,1.6.7,2.2l-.7.2c-.1-.6-.4-1.5-.6-2.2l.7-.2ZM1747.9,1100.1v.9h-7.4v-.9h3.3v-2.5h-2.6v-.9h6.2v.9h-2.6v2.5h3.1ZM1742.3,1096.3c-.3-.7-.9-1.7-1.5-2.6.5-.8,1.1-1.8,1.4-2.4l.8.2c-.4.7-.8,1.5-1.3,2.1.6.8,1.1,1.7,1.4,2.2l-.8.3ZM1747.8,1091h-6.9v-.9h6.9v.9ZM1745.2,1091.6c-.4.7-.9,1.5-1.3,2.1.6.7,1.2,1.6,1.5,2.2l-.8.4c-.3-.7-.9-1.7-1.6-2.5.5-.8,1.1-1.8,1.4-2.4l.8.2ZM1746.9,1096.3c-.3-.7-1-1.7-1.8-2.6.5-.8,1.2-1.8,1.5-2.4l.9.2c-.4.7-.9,1.5-1.3,2.1.6.7,1.2,1.6,1.6,2.2l-.8.4ZM1752.7,1089.7c-.3.9-.6,1.7-1,2.5v9h-.9v-7.3c-.4.6-.8,1.2-1.2,1.7,0-.2-.3-.7-.5-1,1.1-1.3,2.2-3.3,2.8-5.3l.9.2ZM1760,1091.6c-.4.9-1,1.6-1.8,2.2.9.5,2,.9,3.2,1.2-.2.2-.4.5-.5.8-1.3-.3-2.5-.8-3.4-1.4-1,.7-2.1,1.1-3.3,1.5-.1-.2-.4-.6-.6-.8,1.2-.3,2.2-.7,3.1-1.3-.6-.5-1-1-1.4-1.5-.4.5-.7.9-1.1,1.2-.1-.1-.4-.4-.6-.5v6.1h-.8v-8.2h.8v2c1-.9,1.9-2.2,2.4-3.5l.9.2c-.2.4-.4.8-.6,1.2h4.7v.8h-1ZM1761.1,1098.3c-1.3,1.5-3.7,2.5-6.4,2.9-.1-.2-.3-.6-.5-.8,2.6-.4,5-1.2,6.1-2.5l.8.4ZM1758.5,1095.6c-.8.8-2.1,1.5-3.3,1.9-.1-.2-.4-.4-.5-.6,1.2-.3,2.5-.9,3.1-1.6l.7.3ZM1759.8,1096.8c-1,1.1-2.7,1.9-4.4,2.4-.1-.2-.3-.5-.5-.6,1.6-.4,3.3-1.1,4.2-2l.7.3ZM1755.9,1091.7c.4.6.9,1.2,1.6,1.7.6-.5,1.1-1.1,1.5-1.7h-3.1ZM1767.1,1092c-.4-.4-1.2-.9-1.9-1.3-.7.9-1.5,1.7-2.3,2.2,0-.2-.3-.7-.4-.8,1-.7,2.1-1.7,2.7-2.8l.8.3c0,.2-.2.3-.2.5.7.4,1.4.9,1.8,1.2l-.4.7ZM1766.1,1097.9c.5.8,1.1,2,1.4,2.6l-.7.4c-.1-.3-.3-.6-.5-1-2.5,1-2.9,1.2-3.1,1.4,0-.2-.2-.6-.3-.8.2,0,.5-.3.5-.7v-6.4h3.7v4.4h-2.9v2.2l1.8-.7c-.2-.4-.4-.7-.5-1l.7-.3ZM1764.2,1094.1v1h2v-1h-2ZM1766.2,1096.9v-1.1h-2v1.1h2ZM1764.2,1091.8h2.2v.7h-2.2v-.7ZM1771.5,1092v1.8h2.4v4.8c0,.4,0,.7-.4.8-.3.1-.7.2-1.2.2,0-.2-.2-.6-.3-.8.4,0,.7,0,.8,0,.1,0,.2,0,.2-.2v-3.9h-1.5v6.5h-.9v-6.5h-1.5v5h-.9v-5.8h2.4v-1.8h-1.5c-.4.8-.8,1.6-1.2,2.1-.2-.2-.5-.4-.7-.6.9-1,1.5-2.6,1.8-4.2l.9.2c-.1.5-.3,1.1-.5,1.6h4.9v.9h-2.8ZM1777.1,1097.2c1-.4,1.6-1,1.6-1.9,0,0-.1,0-.2,0-.5,0-1-.3-1-.9s.5-.9,1-.9,1.1.6,1.1,1.5c0,1.4-.9,2.5-2.2,3l-.3-.7ZM1788,1097.6c-1.8.8-3.8,1.7-5.2,2.3l-.4-1c.5-.2,1.1-.4,1.8-.7l-.2-8h1s.2,7.6.2,7.6c.8-.4,1.7-.7,2.6-1.1l.2.9ZM1793.7,1101.2c-.6-.9-1.8-2.3-2.9-3.4-1,1.5-2.4,2.7-4.5,3.5-.1-.2-.5-.6-.8-.8,4.5-1.6,5.8-4.8,6.4-10.4h1.1c-.3,2.9-.8,5.1-1.7,6.8,1.2,1.2,2.5,2.6,3.2,3.6l-.8.7ZM1788.7,1094.6c-.4-.9-1.2-2.2-2-3.2l.9-.4c.9.9,1.7,2.2,2.1,3.1l-.9.5ZM1807.6,1093v.7h-2.2v1.1h-7.6l.2-1.1h-2.1v-.7h2.2v-1.1h7.5v1.1c0,0,2,0,2,0ZM1803.1,1099.5c1.5.4,3.1.8,4,1.2l-.6.6c-.9-.4-2.4-.9-4-1.3l.5-.6h-2.9l.8.5c-1.1.6-2.8,1.1-4.3,1.3-.1-.2-.4-.5-.5-.7,1.4-.2,3.1-.7,4-1.1h-2.5v-4h8.2v4h-2.8ZM1797.2,1092.6h-.9v-2.1h5c-.2-.3-.4-.7-.6-1l.8-.3c.3.4.6.8.8,1.2h4.8v2.1h-.9v-1.3h-9v1.3ZM1798.5,1096.6h6.3v-.6h-6.3v.6ZM1798.5,1097.8h6.3v-.6h-6.3v.6ZM1798.5,1098.9h6.3v-.6h-6.3v.6ZM1798.7,1094.3h2.4c0-.2,0-.4,0-.6h-2.4v.6ZM1799,1092.5v.6c0,0,2.3,0,2.3,0v-.6s-2.3,0-2.3,0ZM1804.4,1094.3v-.6c0,0-2.4,0-2.4,0,0,.2,0,.4,0,.6h2.4ZM1804.6,1092.5h-2.4v.6c0,0,2.4,0,2.4,0v-.6ZM1813.1,1090.3c-.4,1.1-.8,2.3-1.2,3.4.9,1.1,1.1,2,1.1,2.8s-.2,1.3-.5,1.5c-.2.1-.4.2-.6.2-.3,0-.6,0-.9,0,0-.2,0-.6-.2-.8.3,0,.5,0,.7,0,.2,0,.3,0,.4-.1.2-.1.3-.5.3-.9,0-.7-.2-1.6-1.1-2.6.4-.9.7-2.1,1-2.9h-1.7v10.4h-.8v-11.3h3c0,0,.6.3.6.3ZM1814.7,1093.8c.2-.2.4-.5.5-.7-.3-.3-.7-.7-1.2-1-.3.4-.6.8-.9,1.1-.1-.1-.5-.4-.6-.5.9-.8,1.6-1.9,2-3.2l.8.2c0,.3-.2.5-.3.8h1.5s.5.2.5.2c-.4,1.6-1.1,3-1.9,4h3.8c-.8-1-1.4-2.4-1.8-3.7h.5v-.7h2.6s.5.3.5.3c-.4,1.1-1.1,2.2-1.7,3,.6.9,1.2,1.6,2,2-.2.2-.4.5-.6.7-.5-.4-1-.8-1.5-1.4v.7h-4v-.6c-.4.5-.9.9-1.4,1.2-.1-.2-.3-.5-.5-.6.6-.4,1.2-.9,1.7-1.6-.7.1-1.3.2-1.9.3v-.7c.5,0,1.1-.1,1.9-.2v.6ZM1815.4,1098.3c-.5.8-1.2,1.8-1.8,2.4-.2-.1-.5-.4-.8-.5.6-.6,1.3-1.4,1.7-2.2l.9.3ZM1817.4,1097.4v3.9h-.9v-3.9h-2.8v-.8h6.6v.8h-2.8ZM1814.6,1091.1c0,.1-.1.2-.2.3.4.3.8.7,1.1,1,.2-.4.4-.8.5-1.3h-1.4ZM1817.8,1090.8c.2.6.5,1.3.8,1.8.4-.5.8-1.2,1.1-1.8h-1.8ZM1819,1098c.7.7,1.5,1.6,1.9,2.2l-.7.5c-.4-.6-1.2-1.6-1.9-2.3l.7-.4ZM1832.6,1100.2c.5,0,.6-.2.6-1.7.2.2.6.3.9.4-.1,1.8-.4,2.2-1.4,2.2h-2c-1.2,0-1.5-.3-1.5-1.3v-3.2h-2.3c-.2,2.7-.9,4.1-4.1,4.8,0-.2-.3-.6-.5-.8,2.9-.6,3.5-1.7,3.6-4h-3.5v-.9h11.4v.9h-3.7v3.2c0,.4,0,.4.6.4h1.8ZM1823.7,1093.8h-.9v-2.8h5c-.2-.4-.4-.9-.7-1.3l1-.3c.3.5.7,1.1.8,1.6h4.6v2.8h-1v-1.9h-8.8v1.9ZM1824.6,1094.1v-.9h7v.9h-7ZM1847.2,1099.3v1h-11.6v-1h5.2v-7.5h-4.6v-1h10.3v1h-4.7v7.5h5.3ZM1853.4,1097.9c-1.6.5-3.4,1-4.6,1.4l-.3-.9c.6-.1,1.3-.3,2-.5v-3.1h-1.6v-.9h1.6v-2.8h-1.8v-.9h4.4v.9h-1.7v2.8h1.6v.9h-1.6v2.9l1.8-.5v.9ZM1859.5,1100.4c.3,0,.4-.2.4-1.5.2.2.6.3.8.4,0,1.6-.3,2-1.1,2h-1.3c-.9,0-1.2-.3-1.2-1.2v-2.9h-1.3c-.3,2.1-1,3.5-3.5,4.3,0-.2-.4-.6-.5-.8,2.3-.6,2.9-1.8,3.1-3.5h-1.2v-7.1h6.1v7.1h-1.8v2.9c0,.3,0,.4.4.4h1ZM1854.8,1092.1h4.2v-1.3h-4.2v1.3ZM1854.8,1094.2h4.2v-1.3h-4.2v1.3ZM1854.8,1096.3h4.2v-1.3h-4.2v1.3ZM1864.5,1095.1c-.6-.4-1.7-.9-2.6-1.3l.5-.7c.9.3,2,.8,2.6,1.2l-.5.8ZM1865.7,1096.8c-.7,1.4-1.7,3.1-2.5,4.3l-.8-.6c.7-1,1.8-2.8,2.6-4.3l.7.6ZM1865.1,1091.6c-.5-.5-1.5-1-2.4-1.4l.5-.7c.8.3,1.9.8,2.4,1.2l-.5.8ZM1872.6,1100.3c.3,0,.4-.3.4-2,.2.2.6.3.8.4,0,1.9-.3,2.4-1.2,2.4h-1.3c-1,0-1.2-.3-1.2-1.3v-4.6h-1.5c-.1,3-.6,4.9-3.2,6-.1-.2-.4-.6-.6-.8,2.4-.9,2.7-2.6,2.9-5.2h-1.4v-5.3h6.7v5.3h-1.9v4.6c0,.4,0,.5.4.5h1.1ZM1867.3,1094.4h4.8v-3.5h-4.8v3.5ZM1886.6,1096.8c-.2,2.7-.5,3.7-.9,4.1-.2.2-.5.3-.8.3-.3,0-.9,0-1.6,0,0-.2-.1-.6-.2-.9.6,0,1.2,0,1.5,0s.3,0,.5-.1c.3-.3.5-1.1.7-3.1h-7.8c-.7.6-1.4,1.1-2.3,1.5-.1-.2-.4-.6-.5-.8,2.4-1.2,4.2-3.2,5.5-5.4h-4.6v-.9h2.6c-.2-.5-.6-1.3-1-1.9l.8-.3c.4.6.9,1.4,1.1,1.9l-.7.3h2.3c.4-.7.7-1.5.9-2.3l.9.3c-.2.7-.5,1.4-.8,2h2.7c-.1.8-.3,1.7-.4,2.3h1.5c-.1.8-.3,1.7-.4,2.3h1.3v.4ZM1875.7,1100.7c.8-.6,1.3-1.7,1.5-2.7l.8.3c-.3,1.1-.7,2.2-1.6,2.9l-.8-.5ZM1880.2,1094.9c-.4.5-.8,1-1.3,1.5h5.7c0-.4.2-1,.3-1.5h-4.6ZM1879.7,1098.3c.2.8.4,1.7.4,2.4h-.9c0-.5,0-1.5-.3-2.3h.8ZM1881.6,1092.6c-.3.5-.6,1-.9,1.5h2.7c.1-.4.2-1,.3-1.5h-2.1ZM1881.6,1098c.3.6.6,1.5.7,2.1l-.8.2c0-.6-.4-1.4-.7-2.1l.8-.2ZM1883.7,1099.7c-.2-.5-.6-1.2-1-1.8l.7-.2c.4.5.8,1.2,1,1.7l-.7.3ZM1890.5,1093.3c-.5-.3-1.4-.7-2.1-1l.5-.7c.7.2,1.6.6,2.1.9l-.5.8ZM1900.2,1098.8h-5.4v2.5h-1v-2.5h-5.3v-.9h5.3v-.9h1v.9h5.4v.9ZM1888.8,1096.5c.7-.6,1.7-1.7,2.5-2.7l.5.7c-.7.9-1.6,1.9-2.4,2.7l-.7-.7ZM1891.4,1091.2c-.5-.3-1.4-.8-2.1-1.1l.5-.7c.7.2,1.6.7,2.1,1l-.5.7ZM1892.5,1092.5c-.3.3-.5.5-.8.7-.2-.2-.5-.5-.8-.6,1.1-.8,2-2,2.6-3.3l.9.3c-.2.4-.4.8-.7,1.2h2.1c-.2-.3-.3-.7-.5-1l.9-.3c.2.4.5.9.7,1.3h2.6v.8h-2.9v1h2.5v.7h-2.5v.9h2.5v.7h-2.5v1h3.1v.8h-6.3v.6h-.9v-4.7ZM1895.8,1091.6h-2.3v1h2.3v-1ZM1895.8,1093.2h-2.3v.9h2.3v-.9ZM1895.8,1094.8h-2.3v1h2.3v-1ZM1904.4,1093.4c1.1,0,2,.9,2,2s-.9,2-2,2-2-.9-2-2,.9-2,2-2ZM1904.4,1096.7c.7,0,1.3-.6,1.3-1.3s-.6-1.3-1.3-1.3-1.3.6-1.3,1.3.6,1.3,1.3,1.3Z" fill="#fff"/>
</svg>