<svg width="693" height="47" viewBox="0 0 693 47" fill="none" xmlns="http://www.w3.org/2000/svg">
<path d="M9.505 14.0748C9.505 16.6148 11.595 18.6348 14.065 18.6348H50.585C58.145 18.6348 64.285 24.7648 64.285 32.3348C64.285 39.9048 58.155 46.0348 50.585 46.0348H0.375V36.8348H50.595C53.075 36.8348 55.165 34.8148 55.165 32.3348C55.165 29.8548 53.075 27.7748 50.595 27.7748H14.065C6.565 27.7748 0.375 21.6448 0.375 14.0748C0.375 6.50477 6.565 0.384766 14.065 0.384766H64.285V9.51477H14.065C11.585 9.51477 9.505 11.6048 9.505 14.0748Z" stroke="#00BA00" stroke-width="0.75" stroke-miterlimit="10"/>
<path d="M81.5649 46.0348H72.4349V7.88477C72.5049 3.71477 75.8249 0.384766 79.9949 0.384766C82.7949 0.384766 85.0849 1.88477 86.4549 4.10477L106.675 36.5148L126.955 4.03477C128.255 1.88477 130.675 0.384766 133.415 0.384766C137.525 0.384766 140.915 3.71477 140.915 7.88477V46.0348H131.785V13.5548L113.855 42.3148C112.485 44.5348 110.135 46.0348 107.335 46.0348H106.035C103.295 46.0348 100.885 44.5348 99.5749 42.3848L81.5749 13.5548V46.0348H81.5649Z" stroke="#00BA00" stroke-width="0.75" stroke-miterlimit="10"/>
<path d="M218.055 46.035H207.495L199.215 32.335H167.915L159.635 46.035H149.075L173.795 4.815C175.365 2.205 178.295 0.375 181.625 0.375H185.535C188.865 0.375 191.795 2.205 193.365 4.815L218.085 46.035H218.055ZM193.725 23.205L185.505 9.505H181.595L173.375 23.205H193.725Z" stroke="#00BA00" stroke-width="0.75" stroke-miterlimit="10"/>
<path d="M280.335 31.6848L289.855 46.0348H278.895L269.765 32.3348H235.335V46.0348H226.205V0.384766H276.425C283.985 0.384766 290.055 6.51477 290.055 14.0848V18.6448C290.055 24.8448 286.015 30.0548 280.335 31.6848ZM280.985 14.0748C280.985 11.5948 278.895 9.51477 276.415 9.51477H235.325V23.2148H276.415C278.895 23.2148 280.985 21.1948 280.985 18.6448V14.0848V14.0748Z" stroke="#00BA00" stroke-width="0.75" stroke-miterlimit="10"/>
<path d="M325.585 46.0348V9.51477H298.195V0.384766H362.105V9.51477H334.715V46.0348H325.585Z" stroke="#00BA00" stroke-width="0.75" stroke-miterlimit="10"/>
<path d="M416.825 46.0348H407.765V0.384766H416.825V18.6448H462.475V0.384766H471.605V46.0348H462.475V27.7748H416.825V46.0348Z" stroke="#00BA00" stroke-width="0.75" stroke-miterlimit="10"/>
<path d="M529.905 46.035H493.445C485.885 46.035 479.745 39.835 479.745 32.335V14.075C479.745 6.515 485.875 0.375 493.445 0.375H529.905C537.535 0.375 543.605 6.505 543.605 14.075V32.335C543.605 39.835 537.535 46.035 529.905 46.035ZM493.445 36.835H529.905C532.515 36.835 534.535 34.815 534.535 32.335V14.075C534.535 11.595 532.515 9.515 529.905 9.515H493.445C490.905 9.515 488.885 11.605 488.885 14.075V32.335C488.885 34.815 490.905 36.835 493.445 36.835Z" stroke="#00BA00" stroke-width="0.75" stroke-miterlimit="10"/>
<path d="M560.875 46.0348H551.745V7.88477C551.815 3.71477 555.135 0.384766 559.305 0.384766C562.105 0.384766 564.395 1.88477 565.765 4.10477L585.985 36.5148L606.265 4.03477C607.565 1.88477 609.985 0.384766 612.725 0.384766C616.835 0.384766 620.225 3.71477 620.225 7.88477V46.0348H611.095V13.5548L593.165 42.3148C591.795 44.5348 589.445 46.0348 586.645 46.0348H585.345C582.605 46.0348 580.195 44.5348 578.885 42.3848L560.885 13.5548V46.0348H560.875Z" stroke="#00BA00" stroke-width="0.75" stroke-miterlimit="10"/>
<path d="M642.135 0.385H692.355V9.515H642.135C639.595 9.515 637.565 11.605 637.565 14.075V18.635H692.345V27.765H637.565V32.325C637.565 34.805 639.585 36.825 642.135 36.825H692.355V46.025H642.135C634.565 46.025 628.375 39.825 628.375 32.325V14.075C628.375 6.515 634.575 0.375 642.135 0.375V0.385Z" stroke="#00BA00" stroke-width="0.75" stroke-miterlimit="10"/>
</svg>
