<svg width="1020" height="48" viewBox="0 0 1020 48" fill="none" xmlns="http://www.w3.org/2000/svg">
<path d="M69.8829 46.17H59.3229L51.0429 32.47H19.7429L11.4629 46.17H0.882874L25.6029 4.95001C27.1729 2.34001 30.1029 0.52002 33.4329 0.52002H37.3429C40.6729 0.52002 43.6029 2.35001 45.1729 4.95001L69.8929 46.17H69.8829ZM45.5629 23.34L37.3429 9.64001H33.4329L25.2129 23.34H45.5629Z" stroke="white" stroke-miterlimit="10"/>
<path d="M87.1629 46.17H78.0329V8.02002C78.1029 3.85002 81.4229 0.52002 85.5929 0.52002C88.3929 0.52002 90.6829 2.02002 92.0529 4.24002L112.273 36.65L132.553 4.17001C133.853 2.02001 136.273 0.52002 139.013 0.52002C143.123 0.52002 146.513 3.85002 146.513 8.02002V46.17H137.383V13.69L119.453 42.45C118.083 44.67 115.733 46.17 112.933 46.17H111.633C108.893 46.17 106.483 44.67 105.173 42.52L87.1729 13.7V46.18L87.1629 46.17Z" stroke="white" stroke-miterlimit="10"/>
<path d="M168.423 0.51001H218.643V9.64001H168.423C165.883 9.64001 163.853 11.73 163.853 14.21V18.77H218.633V27.9H163.853V32.46C163.853 34.94 165.873 36.96 168.423 36.96H218.643V46.16H168.423C160.853 46.16 154.663 39.96 154.663 32.46V14.2C154.663 6.63001 160.863 0.5 168.423 0.5V0.51001Z" stroke="white" stroke-miterlimit="10"/>
<path d="M281.563 0.509766H290.763V38.1997C290.693 42.5697 287.113 46.1598 282.743 46.1598C280.983 46.1598 279.223 45.5097 277.913 44.4597L235.913 10.9398V46.1598H226.783V8.46976C226.783 4.03976 230.373 0.509766 234.803 0.509766C236.563 0.509766 238.263 1.09978 239.633 2.20978L281.563 35.7298V0.509766Z" stroke="white" stroke-miterlimit="10"/>
<path d="M298.913 0.509766H308.043V46.1598H298.913V0.509766Z" stroke="white" stroke-miterlimit="10"/>
<path d="M343.583 46.17V9.64999H316.193V0.52002H380.103V9.64999H352.713V46.17H343.583Z" stroke="white" stroke-miterlimit="10"/>
<path d="M425.233 25.3598V46.1598H416.033V25.3598L388.253 0.509766H401.953L420.603 17.2098L439.323 0.509766H453.023L425.243 25.3598H425.233Z" stroke="white" stroke-miterlimit="10"/>
<path d="M567.653 46.17H557.093L548.813 32.47H517.513L509.233 46.17H498.673L523.393 4.95001C524.963 2.34001 527.893 0.52002 531.223 0.52002H535.133C538.463 0.52002 541.393 2.35001 542.963 4.95001L567.683 46.17H567.653ZM543.333 23.34L535.113 9.64001H531.203L522.983 23.34H543.333Z" stroke="white" stroke-miterlimit="10"/>
<path d="M629.933 31.82L639.453 46.17H628.493L619.363 32.47H584.933V46.17H575.803V0.52002H626.023C633.583 0.52002 639.653 6.65 639.653 14.22V18.78C639.653 24.98 635.613 30.19 629.933 31.82ZM630.583 14.21C630.583 11.73 628.493 9.64001 626.023 9.64001H584.933V23.34H626.023C628.503 23.34 630.583 21.32 630.583 18.77V14.21Z" stroke="white" stroke-miterlimit="10"/>
<path d="M675.193 46.17V9.64999H647.803V0.52002H711.713V9.64999H684.323V46.17H675.193Z" stroke="white" stroke-miterlimit="10"/>
<path d="M719.863 0.509766H728.993V46.1598H719.863V0.509766Z" stroke="white" stroke-miterlimit="10"/>
<path d="M746.273 14.2098C746.273 16.7498 748.363 18.7698 750.833 18.7698H787.353C794.913 18.7698 801.053 24.8998 801.053 32.4698C801.053 40.0398 794.923 46.1698 787.353 46.1698H737.133V36.9698H787.353C789.833 36.9698 791.913 34.9498 791.913 32.4698C791.913 29.9898 789.823 27.9098 787.353 27.9098H750.833C743.333 27.9098 737.133 21.7798 737.133 14.2098C737.133 6.63978 743.333 0.509766 750.833 0.509766H801.053V9.63977H750.833C748.353 9.63977 746.273 11.7298 746.273 14.2098Z" stroke="white" stroke-miterlimit="10"/>
<path d="M836.593 46.17V9.64999H809.203V0.52002H873.113V9.64999H845.723V46.17H836.593Z" stroke="white" stroke-miterlimit="10"/>
<path d="M935.393 31.82L944.913 46.17H933.953L924.823 32.47H890.393V46.17H881.263V0.52002H931.483C939.043 0.52002 945.113 6.65 945.113 14.22V18.78C945.113 24.98 941.073 30.19 935.393 31.82ZM936.043 14.21C936.043 11.73 933.953 9.64001 931.473 9.64001H890.383V23.34H931.473C933.953 23.34 936.043 21.32 936.043 18.77V14.21Z" stroke="white" stroke-miterlimit="10"/>
<path d="M990.233 25.3598V46.1598H981.033V25.3598L953.253 0.509766H966.953L985.603 17.2098L1004.32 0.509766H1018.02L990.243 25.3598H990.233Z" stroke="white" stroke-miterlimit="10"/>
</svg>
